<?xml version="1.0" encoding="UTF-8"?>
<svg width="29px" height="26px" viewBox="0 0 29 26" version="1.1" xmlns="http://www.w3.org/2000/svg" xmlns:xlink="http://www.w3.org/1999/xlink">
    <title>blog 2</title>
    <g id="Page-1" stroke="none" stroke-width="1" fill="none" fill-rule="evenodd">
        <g id="blog-2" fill="#FFFFFF" fill-rule="nonzero">
            <g id="blog">
                <path d="M5.66406803,16.8476989 L9.06250885,16.8476989 C9.6881618,16.8476989 10.1953225,16.3355132 10.1953225,15.7036613 C10.1953225,15.0718093 9.6881618,14.5596236 9.06250885,14.5596236 L5.66406803,14.5596236 C5.03841508,14.5596236 4.53125442,15.0718093 4.53125442,15.7036613 C4.53125442,16.3355132 5.03841508,16.8476989 5.66406803,16.8476989 Z" id="Path"></path>
                <path d="M5.66406803,12.2715483 L9.06250885,12.2715483 C9.6881618,12.2715483 10.1953225,11.7593627 10.1953225,11.1275107 C10.1953225,10.4956587 9.6881618,9.98347306 9.06250885,9.98347306 L5.66406803,9.98347306 C5.03841508,9.98347306 4.53125442,10.4956587 4.53125442,11.1275107 C4.53125442,11.7593627 5.03841508,12.2715483 5.66406803,12.2715483 Z" id="Path"></path>
                <path d="M12.3160062,15.7036613 C12.3160062,16.3355132 12.8231668,16.8476989 13.4488198,16.8476989 C15.8175897,16.8476989 18.0445879,15.916109 19.7195661,14.224535 L28.003832,5.85738691 C29.3319427,4.51617438 29.3321693,2.34507695 28.003832,1.00363562 C26.6788366,-0.334545207 24.5228091,-0.334545207 23.1977004,1.00363562 L14.9134345,9.3707837 C13.2385129,11.062415 12.3160062,13.3114213 12.3160062,15.7036613 L12.3160062,15.7036613 Z M24.7998387,2.62159085 C25.2414094,2.17553057 25.9601796,2.17553057 26.401807,2.62159085 C26.8445106,3.06856636 26.8446805,3.79234177 26.401807,4.23948888 L18.1174845,12.606637 C17.170509,13.5630524 15.9864355,14.1931312 14.6991062,14.4409869 C14.9445302,13.1409597 15.568484,11.9451544 16.5154028,10.9887389 L24.7998387,2.62159085 Z" id="Shape"></path>
                <path d="M3.39844082,26 C4.23536351,26 5.03977445,25.6898514 5.66361491,25.1265273 L7.22955979,23.7119247 L18.8047059,23.7119247 C21.9279296,23.7119247 24.4687739,21.1458483 24.4687739,17.9917365 L24.4687739,15.4254885 C24.4687739,14.7936365 23.9616132,14.2814509 23.3359603,14.2814509 C22.7103073,14.2814509 22.2031467,14.7936365 22.2031467,15.4254885 L22.2031467,17.9917365 C22.2031467,19.8842036 20.6786061,21.4238494 18.8047059,21.4238494 L6.79688164,21.4238494 C6.51820949,21.4238494 6.24933618,21.5275565 6.04163481,21.7151786 L4.15334781,23.420996 C3.94553315,23.6086181 3.67745281,23.7119247 3.39844082,23.7119247 C2.7738074,23.7119247 2.26562721,23.1987094 2.26562721,22.5678871 L2.26562721,8.83943542 C2.26562721,6.94696836 3.79016776,5.4073225 5.66406803,5.4073225 L15.1654855,5.4073225 C15.7911385,5.4073225 16.2982991,4.89513685 16.2982991,4.26328486 C16.2982991,3.63143287 15.7911385,3.11924722 15.1654855,3.11924722 L5.66406803,3.11924722 C2.54084428,3.11924722 0,5.68532365 0,8.83943542 L0,22.5678871 C0,24.4603541 1.52454055,26 3.39844082,26 Z" id="Path"></path>
            </g>
        </g>
    </g>
</svg>