<?xml version="1.0" encoding="UTF-8"?>
<svg width="55px" height="55px" viewBox="0 0 55 55" version="1.1" xmlns="http://www.w3.org/2000/svg" xmlns:xlink="http://www.w3.org/1999/xlink">
    <title>69D7182F-A4C7-426C-9477-963D376CE396</title>
    <defs>
        <linearGradient x1="-9.80392157e-05%" y1="50.000041%" x2="99.999902%" y2="50.000041%" id="linearGradient-1">
            <stop stop-color="#FE646F" offset="0%"></stop>
            <stop stop-color="#FE556D" offset="12.09%"></stop>
            <stop stop-color="#FE2E69" offset="35.24%"></stop>
            <stop stop-color="#FE0364" offset="57.25%"></stop>
            <stop stop-color="#D2024E" offset="100%"></stop>
        </linearGradient>
        <linearGradient x1="-18.8685046%" y1="50.0000874%" x2="64.3746765%" y2="50.0000874%" id="linearGradient-2">
            <stop stop-color="#FE646F" offset="0%"></stop>
            <stop stop-color="#FE556D" offset="12.09%"></stop>
            <stop stop-color="#FE2E69" offset="35.24%"></stop>
            <stop stop-color="#FE0364" offset="57.25%"></stop>
            <stop stop-color="#D2024E" offset="100%"></stop>
        </linearGradient>
        <linearGradient x1="-9.80394079e-05%" y1="49.9998769%" x2="100.000098%" y2="49.9998769%" id="linearGradient-3">
            <stop stop-color="#FE93BB" offset="0%"></stop>
            <stop stop-color="#925CB4" offset="55.95%"></stop>
            <stop stop-color="#5B3374" offset="100%"></stop>
        </linearGradient>
        <linearGradient x1="-18.8685046%" y1="49.999759%" x2="64.3746765%" y2="49.999759%" id="linearGradient-4">
            <stop stop-color="#FE93BB" offset="0%"></stop>
            <stop stop-color="#925CB4" offset="55.95%"></stop>
            <stop stop-color="#5B3374" offset="100%"></stop>
        </linearGradient>
        <linearGradient x1="-9.80392157e-05%" y1="50%" x2="99.999902%" y2="50%" id="linearGradient-5">
            <stop stop-color="#99E6FC" offset="0%"></stop>
            <stop stop-color="#01D0FB" offset="42.96%"></stop>
            <stop stop-color="#08C6F7" offset="52.56%"></stop>
            <stop stop-color="#1DA9EB" offset="69.2%"></stop>
            <stop stop-color="#3F7CD9" offset="90.74%"></stop>
            <stop stop-color="#4F66D0" offset="100%"></stop>
        </linearGradient>
        <linearGradient x1="-103.801236%" y1="50%" x2="80.1990797%" y2="50%" id="linearGradient-6">
            <stop stop-color="#99E6FC" offset="0%"></stop>
            <stop stop-color="#01D0FB" offset="42.96%"></stop>
            <stop stop-color="#08C6F7" offset="52.56%"></stop>
            <stop stop-color="#1DA9EB" offset="69.2%"></stop>
            <stop stop-color="#3F7CD9" offset="90.74%"></stop>
            <stop stop-color="#4F66D0" offset="100%"></stop>
        </linearGradient>
    </defs>
    <g id="Page-1" stroke="none" stroke-width="1" fill="none" fill-rule="evenodd">
        <g id="Landing-Copy" transform="translate(-124.000000, -2180.000000)" fill-rule="nonzero">
            <g id="layers-(1)" transform="translate(124.000000, 2180.000000)">
                <path d="M20.8180115,24.0006215 L1.84588982,35.3270229 C-0.615296607,36.7963805 -0.615296607,40.3614464 1.84588982,41.8308039 L20.8181193,53.1570975 C24.9338287,55.6141869 30.0659556,55.6141869 34.181665,53.1570975 L53.1538945,41.8308039 C55.6150809,40.3614464 55.6150809,36.7963805 53.1538945,35.3270229 L34.181665,24.0006215 C30.0659556,21.54364 24.9337208,21.54364 20.8180115,24.0006215 Z" id="Path" fill="url(#linearGradient-1)"></path>
                <path d="M53.1534631,41.8311275 L34.1817728,53.1567739 C31.4738423,54.7733369 28.3280703,55.3265702 25.3192586,54.816474 C26.8840563,54.5511808 28.4121876,53.9979475 29.8216919,53.1567739 L48.7933822,41.8311275 C48.8406173,41.8029805 48.8868818,41.7739708 48.9322836,41.7442062 C51.6240377,39.9824869 49.013597,35.9046287 46.2514216,37.5536523 L34.1817728,44.7590584 C30.0654164,47.2167948 24.9342601,47.2167948 20.8179037,44.7590584 L3.43257968,34.3802713 L20.8179037,24.0004058 C22.2263295,23.1592323 23.7544608,22.605999 25.3192586,22.3407058 C28.3280703,21.831688 31.4738423,22.3849213 34.1817728,24.0004058 L51.5670968,34.3802713 L53.1534631,35.3271307 C55.6155123,36.7959491 55.6155123,40.3612307 53.1534631,41.8311275 Z" id="Path" fill="url(#linearGradient-2)"></path>
                <path d="M20.8180115,12.9217193 L1.84588982,24.2481207 C-0.615296607,25.7174782 -0.615296607,29.2825441 1.84588982,30.7519017 L20.8180115,42.0780874 C24.9337208,44.5351768 30.0658478,44.5351768 34.1815571,42.0780874 L53.1537867,30.7517939 C55.6149731,29.2824363 55.6149731,25.7173704 53.1537867,24.2480128 L34.181665,12.9217193 C30.0659556,10.4647377 24.9337208,10.4647377 20.8180115,12.9217193 Z" id="Path" fill="url(#linearGradient-3)"></path>
                <path d="M53.1534631,30.7522252 L34.1817728,42.0778717 C31.4738423,43.6944347 28.3280703,44.247668 25.3192586,43.7375718 C26.8840563,43.4722786 28.4121876,42.9190452 29.8216919,42.0778717 L48.7933822,30.7522252 C48.8406173,30.7240783 48.8868818,30.6950686 48.9322836,30.665304 C51.6240377,28.9035847 49.013597,24.8257265 46.2514216,26.4747501 L34.1817728,33.6801561 C30.0654164,36.1378926 24.9342601,36.1378926 20.8179037,33.6801561 L3.43257968,23.3013691 L20.8179037,12.9215036 C22.2263295,12.0803301 23.7544608,11.5270967 25.3192586,11.2618036 C28.3280703,10.7527857 31.4738423,11.3060191 34.1817728,12.9215036 L51.5670968,23.3013691 L53.1534631,24.2482285 C55.6155123,25.7170469 55.6155123,29.2823284 53.1534631,30.7522252 Z" id="Path" fill="url(#linearGradient-4)"></path>
                <path d="M20.8180115,1.84281705 L1.84588982,13.1691106 C-0.615296607,14.6384682 -0.615296607,18.2035341 1.84588982,19.6728916 L20.8181193,30.9991852 C24.9338287,33.4562746 30.0659556,33.4562746 34.181665,30.9991852 L53.1538945,19.6728916 C55.6150809,18.2035341 55.6150809,14.6384682 53.1538945,13.1691106 L34.181665,1.84281705 C30.0659556,-0.614272351 24.9337208,-0.614272351 20.8180115,1.84281705 Z" id="Path" fill="url(#linearGradient-5)"></path>
                <path d="M53.1537867,13.1691106 L34.181665,1.84281705 C31.4745972,0.226685478 28.3277468,-0.326116501 25.3196899,0.18376406 C26.8849191,0.449057245 28.4127268,1.00185922 29.8213683,1.84281705 L48.7935979,13.1691106 C51.2548921,14.6384682 51.2548921,18.2035341 48.7935979,19.6728916 L29.8213683,30.9991852 C28.4127268,31.840143 26.8850269,32.392945 25.3196899,32.6582382 C28.3277468,33.1681187 31.4745972,32.6153167 34.181665,30.9991852 L53.1538945,19.6728916 C55.6150809,18.2035341 55.6150809,14.6384682 53.1537867,13.1691106 Z" id="Path" fill="url(#linearGradient-6)"></path>
            </g>
        </g>
    </g>
</svg>