<?xml version="1.0" encoding="UTF-8"?>
<svg width="509px" height="405px" viewBox="0 0 509 405" version="1.1" xmlns="http://www.w3.org/2000/svg" xmlns:xlink="http://www.w3.org/1999/xlink">
    <title>95E483F2-BD56-4AF3-867C-B2D11EC04F8E</title>
    <g id="Page-1" stroke="none" stroke-width="1" fill="none" fill-rule="evenodd">
        <g id="Landing-Copy" transform="translate(-862.000000, -144.000000)" fill-rule="nonzero">
            <g id="undraw_programming_re_kg9v" transform="translate(862.283866, 144.815196)">
                <ellipse id="Oval" fill="#F2F2F2" cx="299.965333" cy="61.3700517" rx="16.9675085" ry="16.9837306"></ellipse>
                <path d="M462.61576,367.210025 C492.125158,343.308883 506.219571,303.145448 497.395854,264.831941 C497.176604,263.879971 496.945197,262.930163 496.701633,261.982516 C490.85189,239.240072 476.379439,217.625348 455.286447,210.35851 C437.575537,204.25694 418.24356,208.948947 399.766781,206.522571 C363.495882,201.759428 335.375781,170.551731 315.589746,137.876942 C295.803667,105.202051 280.597394,68.6272554 254.306001,41.6330587 C210.96892,-2.86230296 140.275257,-12.4421899 86.5434851,16.5209623 C32.8117874,45.4842095 -1.41474824,109.741505 0.0449177148,173.781935 C1.50465059,237.822429 37.2563655,299.049521 89.1767325,331.534477 C108.250188,343.468092 130.310399,351.922133 152.26482,348.963873 C171.3144,346.397027 188.623248,335.512452 207.583173,332.281014 C237.392552,327.200408 267.012009,341.532543 292.794865,358.23384 C318.577648,374.935114 343.482049,394.731173 372.78072,402.473862 C401.229666,409.991969 436.475105,388.382661 462.61576,367.210025 Z" id="Path" fill="#52DFF0" opacity="0.69879"></path>
                <path d="M395.352213,49.3725789 C394.799317,49.0036542 394.240142,48.6538119 393.687245,48.2976089 C377.705831,38.0667996 360.576354,29.7554052 342.652701,23.5351347 L338.496732,80.9219937 L312.150172,80.9219937 L312.150172,15.1580017 C310.491597,14.8145202 308.820313,14.490121 307.149028,14.1848041 L307.149028,80.9219937 L275.839409,80.9219937 C239.946764,80.9219937 210.850022,51.797445 210.850008,15.8704842 C209.172369,16.2329844 207.507439,16.6209914 205.84251,17.0344413 L205.84251,80.9220064 L180.341124,80.9220064 L176.38215,26.2003097 C157.962862,33.2711287 140.476343,42.5695897 124.311791,53.8887377 C124.032185,54.0795607 123.752578,54.2767446 123.479326,54.4675676 C122.074939,55.4534869 120.689616,56.4584884 119.310647,57.4762114 L119.310647,276.407524 L194.467608,276.407524 L193.139477,257.993097 L185.83158,156.888672 L332.999928,156.888672 L325.692031,257.993097 L324.3639,276.407524 L398.688396,276.407524 L398.688396,51.5861392 C397.582662,50.8355854 396.470601,50.097732 395.352213,49.3725789 Z M205.842541,140.19164 L184.62422,140.19164 L180.703374,85.9342798 L205.842541,85.9342798 L205.842541,140.19164 Z M307.149066,140.19164 L271.511945,140.19164 L271.511945,139.11667 C271.511988,138.073 271.097372,137.072157 270.359495,136.334767 C269.621618,135.597378 268.621061,135.183984 267.57839,135.185715 L252.085647,135.185715 C251.043963,135.185305 250.044826,135.599326 249.308244,136.336612 C248.571662,137.073898 248.158036,138.073991 248.158446,139.11667 L248.158446,140.19164 L210.85004,140.19164 L210.85004,85.9342798 L307.149066,85.9342798 L307.149066,140.19164 Z M312.15021,140.19164 L312.15021,85.9342798 L338.134552,85.9342798 L334.213706,140.19164 L312.15021,140.19164 Z" id="Shape" fill="#0D102E"></path>
                <path d="M8.71613388,290.427187 C14.2366169,296.974642 20.2076387,303.127784 26.5855322,308.841614 L490.846736,309.477691 C497.224629,303.763861 503.195651,297.610719 508.716134,291.063264 L8.71613388,290.427187 Z" id="Path" fill="#3F3D56"></path>
                <path d="M323.546673,231.463188 L323.546673,285.977524 C323.547816,287.424058 324.719057,288.596422 326.16421,288.597569 L406.871671,288.597569 C408.316828,288.596429 409.488075,287.424062 409.489214,285.977524 L409.489214,231.463188 C409.485781,230.018072 408.31541,228.847876 406.871671,228.846037 L326.164216,228.846037 C324.720478,228.847879 323.55011,230.018073 323.546673,231.463188 L323.546673,231.463188 Z" id="Path" fill="#3F3D56"></path>
                <path d="M325.440029,232.141475 L325.440029,285.305031 C325.441365,286.077822 326.066905,286.70396 326.838957,286.705297 L406.19984,286.705297 C406.971895,286.703963 407.597436,286.077824 407.598769,285.305031 L407.598769,232.141475 C407.598769,231.367686 406.972888,230.739973 406.19984,230.738289 L326.838957,230.738289 C326.065912,230.73998 325.440029,231.367689 325.440029,232.141475 L325.440029,232.141475 Z" id="Path" fill="#6C63FF"></path>
                <path d="M321.858759,296.609263 C322.158301,296.985216 322.613362,297.203146 323.093768,297.200733 L409.512485,297.200733 C409.99111,297.200114 410.444007,296.983761 410.745513,296.611685 C411.047018,296.239609 411.165059,295.751391 411.066881,295.282496 L409.725405,288.904413 C409.612439,288.375942 409.239747,287.940708 408.735274,287.748126 C408.555507,287.677531 408.364085,287.641389 408.170977,287.641583 L324.429925,287.641583 C324.236817,287.641386 324.045394,287.677528 323.865628,287.748126 C323.36114,287.940686 322.988439,288.37593 322.875497,288.904413 L321.534021,295.282496 C321.437362,295.751131 321.55663,296.238421 321.858759,296.609263 L321.858759,296.609263 Z" id="Path" fill="#2F2E41"></path>
                <rect id="Rectangle" fill="#3F3D56" transform="translate(406.226387, 289.589502) rotate(-180.000000) translate(-406.226387, -289.589502) " x="404.895559" y="288.790243" width="2.66165705" height="1.59851853" rx="0.48819"></rect>
                <rect id="Rectangle" fill="#3F3D56" transform="translate(400.903073, 289.589502) rotate(-180.000000) translate(-400.903073, -289.589502) " x="399.572245" y="288.790243" width="2.66165705" height="1.59851853" rx="0.48819"></rect>
                <rect id="Rectangle" fill="#3F3D56" transform="translate(395.579759, 289.589502) rotate(-180.000000) translate(-395.579759, -289.589502) " x="394.24893" y="288.790243" width="2.66165705" height="1.59851853" rx="0.48819"></rect>
                <rect id="Rectangle" fill="#3F3D56" transform="translate(390.256445, 289.589502) rotate(-180.000000) translate(-390.256445, -289.589502) " x="388.925616" y="288.790243" width="2.66165705" height="1.59851853" rx="0.48819"></rect>
                <rect id="Rectangle" fill="#3F3D56" transform="translate(384.933124, 289.589502) rotate(-180.000000) translate(-384.933124, -289.589502) " x="383.602296" y="288.790243" width="2.66165705" height="1.59851853" rx="0.48819"></rect>
                <rect id="Rectangle" fill="#3F3D56" transform="translate(379.609810, 289.589502) rotate(-180.000000) translate(-379.609810, -289.589502) " x="378.278982" y="288.790243" width="2.66165705" height="1.59851853" rx="0.48819"></rect>
                <rect id="Rectangle" fill="#3F3D56" transform="translate(374.286496, 289.589502) rotate(-180.000000) translate(-374.286496, -289.589502) " x="372.955668" y="288.790243" width="2.66165705" height="1.59851853" rx="0.48819"></rect>
                <rect id="Rectangle" fill="#3F3D56" transform="translate(368.963182, 289.589502) rotate(-180.000000) translate(-368.963182, -289.589502) " x="367.632354" y="288.790243" width="2.66165705" height="1.59851853" rx="0.48819"></rect>
                <rect id="Rectangle" fill="#3F3D56" transform="translate(363.639868, 289.589502) rotate(-180.000000) translate(-363.639868, -289.589502) " x="362.30904" y="288.790243" width="2.66165705" height="1.59851853" rx="0.48819"></rect>
                <rect id="Rectangle" fill="#3F3D56" transform="translate(358.316554, 289.589502) rotate(-180.000000) translate(-358.316554, -289.589502) " x="356.985725" y="288.790243" width="2.66165705" height="1.59851853" rx="0.48819"></rect>
                <rect id="Rectangle" fill="#3F3D56" transform="translate(352.993233, 289.589502) rotate(-180.000000) translate(-352.993233, -289.589502) " x="351.662405" y="288.790243" width="2.66165705" height="1.59851853" rx="0.48819"></rect>
                <rect id="Rectangle" fill="#3F3D56" transform="translate(347.669919, 289.589502) rotate(-180.000000) translate(-347.669919, -289.589502) " x="346.339091" y="288.790243" width="2.66165705" height="1.59851853" rx="0.48819"></rect>
                <rect id="Rectangle" fill="#3F3D56" transform="translate(342.346599, 289.589502) rotate(-180.000000) translate(-342.346599, -289.589502) " x="341.01577" y="288.790243" width="2.66165705" height="1.59851853" rx="0.48819"></rect>
                <rect id="Rectangle" fill="#3F3D56" transform="translate(337.023291, 289.589502) rotate(-180.000000) translate(-337.023291, -289.589502) " x="335.692463" y="288.790243" width="2.66165705" height="1.59851853" rx="0.48819"></rect>
                <rect id="Rectangle" fill="#3F3D56" transform="translate(331.699977, 289.589502) rotate(-180.000000) translate(-331.699977, -289.589502) " x="330.369149" y="288.790243" width="2.66165705" height="1.59851853" rx="0.48819"></rect>
                <rect id="Rectangle" fill="#3F3D56" transform="translate(326.376657, 289.589502) rotate(-180.000000) translate(-326.376657, -289.589502) " x="325.045828" y="288.790243" width="2.66165705" height="1.59851853" rx="0.48819"></rect>
                <rect id="Rectangle" fill="#3F3D56" transform="translate(406.289292, 292.253704) rotate(-180.000000) translate(-406.289292, -292.253704) " x="404.958464" y="291.454445" width="2.66165705" height="1.59851853" rx="0.48819"></rect>
                <rect id="Rectangle" fill="#3F3D56" transform="translate(400.965978, 292.253704) rotate(-180.000000) translate(-400.965978, -292.253704) " x="399.63515" y="291.454445" width="2.66165705" height="1.59851853" rx="0.48819"></rect>
                <rect id="Rectangle" fill="#3F3D56" transform="translate(395.642658, 292.253704) rotate(-180.000000) translate(-395.642658, -292.253704) " x="394.311829" y="291.454445" width="2.66165705" height="1.59851853" rx="0.48819"></rect>
                <rect id="Rectangle" fill="#3F3D56" transform="translate(390.319344, 292.253704) rotate(-180.000000) translate(-390.319344, -292.253704) " x="388.988515" y="291.454445" width="2.66165705" height="1.59851853" rx="0.48819"></rect>
                <rect id="Rectangle" fill="#3F3D56" transform="translate(384.996030, 292.253704) rotate(-180.000000) translate(-384.996030, -292.253704) " x="383.665201" y="291.454445" width="2.66165705" height="1.59851853" rx="0.48819"></rect>
                <rect id="Rectangle" fill="#3F3D56" transform="translate(379.672715, 292.253704) rotate(-180.000000) translate(-379.672715, -292.253704) " x="378.341887" y="291.454445" width="2.66165705" height="1.59851853" rx="0.48819"></rect>
                <rect id="Rectangle" fill="#3F3D56" transform="translate(374.349401, 292.253704) rotate(-180.000000) translate(-374.349401, -292.253704) " x="373.018573" y="291.454445" width="2.66165705" height="1.59851853" rx="0.48819"></rect>
                <rect id="Rectangle" fill="#3F3D56" transform="translate(369.026087, 292.253704) rotate(-180.000000) translate(-369.026087, -292.253704) " x="367.695259" y="291.454445" width="2.66165705" height="1.59851853" rx="0.48819"></rect>
                <rect id="Rectangle" fill="#3F3D56" transform="translate(363.702767, 292.253704) rotate(-180.000000) translate(-363.702767, -292.253704) " x="362.371938" y="291.454445" width="2.66165705" height="1.59851853" rx="0.48819"></rect>
                <rect id="Rectangle" fill="#3F3D56" transform="translate(358.379453, 292.253704) rotate(-180.000000) translate(-358.379453, -292.253704) " x="357.048624" y="291.454445" width="2.66165705" height="1.59851853" rx="0.48819"></rect>
                <rect id="Rectangle" fill="#3F3D56" transform="translate(353.056139, 292.253704) rotate(-180.000000) translate(-353.056139, -292.253704) " x="351.72531" y="291.454445" width="2.66165705" height="1.59851853" rx="0.48819"></rect>
                <rect id="Rectangle" fill="#3F3D56" transform="translate(347.732824, 292.253704) rotate(-180.000000) translate(-347.732824, -292.253704) " x="346.401996" y="291.454445" width="2.66165705" height="1.59851853" rx="0.48819"></rect>
                <rect id="Rectangle" fill="#3F3D56" transform="translate(342.409510, 292.253704) rotate(-180.000000) translate(-342.409510, -292.253704) " x="341.078682" y="291.454445" width="2.66165705" height="1.59851853" rx="0.48819"></rect>
                <rect id="Rectangle" fill="#3F3D56" transform="translate(337.086190, 292.253704) rotate(-180.000000) translate(-337.086190, -292.253704) " x="335.755361" y="291.454445" width="2.66165705" height="1.59851853" rx="0.48819"></rect>
                <rect id="Rectangle" fill="#3F3D56" transform="translate(331.762876, 292.253704) rotate(-180.000000) translate(-331.762876, -292.253704) " x="330.432047" y="291.454445" width="2.66165705" height="1.59851853" rx="0.48819"></rect>
                <rect id="Rectangle" fill="#3F3D56" transform="translate(326.439562, 292.253704) rotate(-180.000000) translate(-326.439562, -292.253704) " x="325.108733" y="291.454445" width="2.66165705" height="1.59851853" rx="0.48819"></rect>
                <rect id="Rectangle" fill="#3F3D56" transform="translate(371.421578, 295.450748) rotate(-180.000000) translate(-371.421578, -295.450748) " x="360.774947" y="294.651488" width="21.2932628" height="1.59851853" rx="0.48819"></rect>
                <rect id="Rectangle" fill="#FFFFFF" x="336.383891" y="242.369204" width="3.79111487" height="1.98593389" rx="0.992966947"></rect>
                <rect id="Rectangle" fill="#FFFFFF" x="357.051268" y="242.369204" width="3.79111487" height="1.98593389" rx="0.992966947"></rect>
                <rect id="Rectangle" fill="#FFFFFF" x="362.907023" y="242.369204" width="3.79111487" height="1.98593389" rx="0.992966947"></rect>
                <rect id="Rectangle" fill="#FFFFFF" x="342.005482" y="242.203652" width="13.2153034" height="1.98593389" rx="0.992966947"></rect>
                <rect id="Rectangle" fill="#FFFFFF" x="369.561988" y="242.203652" width="13.2153034" height="1.98593389" rx="0.992966947"></rect>
                <rect id="Rectangle" fill="#FFFFFF" x="341.89519" y="246.851421" width="3.79111487" height="1.98593389" rx="0.992966947"></rect>
                <rect id="Rectangle" fill="#FFFFFF" x="362.562566" y="246.851421" width="3.79111487" height="1.98593389" rx="0.992966947"></rect>
                <rect id="Rectangle" fill="#FFFFFF" x="368.418321" y="246.851421" width="3.79111487" height="1.98593389" rx="0.992966947"></rect>
                <rect id="Rectangle" fill="#FFFFFF" x="347.516787" y="246.685863" width="13.2153034" height="1.98593389" rx="0.992966947"></rect>
                <rect id="Rectangle" fill="#FFFFFF" x="375.073287" y="246.685863" width="13.2153034" height="1.98593389" rx="0.992966947"></rect>
                <rect id="Rectangle" fill="#FFFFFF" x="347.406489" y="251.333633" width="3.79111487" height="1.98593389" rx="0.992966947"></rect>
                <rect id="Rectangle" fill="#FFFFFF" x="368.073865" y="251.333633" width="3.79111487" height="1.98593389" rx="0.992966947"></rect>
                <rect id="Rectangle" fill="#FFFFFF" x="373.929626" y="251.333633" width="3.79111487" height="1.98593389" rx="0.992966947"></rect>
                <rect id="Rectangle" fill="#FFFFFF" x="353.028086" y="251.168081" width="13.2153034" height="1.98593389" rx="0.992966947"></rect>
                <rect id="Rectangle" fill="#FFFFFF" x="380.584585" y="251.168081" width="13.2153034" height="1.98593389" rx="0.992966947"></rect>
                <rect id="Rectangle" fill="#FFFFFF" x="352.917794" y="255.815844" width="3.79111487" height="1.98593389" rx="0.992966947"></rect>
                <rect id="Rectangle" fill="#FFFFFF" x="373.58517" y="255.815844" width="3.79111487" height="1.98593389" rx="0.992966947"></rect>
                <rect id="Rectangle" fill="#FFFFFF" x="379.440925" y="255.815844" width="3.79111487" height="1.98593389" rx="0.992966947"></rect>
                <rect id="Rectangle" fill="#FFFFFF" x="358.539384" y="255.650292" width="13.2153034" height="1.98593389" rx="0.992966947"></rect>
                <rect id="Rectangle" fill="#FFFFFF" x="357.051268" y="273.639025" width="3.79111487" height="1.98593389" rx="0.992966947"></rect>
                <rect id="Rectangle" fill="#FFFFFF" x="362.907023" y="273.639025" width="3.79111487" height="1.98593389" rx="0.992966947"></rect>
                <rect id="Rectangle" fill="#FFFFFF" x="369.561988" y="273.804583" width="13.2153034" height="1.98593389" rx="0.992966947"></rect>
                <rect id="Rectangle" fill="#FFFFFF" x="336.383891" y="273.639025" width="3.79111487" height="1.98593389" rx="0.992966947"></rect>
                <rect id="Rectangle" fill="#FFFFFF" x="342.005482" y="273.804583" width="13.2153034" height="1.98593389" rx="0.992966947"></rect>
                <rect id="Rectangle" fill="#FFFFFF" x="341.89519" y="269.156813" width="3.79111487" height="1.98593389" rx="0.992966947"></rect>
                <rect id="Rectangle" fill="#FFFFFF" x="362.562566" y="269.156813" width="3.79111487" height="1.98593389" rx="0.992966947"></rect>
                <rect id="Rectangle" fill="#FFFFFF" x="368.418321" y="269.156813" width="3.79111487" height="1.98593389" rx="0.992966947"></rect>
                <rect id="Rectangle" fill="#FFFFFF" x="347.516787" y="269.322365" width="13.2153034" height="1.98593389" rx="0.992966947"></rect>
                <rect id="Rectangle" fill="#FFFFFF" x="347.406489" y="264.674602" width="3.79111487" height="1.98593389" rx="0.992966947"></rect>
                <rect id="Rectangle" fill="#FFFFFF" x="368.073865" y="264.674602" width="3.79111487" height="1.98593389" rx="0.992966947"></rect>
                <rect id="Rectangle" fill="#FFFFFF" x="373.929626" y="264.674602" width="3.79111487" height="1.98593389" rx="0.992966947"></rect>
                <rect id="Rectangle" fill="#FFFFFF" x="353.028086" y="264.840154" width="13.2153034" height="1.98593389" rx="0.992966947"></rect>
                <rect id="Rectangle" fill="#FFFFFF" x="352.917794" y="260.192384" width="3.79111487" height="1.98593389" rx="0.992966947"></rect>
                <rect id="Rectangle" fill="#FFFFFF" x="373.58517" y="260.192384" width="3.79111487" height="1.98593389" rx="0.992966947"></rect>
                <rect id="Rectangle" fill="#FFFFFF" x="379.440925" y="260.192384" width="3.79111487" height="1.98593389" rx="0.992966947"></rect>
                <rect id="Rectangle" fill="#FFFFFF" x="358.539384" y="260.357942" width="13.2153034" height="1.98593389" rx="0.992966947"></rect>
                <path d="M329.575587,326.168858 L321.092364,312.746604 L347.719801,291.499835 L358.710459,279.311921 C361.616323,276.089528 366.015148,274.657381 370.258865,275.55205 C374.502582,276.446719 377.950609,279.533155 379.311105,283.654991 L379.311105,283.654991 C381.370347,289.893882 378.118215,296.643708 371.958629,298.915112 L354.579305,305.323809 L329.575587,326.168858 Z" id="Path" fill="#FFB6B6"></path>
                <path d="M130.529255,228.848581 L130.529255,294.084629 L176.187731,294.084629 L176.187731,228.848581 C176.18932,227.8854 175.562905,227.033899 174.643538,226.749527 C174.432451,226.679741 174.211294,226.645353 173.989004,226.647637 L132.734334,226.647637 C132.150265,226.64662 131.589699,226.877925 131.176103,227.290723 C130.762508,227.703521 130.529807,228.263953 130.529255,228.848581 L130.529255,228.848581 Z M148.347816,251.263932 C148.372623,248.587151 150.547527,246.430269 153.221866,246.430269 C155.896205,246.430269 158.071109,248.587151 158.095916,251.263932 L158.095916,258.833247 C158.08222,261.51796 155.90405,263.687107 153.221866,263.687107 C150.539682,263.687107 148.361512,261.51796 148.347816,258.833247 L148.347816,251.263932 Z" id="Shape" fill="#2F2E41"></path>
                <path d="M130.38949,291.998342 L130.38949,298.289142 C130.391632,298.967289 130.938467,299.517483 131.615946,299.523131 L175.101114,299.523131 C175.779534,299.519729 176.32757,298.96822 176.32757,298.289142 L176.32757,291.998342 L130.38949,291.998342 Z" id="Path" fill="#3F3D56"></path>
                <path d="M58.7021536,130.562021 L58.7021536,249.673733 C58.7046556,252.834355 61.2637744,255.395921 64.4213778,255.398425 L240.764125,255.398425 C243.921734,255.395935 246.480861,252.834361 246.483349,249.673733 L246.483349,130.562021 C246.475836,127.404512 243.918624,124.8477 240.764125,124.84369 L64.4213778,124.84369 C61.2668836,124.847714 58.7096806,127.404518 58.7021536,130.562021 Z" id="Path" fill="#3F3D56"></path>
                <path d="M62.8390591,132.044036 L62.8390591,248.204402 C62.8419729,249.892924 64.2087573,251.261015 65.8956667,251.263932 L239.29619,251.263932 C240.983105,251.261029 242.349898,249.89293 242.352798,248.204402 L242.352798,132.044036 C242.352798,130.35334 240.985267,128.981817 239.29619,128.978145 L65.8956667,128.978145 C64.2065956,128.981831 62.8390591,130.353346 62.8390591,132.044036 Z" id="Path" fill="#FFFFFF"></path>
                <path d="M95.0192273,299.096915 C95.3768058,299.545707 95.9200325,299.805862 96.4935163,299.802985 L199.655612,299.802985 C200.226972,299.802247 200.76762,299.543975 201.127545,299.099809 C201.487469,298.655642 201.628381,298.07283 201.511182,297.513084 L199.9098,289.899243 C199.774938,289.268391 199.330036,288.748842 198.727827,288.518956 C198.513239,288.434689 198.28474,288.391545 198.054229,288.391772 L98.0885443,288.391772 C97.8580334,288.391541 97.6295332,288.434685 97.4149468,288.518956 C96.8127201,288.748818 96.3678086,289.268377 96.2329738,289.899243 L94.631591,297.513084 C94.5162004,298.072515 94.6585699,298.654218 95.0192273,299.096915 Z" id="Path" fill="#2F2E41"></path>
                <path d="M233.668798,144.97976 L71.4186262,144.97976 C71.0678572,144.971968 70.7875626,144.68511 70.7875626,144.33392 C70.7875626,143.982729 71.0678572,143.695871 71.4186262,143.688079 L233.668798,143.688079 C234.019567,143.695871 234.299861,143.982729 234.299861,144.33392 C234.299861,144.68511 234.019567,144.971968 233.668798,144.97976 L233.668798,144.97976 Z" id="Path" fill="#3F3D56"></path>
                <ellipse id="Oval" fill="#3F3D56" cx="82.4632044" cy="136.521273" rx="3.78131593" ry="3.8692813"></ellipse>
                <ellipse id="Oval" fill="#3F3D56" cx="95.5259252" cy="136.521273" rx="3.78131593" ry="3.8692813"></ellipse>
                <ellipse id="Oval" fill="#3F3D56" cx="108.588652" cy="136.521273" rx="3.78131593" ry="3.8692813"></ellipse>
                <path d="M225.802869,133.60883 L216.525016,133.60883 C216.14358,133.617727 215.838996,133.929789 215.838996,134.311695 C215.838996,134.6936 216.14358,135.005662 216.525016,135.01456 L225.802869,135.01456 C226.186816,135.009137 226.495224,134.696047 226.495224,134.311695 C226.495224,133.927342 226.186816,133.614252 225.802869,133.60883 Z" id="Path" fill="#3F3D56"></path>
                <path d="M225.802869,136.248549 L216.525016,136.248549 C216.143253,136.256997 215.838175,136.569192 215.838175,136.951414 C215.838175,137.333635 216.143253,137.645831 216.525016,137.654279 L225.802869,137.654279 C226.187384,137.649647 226.496664,137.336324 226.496664,136.951414 C226.496664,136.566503 226.187384,136.25318 225.802869,136.248549 L225.802869,136.248549 Z" id="Path" fill="#3F3D56"></path>
                <path d="M225.802869,138.88823 L216.525016,138.88823 C216.14358,138.897127 215.838996,139.20919 215.838996,139.591095 C215.838996,139.973 216.14358,140.285062 216.525016,140.29396 L225.802869,140.29396 C226.186816,140.288537 226.495224,139.975447 226.495224,139.591095 C226.495224,139.206742 226.186816,138.893653 225.802869,138.88823 Z" id="Path" fill="#3F3D56"></path>
                <path d="M449.47498,294.759157 C450.049357,296.433103 451.636199,297.545681 453.40415,297.514006 L470.238896,297.080342 C472.021782,297.04558 473.568892,295.839769 474.039543,294.118131 L476.421842,268.619583 C477.26706,269.002849 478.187199,269.192096 479.114916,269.173472 C481.307651,269.118376 483.304456,267.896536 484.353154,265.968209 C485.401852,264.039881 485.343121,261.698025 484.199084,259.824793 C483.055048,257.951562 480.999512,256.831545 478.806777,256.886642 C478.435975,256.885446 478.066109,256.923948 477.703488,257.001492 C476.906029,256.137896 475.780987,255.652012 474.606179,255.663611 L448.710478,256.333159 C448.495664,256.341094 448.281941,256.367654 448.071711,256.412542 C446.922741,256.626931 445.922601,257.328351 445.328963,258.336091 C444.735324,259.343831 444.606235,260.55935 444.974954,261.669488 L449.47498,294.759157 Z M476.910384,266.888277 L478.605588,260.811999 C478.798423,260.110093 478.802886,259.369691 478.618526,258.665507 C478.700781,258.665291 478.773345,258.626267 478.8556,258.62607 C481.275693,258.57598 483.279917,260.495565 483.336587,262.917826 C483.393257,265.340086 481.481002,267.351476 479.061219,267.414834 C478.309777,267.438347 477.566156,267.256297 476.910384,266.888277 L476.910384,266.888277 Z" id="Shape" fill="#2F2E41"></path>
                <path d="M448.071711,256.412529 C448.623413,259.570091 454.826172,261.78984 462.284523,261.404009 C469.14296,261.087713 474.750811,258.677147 475.778213,255.820208 C475.397982,255.707643 475.002591,255.654881 474.606179,255.663809 L448.710478,256.333146 C448.495664,256.341081 448.281941,256.367641 448.071711,256.412529 L448.071711,256.412529 Z" id="Path" fill="#3F3D56"></path>
                <path d="M463.65143,280.747509 C463.685525,280.738873 463.717938,280.724594 463.747329,280.70526 L467.40328,278.310011 C467.49307,278.251419 467.547272,278.151407 467.547272,278.044119 C467.547272,277.936831 467.493228,277.836777 467.403483,277.778117 L463.603516,275.286814 C463.50863,275.223964 463.387402,275.216731 463.285729,275.267852 C463.184056,275.318974 463.117477,275.420637 463.111199,275.534352 C463.104921,275.648067 463.159903,275.756454 463.25533,275.818479 L466.649314,278.04359 L463.399524,280.173137 C463.269583,280.258184 463.220089,280.424783 463.282491,280.567081 C463.344893,280.709379 463.500906,280.785684 463.651405,280.747515 L463.65143,280.747509 Z" id="Path" fill="#6C63FF"></path>
                <path d="M457.877073,281.01405 C458.002589,280.982245 458.09627,280.877387 458.113879,280.748992 C458.131488,280.620597 458.069502,280.49435 457.957193,280.429864 L454.587261,278.495974 L457.844422,276.074283 C457.935471,276.006563 457.98351,275.895367 457.970443,275.782581 C457.957376,275.669795 457.885189,275.572555 457.781073,275.527489 C457.676957,275.482423 457.556731,275.496379 457.465683,275.564099 L453.818966,278.275472 C453.732883,278.339333 453.684797,278.442355 453.691099,278.54942 C453.6974,278.656485 453.757239,278.753142 453.850218,278.806443 L457.640952,280.981623 C457.712467,281.022709 457.797145,281.034338 457.877073,281.01405 Z" id="Path" fill="#6C63FF"></path>
                <path d="M463.287796,282.846569 C463.318541,282.838882 463.34791,282.826468 463.374855,282.809772 C463.446922,282.765984 463.498638,282.69531 463.518607,282.613325 C463.538575,282.53134 463.525157,282.444772 463.481309,282.372698 L458.298751,273.84395 C458.207248,273.694225 458.011906,273.646937 457.862161,273.738261 C457.712417,273.829584 457.664825,274.025028 457.755794,274.175078 L462.938351,282.70382 C463.010971,282.822941 463.152646,282.880815 463.287796,282.846569 L463.287796,282.846569 Z" id="Path" fill="#6C63FF"></path>
                <rect id="Rectangle" fill="#6C63FF" x="141.773612" y="180.090951" width="32.230472" height="6.89869937" rx="3.26417"></rect>
                <rect id="Rectangle" fill="#E6E6E6" x="125.404856" y="193.888344" width="64.9679851" height="6.89869937" rx="3.26417"></rect>
                <rect id="Rectangle" fill="#E6E6E6" x="125.404856" y="207.685736" width="64.9679851" height="6.89869937" rx="3.26417"></rect>
                <path d="M193.454212,253.887793 L193.59195,254.32315 L193.599208,254.337671 L197.74574,266.956165 L202.515745,281.497481 L211.490288,308.824192 L211.577271,313.069025 L211.577271,313.083547 L212.24419,347.231018 L210.395648,351.860449 L212.476174,359.450354 C212.476174,359.450354 211.519272,347.977435 206.386853,354.566022 C203.479911,358.310225 200.080023,362.14145 197.289041,365.733255 C201.355893,367.380423 205.48796,368.870348 209.685244,370.203031 C210.591423,370.493292 211.504809,370.769031 212.418213,371.044771 C212.613912,371.102832 212.809637,371.160878 213.005387,371.21891 C226.918818,375.337469 241.302772,377.651734 255.804795,378.104995 C256.558696,378.126781 257.298148,378.141252 258.015796,378.155793 C258.269551,378.163057 258.515999,378.170321 258.762472,378.170321 C259.57438,378.177585 260.379036,378.184804 261.190944,378.184804 C262.829273,378.184804 264.460349,378.160623 266.084172,378.112259 C278.102951,377.773213 290.051623,376.155662 301.728595,373.286897 C301.648863,368.46158 301.431399,362.823534 301.119689,356.800935 C300.974694,353.847674 297.719801,350.647724 297.524057,347.5566 C297.386319,345.234621 300.307775,343.050511 300.155536,340.692255 C299.169649,326.172687 297.937271,331.746362 297.02386,321.464401 C296.92962,320.455787 296.842633,319.49072 296.762898,318.569201 C296.175724,311.966087 295.769761,307.837312 295.769761,307.837312 L299.669846,283.231707 L305.795453,244.599945 L305.324234,243.82353 L304.795053,243.562319 L272.485249,227.55524 L270.730947,223.05642 C269.685206,220.404847 267.1343,218.655697 264.286379,218.637397 L243.002667,218.55026 C240.761691,218.540216 238.653489,219.612887 237.340978,221.431047 L231.577907,229.420033 L193.454212,253.887793 Z" id="Path" fill="#337D87"></path>
                <path d="M216.398024,302.743455 L211.577271,313.069025 L208.286175,320.121986 L202.624531,349.79243 L199.790058,352.803707 L197.361567,342.143465 L171.944242,347.792426 C171.110563,343.155737 171.721065,347.949295 171.206354,342.862773 C171.351349,342.717639 171.50355,342.572505 171.655802,342.427371 C172.061753,342.050038 172.402479,341.694496 172.395235,341.353476 C172.105251,323.808096 172.975164,293.948999 180.238903,275.85941 C181.37653,272.905837 182.87653,270.105262 184.704403,267.522096 C184.849398,267.326184 184.987136,267.130234 185.124874,266.934361 C188.474014,262.239604 190.590775,257.617437 193.591963,254.330427 L193.591963,254.323163 C193.610638,254.308085 193.627651,254.291054 193.642712,254.272359 C193.653621,254.266929 193.663444,254.259546 193.671696,254.250573 L214.288488,243.30832 L215.172916,268.182401 L215.8036,286.061575 L216.398024,302.743455 Z" id="Path" fill="#337D87"></path>
                <path d="M290.738324,305.676215 L296.760032,318.572674 L298.861796,323.063956 L304.521801,352.731614 L307.346939,355.735576 L309.781034,345.077955 L310.924752,344.843128 L331.551134,340.567145 L337.563043,359.67891 C340.356457,355.020073 339.490318,349.037169 335.490638,345.363642 C335.080086,344.991811 334.737962,344.629781 334.747691,344.28733 C335.089872,323.651023 333.828803,285.96949 322.440347,270.460504 C318.823388,265.538687 316.653254,260.636461 313.495721,257.211753 C313.485935,257.202021 313.485935,257.192226 313.476206,257.192226 L305.792594,244.599099 L305.323388,243.826055 L304.795529,243.561905 L290.738324,305.676215 Z" id="Path" fill="#337D87"></path>
                <ellipse id="a657ec4b-47ce-4d2a-9c58-81a811696ca9" fill="#FFB6B6" cx="254.259289" cy="184.144918" rx="28.3154089" ry="28.3424804"></ellipse>
                <path d="M292.530901,164.347825 C292.087455,163.873593 291.47035,163.600338 290.821488,163.590894 L291.247253,162.407791 C291.530196,161.649068 291.382735,160.796605 290.861413,160.177273 C290.340091,159.55794 289.525807,159.267848 288.730794,159.418229 L287.180249,159.717185 L287.326407,158.68038 C287.440452,157.894768 287.132042,157.1072 286.515029,156.608417 C285.898016,156.109634 285.063912,155.973612 284.320637,156.250566 C283.647509,156.515754 282.890669,156.461977 282.261716,156.104268 C281.630634,155.757693 281.184254,155.150303 281.041615,154.444076 L280.501466,151.836161 L280.444274,151.696224 C277.813431,147.307293 272.755095,144.114187 266.565623,142.943805 C261.056072,141.894278 255.406781,142.428583 249.960809,142.931084 C247.800213,143.134628 245.360011,143.363616 243.326509,144.610327 C241.598032,145.678936 240.136452,147.816154 240.435123,149.972455 C235.065407,148.325016 229.308055,151.613534 226.454797,155.760755 C223.0741,160.696712 222.521242,166.879379 222.432276,171.713564 C222.190798,183.150227 224.548389,192.506918 229.422439,199.529207 C229.778302,200.038069 229.867268,201.100317 230.572639,201.45652 L230.426481,201.221172 C231.214463,201.61554 232.015154,202.251617 231.716483,202.932219 C230.8586,204.891336 236.55876,209.22302 240.574926,210.654193 C247.901888,213.268469 257.643633,213.045842 264.493993,212.104448 L264.735471,210.482452 C267.207447,210.145331 268.948633,209.502893 269.437944,208.497892 C270.302215,207.760043 271.039327,207.098523 271.681151,206.487889 L271.687506,206.481528 C271.700215,206.468807 271.725634,206.449724 271.738344,206.437003 C274.833079,203.466523 275.55116,201.774591 275.875249,199.198486 C276.186629,196.67326 275.633771,194.10987 275.068203,191.800911 C286.976899,193.645534 270.378439,179.104816 281.473734,176.293356 C281.601,176.254097 281.730428,176.22224 281.86137,176.197944 C282.18546,176.121615 282.509549,176.045286 282.820929,175.956235 C284.321909,175.548425 285.759073,174.934049 287.091283,174.130694 C290.192374,172.241546 291.215479,169.735403 292.816862,166.911222 C293.291105,166.08595 293.175323,165.048065 292.530901,164.347825 L292.530901,164.347825 Z" id="Path" fill="#2F2E41"></path>
                <path d="M354.406552,307.694112 C354.400198,308.807246 354.387488,310.365635 354.336651,312.292948 C354.330296,312.5601 354.323941,312.833613 354.317587,313.113487 C354.234976,316.656436 354.152365,319.626915 354.018916,322.928154 C354.012561,323.157142 354.006207,323.379768 353.993497,323.608756 C353.815566,328.213953 353.535959,333.576081 353.053003,342.067708 C352.156991,357.753365 350.593736,344.224009 349.024127,349.726074 C348.94787,349.999587 348.865259,350.323986 348.789003,350.705633 C348.55132,352.090338 348.150287,353.441914 347.594321,354.731999 C346.761856,355.228139 345.903972,355.705197 345.058798,356.182255 C342.650369,357.524377 340.203844,358.815581 337.738223,360.043242 C336.352861,360.730205 334.961222,361.404446 333.563189,362.053245 C333.340775,362.155017 333.124715,362.256789 332.908656,362.352201 C325.749552,365.666759 318.371311,368.48486 310.826096,370.786581 C309.351807,371.231835 307.883872,371.664367 306.396874,372.065095 C304.846329,372.497628 303.295784,372.904717 301.726174,373.286363 C290.049564,376.155702 278.101232,377.774075 266.082698,378.114187 C264.462251,378.165073 262.829095,378.184155 261.189584,378.184155 C260.376183,378.184155 259.575492,378.177794 258.762091,378.171434 C258.514258,378.171434 258.266425,378.165073 258.018592,378.158712 C257.300512,378.13963 256.557012,378.126908 255.807159,378.107826 C241.305072,377.655066 226.921124,375.33989 213.008297,371.219113 L212.417311,371.047372 C211.502235,370.767498 210.593514,370.493985 209.684793,370.20139 C205.490669,368.871989 201.358,367.383569 197.286785,365.73613 C194.17934,364.483059 191.107905,363.138816 188.07248,361.703402 C188.044772,361.695899 188.018845,361.682923 187.996223,361.665238 C187.360754,361.372642 186.71893,361.067326 186.083461,360.755648 C186.00085,360.711122 185.911884,360.666597 185.822918,360.622072 C183.452592,359.464412 181.10771,358.251625 178.788272,356.983712 C176.837381,352.499338 174.092154,351.640666 172.389096,347.696989 C171.89343,346.525361 171.535175,345.30015 171.321507,344.045907 C171.321507,344.033186 171.315153,344.020464 171.315153,344.001382 C171.493084,346.367588 170.558944,339.803274 171.308798,343.975939 C171.302443,343.89961 171.296089,343.81692 171.289734,343.721508 C171.27067,343.49252 171.245289,343.212647 171.207161,342.862804 C169.027501,321.560589 169.167304,297.198843 168.220455,277.124255 C168.156883,275.826659 168.091218,274.584188 168.02346,273.396845 C168.004395,273.002477 167.978977,272.61447 167.953526,272.232824 C167.998009,272.11833 168.048847,271.997475 168.106039,271.882982 C168.118212,271.850004 168.13309,271.818091 168.150522,271.78757 C168.169261,271.748098 168.190486,271.709856 168.214069,271.673076 C168.226778,271.653994 168.245842,271.628551 168.258551,271.609469 C168.26784,271.587639 168.278451,271.566397 168.290325,271.545861 C168.347517,271.45681 168.411064,271.361399 168.480966,271.272348 C168.512739,271.234183 168.538158,271.202348 168.569931,271.170576 C168.591873,271.138077 168.617458,271.108199 168.646188,271.081525 C168.665686,271.050954 168.689196,271.023142 168.716089,270.998835 C168.741508,270.973392 168.766927,270.941588 168.7987,270.909816 C168.812288,270.889796 168.829537,270.87253 168.849538,270.85893 C168.899797,270.801128 168.955088,270.747913 169.01476,270.69991 C169.241487,270.491094 169.483655,270.299726 169.739195,270.127441 C169.828129,270.070194 169.923481,270.012947 170.012447,269.94934 C170.652864,269.565871 171.327189,269.242226 172.026885,268.982503 C172.268363,268.893452 172.509841,268.810762 172.770384,268.721711 C172.865704,268.696268 172.95467,268.664464 173.04999,268.63266 C173.189794,268.588135 173.329597,268.54361 173.475755,268.511806 C174.20019,268.29554 174.981817,268.111077 175.826992,267.939337 C175.928667,267.920254 176.036696,267.901172 176.144726,267.875729 C176.297239,267.843925 176.456106,267.818482 176.614974,267.793039 C176.831033,267.754874 177.053447,267.71671 177.275862,267.678545 C179.163206,267.379589 181.304737,267.156962 183.668683,267.010664 C183.891098,266.997943 184.113512,266.985221 184.335926,266.9725 C184.596469,266.959778 184.857011,266.947057 185.123908,266.934335 C185.346322,266.921614 185.575091,266.915253 185.80386,266.908892 C186.026275,266.89617 186.255044,266.88981 186.490167,266.883449 C187.131991,266.864367 187.79288,266.845284 188.466477,266.832563 C190.385594,266.794398 192.406387,266.80712 194.528855,266.851645 C195.513832,266.877088 196.517874,266.902531 197.547334,266.947057 C197.617268,266.947057 197.680783,266.953417 197.74433,266.953417 C198.640341,266.985221 199.542708,267.023386 200.470493,267.074272 C201.118672,267.106076 201.773205,267.13788 202.427707,267.176044 C203.044112,267.214209 203.666872,267.252374 204.295987,267.296899 C204.785298,267.322342 205.27461,267.360507 205.770276,267.39231 C206.189686,267.424114 206.609095,267.455918 207.028505,267.481361 L207.600428,267.519526 C207.911808,267.544969 208.223188,267.564051 208.540922,267.595855 C209.239939,267.653102 209.938955,267.710349 210.650681,267.767596 C211.356052,267.831204 212.074132,267.894811 212.792212,267.958419 C213.510293,268.022027 214.234728,268.091995 214.959163,268.161964 C215.035419,268.168324 215.105321,268.174685 215.175222,268.181046 C215.83611,268.251046 216.496999,268.314622 217.164241,268.38459 C217.316754,268.397312 217.475621,268.410034 217.628134,268.429116 C218.264302,268.493092 218.912882,268.567984 219.554877,268.636273 C219.751911,268.65755 219.947896,268.678165 220.145508,268.699786 C220.648412,268.754603 221.144173,268.802124 221.650598,268.861642 C222.317841,268.937971 222.997831,269.007939 223.658681,269.09699 C224.173411,269.154237 224.688141,269.211484 225.202872,269.275092 C226.009918,269.370503 226.829673,269.472276 227.649429,269.580409 C227.960809,269.618573 228.272189,269.656738 228.583569,269.701263 C230.922096,269.993859 233.286042,270.318258 235.688116,270.655379 C239.329355,271.170601 243.027787,271.730349 246.751638,272.334622 C250.481881,272.938895 254.233268,273.577092 258.0058,274.249213 C258.959004,274.420954 259.912208,274.592695 260.871767,274.770796 C261.303886,274.853448 261.736005,274.936128 262.168124,275.018834 C262.905269,275.152411 263.642413,275.292348 264.379558,275.432284 C265.116702,275.572221 265.853846,275.712158 266.590991,275.858456 C267.467939,276.030197 268.351241,276.201938 269.228189,276.373678 C275.004605,277.518617 280.74921,278.739884 286.354088,280.018399 C287.275518,280.228273 288.196949,280.444571 289.112025,280.654476 C290.942177,281.080647 292.755383,281.51318 294.551643,281.952073 C295.047309,282.066567 295.53662,282.187421 296.025932,282.308276 C297.246033,282.613593 298.466134,282.91891 299.667171,283.230587 L299.876876,283.287834 C300.760178,283.5041 301.624417,283.726727 302.488655,283.955715 C304.528512,284.49002 306.534476,285.030685 308.50655,285.577711 C309.815617,285.940275 311.109856,286.307079 312.389268,286.678124 C314.30203,287.231511 316.176665,287.791259 318.000462,288.357367 C318.451645,288.497304 318.902828,288.637241 319.347657,288.770817 C320.682143,289.184267 321.997564,289.604078 323.274858,290.023889 C324.291609,290.354649 325.282941,290.69177 326.261564,291.02889 C327.240186,291.366011 328.199745,291.703132 329.14024,292.040253 C329.743936,292.256519 330.341277,292.485506 330.938618,292.701773 C331.796502,293.019811 332.641676,293.33785 333.467786,293.655888 C333.721974,293.7513 333.969807,293.853072 334.21764,293.948483 C334.376507,294.018452 334.52902,294.075699 334.681533,294.139306 C334.980203,294.260161 335.285228,294.374655 335.577544,294.49551 C335.876215,294.610003 336.168531,294.730858 336.460847,294.858073 C336.746808,294.972567 337.039124,295.093422 337.31873,295.214276 C337.604692,295.32877 337.884298,295.449625 338.163905,295.57684 C338.399028,295.672252 338.627797,295.774024 338.850212,295.875796 C339.301395,296.07298 339.752578,296.270164 340.191052,296.473709 C340.407111,296.575481 340.623171,296.670893 340.839231,296.772665 L341.334897,297.001653 C341.404798,297.039817 341.4747,297.071621 341.544602,297.103425 C341.703469,297.179754 341.868691,297.262444 342.027558,297.338773 C342.396099,297.510514 342.758348,297.694976 343.114211,297.866717 C343.590813,298.108426 344.054706,298.350136 344.499534,298.585484 C344.950717,298.827155 345.389191,299.068903 345.808601,299.304213 C345.878503,299.342377 345.94205,299.38058 346.011951,299.418745 C346.107272,299.469599 346.202592,299.526878 346.297912,299.577764 C346.622002,299.762226 346.933382,299.953049 347.244762,300.137474 C347.854812,300.512759 348.433089,300.881684 348.973238,301.250608 C349.093978,301.333298 349.208362,301.415988 349.329101,301.492317 C349.729447,301.778552 350.110729,302.058426 350.466591,302.34466 C350.466591,302.351021 350.466591,302.351021 350.472946,302.351021 C350.593685,302.440072 350.70807,302.535484 350.822454,302.624534 C350.917775,302.713585 351.01945,302.789914 351.11477,302.878965 C351.445214,303.1652 351.75024,303.438675 352.029846,303.718587 C352.123583,303.804967 352.212674,303.896267 352.296743,303.9921 C352.33374,304.022766 352.367781,304.056839 352.398418,304.093872 C352.525512,304.221087 352.639897,304.348303 352.747926,304.475518 C352.764686,304.493014 352.779593,304.512198 352.792409,304.532765 C352.944922,304.710867 353.084725,304.888968 353.218174,305.06707 C353.281721,305.15612 353.351622,305.245171 353.408815,305.334222 C353.485071,305.442355 353.561327,305.556849 353.624874,305.664982 C353.682066,305.754033 353.732904,305.849444 353.783741,305.938533 C353.918604,306.167764 354.033416,306.408235 354.126895,306.657262 C354.198319,306.826104 354.255706,307.000557 354.298472,307.178845 C354.34662,307.347828 354.382737,307.520015 354.406552,307.694112 L354.406552,307.694112 Z" id="Path" fill="#484567"></path>
                <path d="M353.877404,312.292948 C353.871065,312.5601 353.858387,312.833613 353.852048,313.113487 C353.788657,315.816814 353.693572,319.156218 353.560452,322.928154 C353.554113,323.157142 353.547774,323.379768 353.535096,323.608756 C353.357603,328.213953 353.078685,333.576081 352.596919,342.067708 C351.703115,357.753365 350.143712,344.224009 348.57797,349.726074 C344.229391,347.04183 339.462436,344.23037 334.365851,341.34258 C333.44669,340.820997 332.519078,340.297294 331.583014,339.771471 C321.389843,334.065861 310.004934,328.086699 298.119242,322.164862 C297.650153,321.929513 297.174725,321.694165 296.705637,321.465177 C269.479476,307.961264 239.762074,294.826276 215.686415,286.061136 C211.039901,284.369171 206.602576,282.842587 202.43149,281.500433 C193.645586,278.682612 186.051421,276.710774 180.206829,275.858431 C174.121355,274.967923 169.918574,275.285961 168.219712,277.124224 C168.156296,275.826627 168.090793,274.584156 168.023202,273.396813 C167.99782,273.002445 167.972464,272.614438 167.947133,272.232792 C167.986252,272.128081 168.037091,272.028153 168.086307,271.927367 C168.09335,271.912655 168.098351,271.897471 168.105609,271.882956 C168.117753,271.849979 168.132594,271.818066 168.149983,271.787545 C168.168676,271.748072 168.189849,271.709831 168.213373,271.673051 C168.233988,271.627967 168.259498,271.585303 168.289441,271.545835 C168.346493,271.456785 168.409883,271.361373 168.479612,271.272322 C168.530889,271.205611 168.585917,271.141889 168.644427,271.081467 C168.663877,271.050897 168.68733,271.023085 168.714157,270.998777 C168.739513,270.973334 168.764869,270.941531 168.796564,270.909759 C168.810118,270.889738 168.827325,270.872473 168.847276,270.858872 C168.897411,270.801071 168.952567,270.747855 169.012091,270.699853 C169.23826,270.491037 169.479831,270.299669 169.734742,270.127384 C169.823456,270.070137 169.918574,270.01289 170.00732,269.949282 C170.64616,269.565814 171.318823,269.242169 172.016795,268.982445 C172.257678,268.893395 172.498561,268.810705 172.758462,268.721654 C172.853547,268.696211 172.942294,268.664407 173.037379,268.632603 C173.176838,268.588078 173.316297,268.543552 173.462095,268.511749 C174.184745,268.295482 174.964446,268.11102 175.807538,267.939279 C176.0611,267.888393 176.327339,267.837507 176.593579,267.792982 C176.809106,267.754817 177.030972,267.716652 177.252838,267.678488 C179.135532,267.379532 181.271787,267.156905 183.629909,267.010607 C183.851775,266.997886 184.073641,266.985164 184.295508,266.972442 C184.555408,266.959721 184.815309,266.946999 185.081548,266.934278 C185.303414,266.921556 185.53162,266.915196 185.759825,266.908835 C185.981691,266.896113 186.209897,266.889752 186.444441,266.883392 C187.084684,266.864309 187.743943,266.845227 188.415881,266.832506 C190.33027,266.800702 192.346084,266.813423 194.463322,266.857949 C195.445872,266.877031 196.44744,266.908835 197.474364,266.95336 C197.537754,266.95336 197.607484,266.959721 197.670874,266.959721 C198.564678,266.985164 199.47116,267.029689 200.390321,267.074215 C201.036902,267.106019 201.689823,267.137822 202.342712,267.175987 C202.957599,267.214152 203.578824,267.252316 204.206389,267.296842 C204.694494,267.322285 205.1826,267.360449 205.677045,267.392253 C206.095421,267.424057 206.513798,267.455861 206.932174,267.481304 C207.432958,267.519469 207.933742,267.557633 208.440865,267.595798 C209.138159,267.653045 209.835453,267.710292 210.545425,267.767539 C211.249058,267.831146 211.965369,267.894754 212.68168,267.958362 C213.397991,268.021969 214.120641,268.091938 214.843291,268.161906 C214.91936,268.168267 214.989089,268.174628 215.058819,268.180989 C215.718078,268.250989 216.377338,268.314565 217.042937,268.384533 C220.732256,268.759819 224.529339,269.198712 228.434185,269.701212 C230.76695,270.000169 233.129298,270.320327 235.521227,270.661689 C239.153495,271.176911 242.842814,271.736659 246.557489,272.334571 C250.278542,272.938844 254.020686,273.577041 257.783923,274.249162 C258.734778,274.420903 259.685633,274.592644 260.642828,274.770745 C261.809211,274.986986 262.975593,275.207493 264.141976,275.432265 C264.877304,275.572202 265.612632,275.712139 266.34796,275.858437 C267.222747,276.030178 268.103874,276.201918 268.978661,276.373659 C274.740844,277.518598 280.471295,278.739865 286.062363,280.01838 C286.981523,280.228253 287.900684,280.444551 288.813505,280.654457 C290.639147,281.080628 292.447886,281.513161 294.23972,281.952054 C294.734165,282.072908 295.22227,282.193763 295.710376,282.314618 C296.93381,282.619934 298.144566,282.925251 299.342644,283.230568 C299.412373,283.249651 299.482103,283.268733 299.551832,283.287815 C300.426619,283.510442 301.295067,283.733069 302.157176,283.962057 C304.192007,284.496361 306.193029,285.034906 308.160243,285.577692 C309.466085,285.946585 310.759248,286.309181 312.033394,286.678105 C313.941444,287.237853 315.81146,287.797601 317.630763,288.357348 C318.080835,288.497285 318.530906,288.637222 318.974639,288.770798 C320.305837,289.190609 321.611678,289.608299 322.892163,290.02387 C323.906409,290.35463 324.895299,290.691751 325.87151,291.028871 C326.847722,291.365992 327.804916,291.703113 328.743094,292.040234 C329.351641,292.2565 329.947511,292.479127 330.537041,292.695393 C331.39915,293.013431 332.235903,293.33147 333.059977,293.655869 C333.313539,293.75128 333.560761,293.853053 333.807984,293.948464 C334.270733,294.126566 334.720805,294.311028 335.164537,294.49549 C335.462472,294.609984 335.754068,294.730839 336.045663,294.858054 C336.33092,294.972548 336.622516,295.093403 336.901433,295.214257 C337.18669,295.328751 337.465608,295.449606 337.744525,295.576821 C337.979069,295.672233 338.207275,295.774005 338.429141,295.875777 C338.879213,296.072961 339.329284,296.270145 339.766678,296.47369 C339.982205,296.575462 340.197732,296.670873 340.413259,296.772646 L340.907704,297.001633 C340.977434,297.039798 341.047163,297.071602 341.116892,297.103406 C341.65571,297.357837 342.175511,297.612267 342.682634,297.866698 C343.158062,298.108407 343.620812,298.350117 344.064544,298.585465 C344.590684,298.865301 345.091468,299.138852 345.573235,299.418726 C345.66832,299.46958 345.763406,299.526859 345.858491,299.577745 C346.181782,299.762207 346.492395,299.95303 346.803008,300.137454 C347.411555,300.51274 347.988408,300.881664 348.527226,301.250589 C349.059705,301.619514 349.55415,301.982078 350.016899,302.344641 C350.016899,302.351002 350.016899,302.351002 350.023238,302.351002 C350.245105,302.529104 350.460632,302.707205 350.663481,302.878946 C350.993111,303.165181 351.297385,303.438656 351.576302,303.718568 C351.669808,303.804948 351.75868,303.896248 351.842542,303.992081 C351.879448,304.022747 351.913405,304.05682 351.943966,304.093853 C352.077086,304.240151 352.210206,304.386448 352.337024,304.532746 C352.489161,304.710847 352.62862,304.888949 352.76174,305.067051 C352.82513,305.156101 352.89486,305.245152 352.951911,305.334203 C353.027979,305.442336 353.104048,305.55683 353.167438,305.664963 C353.22449,305.754014 353.275202,305.849425 353.325914,305.938514 C353.460444,306.167745 353.574974,306.408216 353.668222,306.657243 C353.737572,306.826795 353.794769,307.001099 353.839376,307.178826 C353.887387,307.347816 353.923396,307.52001 353.947133,307.694112 C353.940794,308.807246 353.928116,310.365635 353.877404,312.292948 Z" id="Path" fill="#3A3858"></path>
            </g>
        </g>
    </g>
</svg>