<?xml version="1.0" encoding="UTF-8"?>
<svg width="29px" height="29px" viewBox="0 0 29 29" version="1.1" xmlns="http://www.w3.org/2000/svg" xmlns:xlink="http://www.w3.org/1999/xlink">
    <title>layers 2</title>
    <g id="Page-1" stroke="none" stroke-width="1" fill="none" fill-rule="evenodd">
        <g id="layers-2" fill="#FFFFFF" fill-rule="nonzero">
            <g id="layers">
                <path d="M28.3748612,13.4867281 L23.717381,11.1582563 L28.3748612,8.82956326 C29.207937,8.41316415 29.2088221,7.22016531 28.3748612,6.80310248 L15.0067048,0.119476888 C14.6876357,-0.0398256292 14.3123643,-0.0398256292 13.9932952,0.119476888 L0.625138801,6.80310248 C-0.207937005,7.21972283 -0.208822079,8.41272167 0.625138801,8.82956326 L5.28261898,11.1582563 L0.625138801,13.4867281 C-0.207937005,13.9033484 -0.208822079,15.096126 0.625138801,15.5131889 L5.28261898,17.8418819 L0.625138801,20.1703537 C-0.207937005,20.586974 -0.208822079,21.7797516 0.625138801,22.1968144 L13.9932952,28.88044 C14.3117005,29.0395213 14.6869719,29.040185 15.0067048,28.88044 L28.3748612,22.1968144 C29.207937,21.7801941 29.2088221,20.5874165 28.3748612,20.1703537 L23.717381,17.8418819 L28.3748612,15.5131889 C29.207937,15.0967897 29.2088221,13.9037909 28.3748612,13.4867281 Z M14.5,2.39927291 L25.3348535,7.81644349 L14.5,13.2333928 L3.66514644,7.81644349 L14.5,2.39927291 Z M25.3348535,21.1836947 L14.5,26.600644 L3.66514644,21.1836947 L7.81592183,19.1083369 L13.9932952,22.1968144 C14.3119218,22.3558957 14.6869719,22.3565594 15.0067048,22.1968144 L21.1840782,19.1083369 L25.3348535,21.1836947 Z M14.5,19.9170184 L3.66514644,14.5000691 L7.81592183,12.4247113 L13.9932952,15.5131889 C14.3119218,15.6722701 14.6869719,15.6729338 15.0067048,15.5131889 L21.1840782,12.4247113 L25.3348535,14.5000691 L14.5,19.9170184 Z" id="Shape"></path>
            </g>
        </g>
    </g>
</svg>