<?xml version="1.0" encoding="UTF-8"?>
<svg width="60px" height="61px" viewBox="0 0 60 61" version="1.1" xmlns="http://www.w3.org/2000/svg" xmlns:xlink="http://www.w3.org/1999/xlink">
    <title>A295BB9D-4BE9-4D7F-8E4C-8E56BE79DD4F</title>
    <g id="Page-1" stroke="none" stroke-width="1" fill="none" fill-rule="evenodd">
        <g id="Landing-Copy" transform="translate(-535.000000, -2177.000000)" fill-rule="nonzero">
            <g id="web-development" transform="translate(535.000000, 2177.000000)">
                <g id="Group" transform="translate(0.000000, 0.002968)" fill="#E4E8F4">
                    <path d="M6.89303005,7.37886017 L6.90585492,1.65507954 C6.90585492,1.43894716 6.98272572,1.27374257 7.11081744,1.20977233 C7.12364218,1.19735096 7.13646705,1.19735096 7.14921364,1.19735096 L8.37922376,0.471941261 C8.50739377,0.39554965 8.68670669,0.408592111 8.87892263,0.522869045 L13.901327,3.39780183 C14.2856807,3.6139342 14.5932419,4.14805439 14.5932419,4.59336147 L14.580417,10.3171421 C14.5675922,10.5332745 14.4907215,10.6860577 14.3753762,10.7624493 L13.1197946,11.4872379 L13.1069698,11.5002804 C12.9788779,11.5636295 12.7994868,11.5636295 12.6072709,11.4493526 L7.5848667,8.57441982 C7.20051298,8.34524498 6.89303005,7.81112479 6.89303005,7.37886017 Z" id="Path"></path>
                    <path d="M3.03651163,23.9651554 L3.0493365,18.2289521 C3.0493365,18.0121986 3.12620729,17.8600365 3.25429902,17.7960664 C3.26712389,17.783645 3.27994863,17.783645 3.2927735,17.783645 L4.52270534,17.0582353 C4.66370022,16.9818437 4.83018827,16.9948862 5.02240421,17.1091631 L10.0448085,19.9840972 C10.4292404,20.2002295 10.7495482,20.7343497 10.7367235,21.1796568 L10.7238986,26.9034375 C10.7238986,27.1195698 10.6470278,27.272353 10.5188578,27.3487447 L9.28892609,28.0480693 C9.16075608,28.1499247 8.95579342,28.1623462 8.75075274,28.0356479 L3.74117328,25.1607152 C3.34399456,24.9315402 3.03651163,24.3974201 3.03651163,23.9651554 Z" id="Path"></path>
                    <path d="M12.9917029,21.4212529 L13.0044495,15.697471 C13.0044495,15.4682961 13.094145,15.316134 13.222315,15.2521638 C13.222315,15.2521638 13.222315,15.2521638 13.2350616,15.2397424 L14.4778965,14.5143327 C14.6059884,14.4509836 14.7853794,14.4509836 14.9775954,14.5652605 L19.9999997,17.4401933 C20.3843534,17.668747 20.6918364,18.2028672 20.6918364,18.6357529 L20.6790898,24.3595348 C20.6790898,24.5887097 20.6021408,24.7408718 20.474049,24.804842 L19.2440388,25.5165882 C19.2312923,25.5296306 19.2184674,25.5426731 19.2056425,25.5426731 C19.0775507,25.6184436 18.8981596,25.6060222 18.7059436,25.4917453 L13.6835393,22.6168125 C13.299186,22.4006802 12.9917029,21.8665601 12.9917029,21.4212529 L12.9917029,21.4212529 Z" id="Path"></path>
                    <path d="M60,31.9403146 L59.9872534,37.6640952 C59.9744285,37.8802276 59.8975579,38.0330108 59.7822126,38.1094024 L58.5009814,38.8472335 C58.5138063,38.834191 58.526631,38.834191 58.526631,38.8211485 C58.5138062,38.834191 58.5009814,38.834191 58.47541,38.8472335 L58.4497604,45.8044567 C58.4497604,46.0081677 58.3728896,46.1479083 58.2575444,46.2242999 L57.4631874,46.6820285 C57.5272333,46.6441432 57.5657078,46.5932155 57.6041041,46.5168239 C57.5016618,46.6820285 57.3350956,46.7459987 57.1044834,46.6441433 C57.2582248,46.7459987 57.3350956,46.8602757 57.3479204,46.9875949 L57.3350955,48.8060877 C57.3350955,48.9464496 57.2454,49.0861902 57.0788336,49.1880458 L44.1640014,56.6415063 L34.8238542,60.8517394 C34.465072,61.0424079 33.8757557,61.0424079 33.5169735,60.8517394 L0.281833321,41.7979343 C0.0896955359,41.6960789 0,41.5563381 0,41.4159763 L0.0128248679,40.8060856 C0.0128248679,40.8060856 0.0128248679,40.7930431 0.0128248679,40.7800007 L0.0255714526,40.7800007 C0.0255714526,40.6402599 0.115266989,40.5129406 0.281833321,40.4241275 L22.5368127,27.5772981 C22.8699454,27.3866297 23.4208653,27.3866297 23.7796476,27.5648768 C23.4208653,27.3487444 23.1262071,26.8525095 23.139032,26.4326663 L23.2030779,0.891785786 C23.2030779,0.662610952 23.3055983,0.510448822 23.4465149,0.459521039 L24.176826,0.0396777861 C24.292093,-0.0236713645 24.4586594,-0.0112499973 24.6380506,0.0775631086 L45.4708822,12.0213593 L45.4837071,9.12158361 C45.4837071,8.89240877 45.5605778,8.73962555 45.6886696,8.6762764 C45.7014944,8.66323394 45.7143192,8.66323394 45.7271441,8.66323394 L46.9570759,7.93844533 C47.085246,7.87509504 47.2646371,7.87509504 47.4567749,7.98937197 L52.4791792,10.8643048 C52.8636111,11.0928585 53.1710942,11.6269787 53.1710942,12.0598644 L53.1582693,16.4222597 L57.8603658,19.1189466 C58.231973,19.335079 58.526631,19.8437352 58.526631,20.2635784 L58.5009814,30.2864052 L59.2953385,30.7447549 C59.6796922,30.9608873 60,31.4950075 60,31.9403146 Z" id="Path"></path>
                </g>
                <g id="Group" transform="translate(0.005528, 0.000000)">
                    <g>
                        <g transform="translate(0.000000, 27.430487)" id="Path">
                            <path d="M57.3451981,19.5538891 L57.3339569,21.3831535 C57.3339569,21.5173774 57.2435234,21.663649 57.0739707,21.7644565 L44.1583125,29.2141323 L34.8207679,33.4178976 C34.4591044,33.620051 33.8714572,33.620051 33.5097938,33.4178976 L0.271231517,14.3664994 C0.0904335251,14.2656919 0,14.1309246 0,13.9851964 L0.0113127589,13.3380124 C0.0113127589,13.4727845 0.101746284,13.6185079 0.282544404,13.7198636 L33.5097936,32.7712619 C33.8714571,32.972867 34.4704164,32.972867 34.8207676,32.7712619 L57.0739705,19.9357403 C57.2548379,19.8343895 57.3451981,19.6886613 57.3451981,19.5538891 Z" fill="#CAD0DD"></path>
                            <path d="M57.0718056,19.2048915 C57.432582,19.4116787 57.434405,19.7508945 57.0761946,19.9575555 L34.8239008,32.7955128 C34.4653018,33.002397 33.8754015,33.0024552 33.5146251,32.7956729 L0.278653561,13.7458564 C-0.0821339657,13.5390644 -0.0839474203,13.1998582 0.274653173,12.9929693 L22.5269444,0.155014273 C22.8851573,-0.0516491865 23.4750429,-0.051714692 23.8358316,0.155077362 L57.0718056,19.2048915 Z" fill="#E4E8F4"></path>
                        </g>
                        <g transform="translate(23.127249, 0.000000)">
                            <path d="M35.3893289,20.2604693 L35.3215196,45.8082447 C35.3215196,46.0103981 35.2424007,46.1561263 35.1294112,46.2235125 L34.3269603,46.6837058 C34.4512644,46.6163198 34.5190688,46.4700432 34.5190688,46.2684381 L34.5981926,20.7206627 C34.5981926,20.3053925 34.304336,19.8008266 33.9426702,19.5871664 L0.715489543,0.547272489 C0.534622365,0.434963772 0.365138285,0.434963772 0.240765843,0.502349079 L1.04321669,0.0421571152 C1.15620616,-0.0246803617 1.3257611,-0.013723392 1.50662827,0.0870805255 L34.7338066,19.1275215 C35.0954724,19.3406331 35.3893289,19.8457499 35.3893289,20.2604693 L35.3893289,20.2604693 Z" id="Path" fill="#E4E8F4"></path>
                            <path d="M33.9605145,19.5639636 C34.321286,19.770746 34.6161934,20.2774977 34.6150191,20.6892526 L34.54205,46.2396894 C34.540877,46.6510124 34.2440439,46.8190361 33.8832773,46.6122537 L0.654505629,27.5665664 C0.286500671,27.3556379 -0.00116596687,26.852598 3.55334123e-06,26.4412773 L0.0729727319,0.890838097 C0.0741481334,0.479082801 0.363742896,0.30734814 0.731747854,0.518277597 L33.9605145,19.5639636 Z M34.1379458,46.008069 L34.2109128,20.4576322 C34.2113561,20.3013263 34.1034986,20.1075379 33.9591998,20.0248337 L0.730433055,0.979148019 C0.586136699,0.89644206 0.470288032,0.96200555 0.469840882,1.1183117 L0.396876269,26.6687509 C0.396406091,26.8331039 0.511526507,27.0229912 0.655822863,27.1056954 L33.8845921,46.1513804 C34.0288859,46.23409 34.1374766,46.1724246 34.1379458,46.008069" id="Shape" fill="#E4E8F4"></path>
                            <path d="M33.9606857,20.019533 L0.733507369,0.979640519 C0.586579108,0.900750413 0.473518784,0.95717875 0.473518784,1.11386317 L0.394468101,26.6731426 C0.394468101,26.8303728 0.507457573,27.0210242 0.654385834,27.1108707 L33.8815666,46.1507646 C34.0284948,46.2296551 34.1415527,46.173225 34.1415527,46.0050364 L34.209362,20.4572635 C34.209362,20.300031 34.1076139,20.1093795 33.9606857,20.019533 L33.9606857,20.019533 Z M32.9774361,32.1932535 L32.9435706,43.5364386 L1.60369653,25.5736111 L1.67150338,2.89820167 L33.011375,20.8610257 L32.9774361,32.1932535 Z" id="Shape" fill="#5B5E71"></path>
                            <polygon id="Path" fill="#748BFD" points="1.67150338 2.89820269 1.60369653 25.5736111 32.9435706 43.5364388 33.011375 20.861027"></polygon>
                        </g>
                        <g transform="translate(11.497129, 28.600266)" fill="#5B5E71" id="Path">
                            <path d="M13.7768066,0.9177918 C13.9226987,1.00178663 13.9163963,1.13326187 13.7779038,1.21280487 L13.0861991,1.61009553 C12.9409545,1.69352027 12.7190666,1.69310778 12.5731744,1.60911295 L11.0864162,0.753145088 C10.9405241,0.66915026 10.9400719,0.541554343 11.085319,0.458129604 L11.7770236,0.0608389375 C11.9155137,-0.0187040605 12.1441562,-0.0221733075 12.2900508,0.0618215198 L13.7768066,0.9177918 Z"></path>
                            <path d="M12.3727548,1.72422696 C12.5186493,1.80822178 12.5119705,1.93991287 12.3738544,2.01924244 L10.8864828,2.87353387 C10.7479927,2.95307687 10.5193502,2.95654612 10.3734556,2.87255129 L8.88669985,2.01658343 C8.74080772,1.9325886 8.7471101,1.80111094 8.8856026,1.72156794 L10.3729718,0.86727651 C10.5110879,0.787946946 10.7401068,0.784261721 10.885999,0.868256676 L12.3727548,1.72422696 Z"></path>
                            <path d="M22.8015848,6.11362172 C22.9405293,6.19361601 22.9411746,6.32909179 22.8026845,6.40863721 L22.1109798,6.80592546 C21.9657328,6.8893502 21.7368972,6.88493958 21.5979527,6.80494529 L20.1042468,5.94497447 C19.9653048,5.86498018 19.9648526,5.73738427 20.1100996,5.65395953 L20.8018019,5.25667128 C20.9402944,5.17712586 21.1689369,5.17365649 21.3078814,5.2536509 L22.8015848,6.11362172 Z"></path>
                            <g transform="translate(15.317069, 3.895872)">
                                <path d="M5.22657175,0.917784697 C5.37248835,1.00179415 5.36616151,1.13325477 5.22767143,1.21280018 L4.53596675,1.61009085 C4.39071972,1.69351317 4.16885622,1.6931153 4.02293962,1.60910827 L2.53618383,0.753137985 C2.39028927,0.669143158 2.38986159,0.541561741 2.53510862,0.458137002 L3.22681331,0.060846335 C3.36530338,-0.0186966629 3.59392384,-0.0221805374 3.73981609,0.06181429 L5.22657175,0.917784697 Z"></path>
                                <path d="M3.5932567,1.5922254 C3.7391733,1.67623486 3.73247246,1.80791374 3.59435638,1.88724088 L2.10698471,2.74153232 C1.96849464,2.82107773 1.73987418,2.82455919 1.59395758,2.74055215 L0.107201791,1.88458187 C-0.038690338,1.80058704 -0.0323879618,1.6691118 0.106104545,1.58956639 L1.59347378,0.735274956 C1.73158986,0.655945391 1.96060879,0.652262711 2.10650092,0.736257538 L3.5932567,1.5922254 Z"></path>
                            </g>
                            <path d="M25.0595065,7.41357219 C25.198451,7.49356647 25.1990962,7.62904467 25.0606037,7.70858767 L24.3689015,8.10587834 C24.2236544,8.18930307 23.9948164,8.18489004 23.8558743,8.10489575 L22.3621685,7.24492493 C22.223224,7.16493065 22.2158242,7.03333419 22.3610688,6.94990945 L23.0527735,6.5526212 C23.191266,6.47307578 23.4268561,6.4736095 23.5658006,6.55360378 L25.0595065,7.41357219 Z"></path>
                            <path d="M27.6294198,10.5079367 C27.7683668,10.5879309 27.7686356,10.7236226 27.6305195,10.8029521 L26.1431478,11.6572436 C26.0046578,11.736789 25.7690652,11.7362553 25.6301207,11.6562634 L24.1364149,10.7962927 C23.9974728,10.7162984 23.9968276,10.5808202 24.1353176,10.5012772 L25.6226869,9.64698579 C25.760803,9.56765623 25.9967719,9.56797167 26.135714,9.64796596 L27.6294198,10.5079367 Z"></path>
                            <path d="M31.8263679,11.3094542 C31.96531,11.3894461 31.9659308,11.5249121 31.8274383,11.6044528 L31.1357384,12.0017434 C30.9904914,12.0851706 30.7616779,12.0807698 30.6227308,12.0007779 L29.1290054,11.1407901 C28.9900584,11.0607983 28.9826831,10.9292139 29.1279301,10.8457916 L29.8196348,10.4485009 C29.9581223,10.3689555 30.1936905,10.3694746 30.3326376,10.4494689 L31.8263679,11.3094542 Z"></path>
                            <path d="M29.8109204,11.7638882 C29.949887,11.8438995 29.9431861,11.975576 29.80507,12.0549031 L28.3176984,12.9091945 C28.1792059,12.9887399 27.9505878,12.9922238 27.8116213,12.9122175 L26.3179155,12.0522442 C26.1720209,11.9682494 26.1783257,11.8367717 26.3168158,11.7572311 L27.8041875,10.9029397 C27.9423035,10.8236077 28.1713225,10.8199249 28.3172146,10.9039199 L29.8109204,11.7638882 Z"></path>
                            <g transform="translate(2.457063, 2.034305)">
                                <path d="M8.86170278,1.54176568 C9.00066934,1.62177459 9.00129253,1.75723816 8.86280002,1.83678116 L7.37543078,2.69107259 C7.2373147,2.77040216 7.00137021,2.77009892 6.86240365,2.69009243 L4.29184762,1.21014585 C4.14595421,1.12615103 4.15263301,0.994459934 4.29074909,0.915132786 L5.77811948,0.0608389375 C5.91660955,-0.0187040605 6.14525205,-0.0221733075 6.29114661,0.0618215198 L8.86170278,1.54176568 Z"></path>
                                <path d="M11.0015276,2.77372576 C11.1404942,2.85373468 11.1411173,2.98919825 11.0026248,3.06874125 L9.5152556,3.92303268 C9.37713952,4.00236224 9.14119503,4.00205901 9.00222847,3.92205251 L7.50852265,3.06208169 C7.36957812,2.98208741 7.36933123,2.84640786 7.50744744,2.76708071 L8.99481911,1.91278686 C9.13330918,1.83324386 9.36887724,1.83376295 9.5078219,1.91375723 L11.0015276,2.77372576 Z"></path>
                                <path d="M13.1344024,4.00168544 C13.2733714,4.08169435 13.2739921,4.21715792 13.1355021,4.29670092 L11.6481304,5.15099235 C11.5100167,5.23032192 11.2740722,5.23001868 11.1351032,5.15001219 L9.64834746,4.29404191 C9.50245533,4.21004708 9.50913413,4.07835599 9.64725022,3.99902642 L11.1346195,3.14473499 C11.273112,3.06518958 11.5017545,3.06172275 11.6476466,3.14571758 L13.1344024,4.00168544 Z"></path>
                                <path d="M9.39908688,4.30937948 C9.53803141,4.38937376 9.53132826,4.52105277 9.39321205,4.60038234 L7.90584281,5.45467377 C7.76735031,5.53421677 7.54548681,5.5338189 7.40654215,5.45382461 L5.91281442,4.59384171 C5.77386989,4.51384742 5.76649218,4.38226546 5.90498469,4.30272005 L7.39235393,3.44842862 C7.53047001,3.36909905 7.7664145,3.36940229 7.90535671,3.44939657 L9.39908688,4.30937948 Z"></path>
                                <path d="M18.6347856,4.70976099 C18.7737302,4.78975527 18.773977,4.9254324 18.6358608,5.00476197 L17.1484916,5.8590534 C17.0099991,5.93859882 16.774431,5.93807973 16.6354864,5.85808545 L15.1417806,4.99811462 C15.002814,4.91810825 15.0021932,4.78264456 15.1406833,4.70309914 L16.6280525,3.84880771 C16.7661686,3.76948056 17.0021131,3.76978138 17.1410797,3.84979029 L18.6347856,4.70976099 Z"></path>
                                <path d="M6.08715193,4.86126081 C6.22612093,4.94126718 6.21979165,5.07273034 6.08130157,5.15227575 L4.60106328,6.00247201 C4.4558151,6.08589433 4.23395147,6.08549888 4.09498491,6.00548997 L0.107144006,3.70957395 C-0.0317993659,3.62957966 -0.0392002697,3.4979832 0.106045479,3.41455846 L1.58628505,2.56436221 C1.72477628,2.48481679 1.96036894,2.4853505 2.09931218,2.56534479 L6.08715193,4.86126081 Z"></path>
                                <path d="M15.315925,5.25765144 C15.4548695,5.33764573 15.4554927,5.4731093 15.3170002,5.55265484 L13.829631,6.40694628 C13.6915149,6.48627584 13.4555704,6.48597261 13.3166257,6.40597832 L11.8229223,5.5460075 C11.6839533,5.46600113 11.6837066,5.33032158 11.8218227,5.25099202 L13.3091943,4.39670058 C13.4476844,4.31715759 13.6832525,4.31767425 13.8222215,4.39768317 L15.315925,5.25765144 Z"></path>
                                <path d="M11.5319617,5.53733915 C11.6709062,5.61733344 11.6711531,5.75301299 11.5330369,5.83234255 L10.0456678,6.68663386 C9.90717525,6.76617685 9.67836415,6.76177845 9.53941962,6.68178416 L8.04568933,5.82180126 C7.90674723,5.74180697 7.89936952,5.61022259 8.03785959,5.5306796 L9.52523127,4.67638816 C9.66334491,4.5970586 9.8992894,4.59736183 10.0382341,4.67735612 L11.5319617,5.53733915 Z"></path>
                                <path d="M20.8162862,5.96571236 C20.9552283,6.04570665 20.9485495,6.17739774 20.8104334,6.25672731 L19.3230642,7.11101874 C19.1845717,7.19056415 18.9559292,7.19403353 18.8169871,7.11403911 L17.3232813,6.25406829 C17.1843367,6.17407401 17.1836915,6.03859581 17.3221816,5.95905281 L18.8095533,5.10476138 C18.9476693,5.02543181 19.1836359,5.02574967 19.3225804,5.10574396 L20.8162862,5.96571236 Z"></path>
                                <path d="M8.40757986,6.11734562 C8.55347443,6.20134044 8.54679319,6.33303153 8.40867954,6.41235868 L6.92130787,7.26665253 C6.7828178,7.34619553 6.5541753,7.34966478 6.40828074,7.26566995 L4.92152495,6.40969967 C4.78258043,6.32970538 4.7819352,6.1942296 4.92042771,6.11468419 L6.40779695,5.26039275 C6.54591303,5.18106561 6.78187955,5.18138105 6.92082408,5.26137534 L8.40757986,6.11734562 Z"></path>
                                <path d="M17.4904755,6.5096047 C17.6363701,6.59359953 17.6300653,6.72507477 17.4915752,6.80462018 L16.0042035,7.65891161 C15.8660874,7.73824118 15.637071,7.74192386 15.4911764,7.65792903 L14.0044206,6.80196117 C13.8654761,6.72196688 13.8652073,6.58627283 14.0033234,6.50694568 L15.4906926,5.65265425 C15.6291827,5.57310884 15.8647752,5.57364255 16.0037197,5.65363442 L17.4904755,6.5096047 Z"></path>
                                <path d="M13.7134622,6.79329295 C13.8524068,6.87328723 13.8526756,7.00897887 13.7145595,7.08830843 L12.2271902,7.94259986 C12.0886977,8.02214528 11.8598622,8.01773237 11.7209176,7.93773808 L10.2272118,7.07776726 C10.0882697,6.99777297 10.0808675,6.86617652 10.2193576,6.78663339 L11.7067293,5.93234196 C11.8448454,5.8530124 12.0808119,5.85332784 12.2197564,5.93332213 L13.7134622,6.79329295 Z"></path>
                                <path d="M5.65905249,7.1446705 C5.79799701,7.22466478 5.80539677,7.35626124 5.66015217,7.43968598 L3.9930057,8.39723518 C3.85451447,8.47677818 3.61892181,8.47624688 3.47997857,8.3962526 L1.9932215,7.54028232 C1.84732809,7.45628749 1.85363303,7.32481225 1.99212297,7.24526683 L3.65926944,6.28772005 C3.80451647,6.20429531 4.02640329,6.20470526 4.17229658,6.28870022 L5.65905249,7.1446705 Z"></path>
                                <path d="M10.5890806,7.37329712 C10.7349727,7.45729195 10.7282939,7.58898304 10.5901778,7.6683126 L9.10280858,8.52260404 C8.96431607,8.60214945 8.73567357,8.60561883 8.58978144,8.52162387 L7.10302566,7.66565359 C6.9571311,7.58165876 6.96343591,7.45018352 7.10192598,7.37063811 L8.58929765,6.51634668 C8.7274113,6.43701711 8.95643022,6.43333443 9.10232235,6.51732926 L10.5890806,7.37329712 Z"></path>
                                <path d="M19.6719981,7.7655707 C19.8178927,7.84956553 19.8115634,7.98102856 19.6730733,8.0605741 L18.1857017,8.91486554 C18.047588,8.99419268 17.8185936,8.99788999 17.6726989,8.91389516 L16.1859186,8.0579128 C16.0400265,7.97391797 16.0467296,7.84224138 16.1848459,7.76291182 L17.6722151,6.90862039 C17.8107052,6.82907739 18.0393256,6.82559351 18.1852179,6.90958834 L19.6719981,7.7655707 Z"></path>
                                <path d="M15.8880103,8.0452462 C16.0339294,8.12925324 16.0272261,8.26093212 15.88911,8.34025927 L14.4017383,9.1945507 C14.2632483,9.27409611 14.0413848,9.27369825 13.8954682,9.18968892 L12.4087124,8.33372106 C12.2628178,8.24972623 12.2623657,8.12213031 12.4008582,8.04258477 L13.8882274,7.18829334 C14.0263435,7.10896619 14.2553624,7.10528109 14.4012546,7.18927592 L15.8880103,8.0452462 Z"></path>
                                <path d="M12.7706031,8.62926542 C12.9095451,8.70925729 12.909792,8.84493684 12.7716758,8.92426398 L11.2843066,9.77855541 C11.1458165,9.85810083 10.910246,9.85758175 10.7713038,9.77758988 L9.27759798,8.91762147 C9.13862898,8.83761014 9.13800822,8.70214899 9.2764983,8.62260357 L10.76387,7.76831214 C10.9019861,7.68898258 11.1379281,7.68928581 11.2768971,7.76929472 L12.7706031,8.62926542 Z"></path>
                                <path d="M8.30602974,8.66861361 C8.44499873,8.74861998 8.44542641,8.87620381 8.30017938,8.95962614 L6.63303291,9.91717533 C6.49454283,9.99672075 6.26592237,10.0002046 6.12695581,9.92019329 L4.16082213,8.78823503 C4.02187875,8.70824074 4.02125684,8.57277717 4.15974692,8.49323163 L5.82689211,7.53568485 C5.97213914,7.45226011 6.20095268,7.45665852 6.33989733,7.5366528 L8.30602974,8.66861361 Z"></path>
                                <path d="M21.8534963,9.0215245 C21.9924408,9.10151637 21.993086,9.23699698 21.854596,9.31653757 L20.3672243,10.170829 C20.2291106,10.250161 19.9931417,10.2498455 19.8541996,10.1698488 L18.3604938,9.30988043 C18.2215492,9.22988372 18.221278,9.09419451 18.3593941,9.01486253 L19.8467658,8.1605711 C19.9852558,8.0810281 20.2208484,8.08155939 20.3597929,8.16155368 L21.8534963,9.0215245 Z"></path>
                                <path d="M18.069533,9.30120979 C18.2084775,9.38120649 18.2087244,9.51688604 18.0706082,9.59621319 L16.5832389,10.4505046 C16.4447464,10.53005 16.2159353,10.5256492 16.0769908,10.4456573 L14.583285,9.5856841 C14.4443184,9.50567773 14.4369407,9.37409336 14.5754308,9.29455265 L16.0628024,8.4402588 C16.2009161,8.36093165 16.4368606,8.36123489 16.5758296,8.44124139 L18.069533,9.30120979 Z"></path>
                                <path d="M14.9521012,9.88521934 C15.0910457,9.96521121 15.0913145,10.1009053 14.9531984,10.1802324 L13.4658292,11.0345238 C13.3273391,11.1140693 13.0917466,11.1135355 12.9528021,11.0335437 L11.4590962,10.1735704 C11.3201517,10.0935786 11.3195065,9.95810278 11.457999,9.87855737 L12.9453682,9.02426594 C13.0834843,8.94493879 13.3194508,8.94525423 13.4583954,9.0252461 L14.9521012,9.88521934 Z"></path>
                                <path d="M31.6272217,10.5750971 C31.7661686,10.6550938 31.7668139,10.7905696 31.6283213,10.870115 L30.9366167,11.2674056 C30.7913696,11.350828 30.5625365,11.3464174 30.4235895,11.2664206 L28.9298837,10.4064522 C28.7909416,10.3264555 28.7835419,10.1948615 28.9287889,10.1114343 L29.6204887,9.71414851 C29.7589812,9.63460309 29.9945738,9.63513197 30.1335158,9.71512868 L31.6272217,10.5750971 Z"></path>
                                <path d="M24.0349969,10.2774784 C24.1739414,10.3574703 24.1676366,10.4889479 24.0291465,10.5684934 L22.5417748,11.4227848 C22.4036587,11.5021119 22.1746423,11.5057946 22.0356977,11.4258028 L20.5419919,10.5658343 C20.3960973,10.4818395 20.4027786,10.3501436 20.5408947,10.2708164 L22.0282639,9.41652502 C22.166754,9.3369796 22.3953965,9.33351023 22.541291,9.41750518 L24.0349969,10.2774784 Z"></path>
                                <path d="M20.2440835,10.5531655 C20.3899781,10.6371603 20.3832968,10.7688514 20.2451807,10.8481785 L18.7578115,11.70247 C18.6193214,11.7820154 18.3974335,11.781603 18.2515413,11.6976082 L16.7647831,10.8416379 C16.625841,10.761646 16.6184388,10.6300472 16.7569289,10.5505064 L18.2443006,9.69621501 C18.3824167,9.61688303 18.6183832,9.61719848 18.7573277,9.69719518 L20.2440835,10.5531655 Z"></path>
                                <path d="M29.5284275,10.9815485 C29.6743245,11.0655433 29.6676189,11.1972247 29.5295027,11.2765519 L28.0421359,12.1308433 C27.9036434,12.2103887 27.6750254,12.2138726 27.5291283,12.1298778 L26.0423725,11.2739075 C25.8964559,11.189898 25.9027852,11.058435 26.0412777,10.9788896 L27.5286445,10.1245981 C27.6667605,10.045271 27.895755,10.0415737 28.0416716,10.1255831 L29.5284275,10.9815485 Z"></path>
                                <path d="M17.1266517,11.1371702 C17.2725683,11.2211796 17.2658651,11.3528561 17.127749,11.4321832 L15.6403797,12.2864747 C15.5018872,12.3660201 15.2732692,12.369504 15.1273526,12.2854945 L13.6405968,11.4295242 C13.4947023,11.3455294 13.5010291,11.2140664 13.6395216,11.1345257 L15.1268909,10.2802342 C15.2650069,10.2009022 15.4940014,10.1972049 15.6398961,10.2811998 L17.1266517,11.1371702 Z"></path>
                                <path d="M33.8781933,11.8710469 C34.0241099,11.9550563 34.0177855,12.0865194 33.879293,12.1660648 L33.1875883,12.5633554 C33.0423413,12.6467778 32.8204778,12.6463799 32.6745612,12.5623704 L31.1878054,11.706405 C31.0419132,11.6224053 31.0414831,11.4948239 31.1867302,11.4114016 L31.8784348,11.0141109 C32.0169274,10.9345655 32.2455454,10.9310865 32.3914376,11.0150813 L33.8781933,11.8710469 Z"></path>
                                <path d="M26.2095693,11.5294438 C26.3485114,11.6094356 26.349137,11.7449016 26.2106445,11.8244472 L24.7232728,12.6787386 C24.5851592,12.7580657 24.3492147,12.7577601 24.21027,12.6777682 L22.7235143,11.8217979 C22.5775977,11.7377885 22.5843009,11.606112 22.722417,11.5267849 L24.2097863,10.6724934 C24.3482763,10.592948 24.5768968,10.5894642 24.7228134,10.6734736 L26.2095693,11.5294438 Z"></path>
                                <path d="M22.4256061,11.809129 C22.5715007,11.8931239 22.5647975,12.0248053 22.4266813,12.1041324 L20.9393096,12.9584239 C20.8008196,13.0379693 20.5789561,13.0375714 20.4330639,12.9535766 L18.9462837,12.0975918 C18.8003891,12.013597 18.7999614,11.8860156 18.9384539,11.8064702 L20.4258232,10.9521787 C20.5639393,10.8728516 20.7929337,10.8691543 20.938826,10.9531491 L22.4256061,11.809129 Z"></path>
                                <path d="M31.7099281,12.2375024 C31.848875,12.3174991 31.8491438,12.4531883 31.7110278,12.5325203 L30.2236561,13.3868117 C30.0851636,13.4663571 29.8495759,13.4658234 29.710629,13.3858267 L28.2169231,12.5258583 C28.077981,12.4458664 28.0773358,12.3103858 28.2158235,12.2308453 L29.7031951,11.3765538 C29.8413112,11.2972218 30.0772802,11.2975373 30.2162223,11.377534 L31.7099281,12.2375024 Z"></path>
                                <path d="M19.3081743,12.3931338 C19.4471164,12.4731305 19.4473877,12.6088245 19.3092716,12.6881517 L17.8219024,13.5424431 C17.6834098,13.6219885 17.4478173,13.6214548 17.3088752,13.5414629 L15.8151694,12.6814897 C15.6762249,12.6014978 15.6825297,12.4700202 15.8210198,12.3904748 L17.3083914,11.5361833 C17.4465051,11.4568562 17.675524,11.4531735 17.8144685,11.5331654 L19.3081743,12.3931338 Z"></path>
                                <path d="M36.1361394,13.1710141 C36.2750815,13.251006 36.2757267,13.3864866 36.1372391,13.4660272 L35.4455344,13.8633179 C35.3002874,13.946745 35.0714494,13.9423296 34.9325073,13.8623377 L33.4388015,13.0023645 C33.2998545,12.9223726 33.2994048,12.7947767 33.4446518,12.7113543 L34.1363565,12.3140637 C34.274849,12.2345183 34.5034915,12.2310489 34.6424336,12.3110408 L36.1361394,13.1710141 Z"></path>
                                <path d="M28.39107,12.7853977 C28.5300121,12.8653896 28.5306573,13.0008653 28.3921648,13.0804107 L26.904798,13.9347022 C26.7666819,14.0140342 26.530713,14.0137139 26.3917709,13.933722 L24.8980651,13.0737488 C24.7591205,12.9937569 24.7588493,12.8580629 24.8969654,12.7787357 L26.384337,11.9244443 C26.5228296,11.8448989 26.7584172,11.8454326 26.8973642,11.9254244 L28.39107,12.7853977 Z"></path>
                                <path d="M24.6071042,13.0650828 C24.7460488,13.1450795 24.74632,13.2807688 24.6082039,13.3601007 L23.1208323,14.2143922 C22.9823422,14.2939328 22.7535066,14.2895223 22.6145621,14.2095304 L21.1208563,13.3495572 C20.9819117,13.2695653 20.974512,13.1379664 21.1130021,13.0584209 L22.6003737,12.2041294 C22.7384874,12.1248023 22.9744563,12.1251177 23.1134009,12.2051144 L24.6071042,13.0650828 Z"></path>
                                <path d="M33.8845031,13.4894677 C34.0303952,13.5734626 34.0236945,13.705144 33.8855783,13.7844711 L32.3982066,14.6387626 C32.2597141,14.718308 32.0310961,14.7217918 31.8852038,14.6377922 L30.3984236,13.7818122 C30.2594815,13.7018155 30.2588559,13.5663544 30.3973484,13.4868088 L31.8847201,12.6325174 C32.0228361,12.5531903 32.2587806,12.5534911 32.3977228,12.6334878 L33.8845031,13.4894677 Z"></path>
                                <path d="M21.4896725,13.6490876 C21.628617,13.7290843 21.6219382,13.8607754 21.4838221,13.9401025 L19.9964505,14.7943939 C19.8579604,14.8739393 19.6293179,14.8774087 19.4903734,14.7974119 L17.9966675,13.9374435 C17.857723,13.8574516 17.8570778,13.721971 17.9955703,13.6424304 L19.4829395,12.788139 C19.6210556,12.708807 19.8570221,12.7091273 19.9959667,12.7891192 L21.4896725,13.6490876 Z"></path>
                                <path d="M38.3940807,14.4709767 C38.5330276,14.5509734 38.5336239,14.68642 38.3951364,14.7659654 L37.7034317,15.1632561 C37.5581847,15.2466784 37.3293955,15.2422969 37.1904485,15.1623002 L35.6967231,14.3023173 C35.5577762,14.2223255 35.5503764,14.0907266 35.6956234,14.0073043 L36.3873281,13.6100136 C36.5258156,13.5304682 36.7614083,13.5310019 36.9003553,13.6109938 L38.3940807,14.4709767 Z"></path>
                                <path d="M30.56564,14.037363 C30.711537,14.1213578 30.7052077,14.2528209 30.5667152,14.3323616 L29.0793484,15.186653 C28.9412323,15.265985 28.7122379,15.2696823 28.5663408,15.1856875 L27.0795605,14.3297027 C26.9406184,14.2497108 26.9403741,14.1140313 27.0784902,14.0347041 L28.565857,13.1804127 C28.7043495,13.1008673 28.9399175,13.1013864 29.0788598,13.1813782 L30.56564,14.037363 Z"></path>
                                <path d="M26.7886024,14.3210368 C26.9275738,14.4010431 26.9278181,14.5367227 26.7897021,14.6160498 L25.3023304,15.4703461 C25.1638429,15.5498867 24.9350292,15.5454907 24.7960602,15.4654795 L23.3023544,14.6055111 C23.1634123,14.5255192 23.1560101,14.3939203 23.2945026,14.3143748 L24.7818719,13.4600834 C24.9199879,13.3807562 25.1559545,13.3810717 25.2948966,13.4610684 L26.7886024,14.3210368 Z"></path>
                                <path d="M36.0243034,14.7214183 C36.16327,14.8014246 36.1635192,14.9371042 36.0254031,15.0164313 L34.5380314,15.8707228 C34.3995389,15.9502682 34.1639709,15.9497491 34.0250043,15.8697426 L32.5312985,15.0097694 C32.3923564,14.9297775 32.3917356,14.7943115 32.5302233,14.7147708 L34.017595,13.8604794 C34.155711,13.7811474 34.3916555,13.781453 34.5305977,13.8614449 L36.0243034,14.7214183 Z"></path>
                                <path d="M19.1857984,14.9324171 C19.324743,15.0124089 19.3321207,15.1439933 19.1868737,15.2274156 L17.5197272,16.1849648 C17.3812371,16.2645102 17.1456666,16.2639911 17.0067244,16.1839993 L6.85644567,10.3401823 C6.71750358,10.2601904 6.71685592,10.1247147 6.85534842,10.0451692 L8.5224949,9.08762005 C8.66773949,9.00419772 8.8965775,9.00860834 9.03552203,9.08860021 L19.1857984,14.9324171 Z"></path>
                                <path d="M32.7471406,15.2933169 C32.8930327,15.3773118 32.8867279,15.5087846 32.7482403,15.58833 L31.2608686,16.4426214 C31.1227525,16.5219486 30.8937336,16.5256362 30.7478415,16.4416413 L29.2541356,15.581668 C29.1151936,15.5016762 29.1218699,15.3699851 29.259986,15.2906579 L30.7473577,14.4363617 C30.8858502,14.3568211 31.1144927,14.3533518 31.2534348,14.4333437 L32.7471406,15.2933169 Z"></path>
                                <path d="M28.9631773,15.5730022 C29.1090694,15.6569971 29.1023687,15.7886736 28.9642525,15.8680056 L27.4768808,16.7222971 C27.3383933,16.8018376 27.1165297,16.8014446 26.9706327,16.717445 L25.4838769,15.8614795 C25.3379603,15.77747 25.337535,15.6498888 25.4760227,15.5703432 L26.9633944,14.7160518 C27.1015104,14.6367246 27.3305049,14.6330225 27.4764215,14.717032 L28.9631773,15.5730022 Z"></path>
                                <path d="M25.8457432,16.1570068 C25.9846902,16.2370035 25.984959,16.3726927 25.8468429,16.4520247 L24.3594736,17.3063162 C24.2209811,17.3858567 23.9853886,17.3853279 23.8464465,17.3053312 L22.3527407,16.4453627 C22.2137962,16.3653709 22.2131509,16.2298903 22.351641,16.1503497 L23.8390127,15.2960534 C23.9771288,15.2167263 24.2130953,15.2170417 24.3520398,15.2970384 L25.8457432,16.1570068 Z"></path>
                                <path d="M34.9286656,16.5492804 C35.0676077,16.6292771 35.068204,16.7647238 34.9297165,16.8442692 L33.4423448,17.6985606 C33.3042288,17.7778878 33.0683086,17.7776014 32.9293665,17.6976047 L31.4356362,16.8376218 C31.2966893,16.75763 31.2964205,16.6219359 31.4345365,16.5426088 L32.9219082,15.6883173 C33.0604007,15.6087719 33.2959884,15.6093056 33.4349353,15.6892975 L34.9286656,16.5492804 Z"></path>
                                <path d="M39.247953,16.5773644 C39.3868951,16.6573612 39.3801944,16.7890377 39.2420781,16.8683649 L37.7547065,17.7226563 C37.616219,17.8022017 37.3875959,17.8056856 37.2486537,17.7256889 L34.6711477,16.2417441 C34.5322056,16.1617522 34.5315603,16.0262716 34.670048,15.946731 L36.1574196,15.0924396 C36.2955357,15.0131076 36.5315047,15.0134279 36.6704468,15.0934198 L39.247953,16.5773644 Z"></path>
                                <path d="M21.8536258,16.4683618 C21.9925679,16.5483537 21.9999701,16.6799525 21.8547231,16.7633749 L20.1875766,17.7209241 C20.0490865,17.8004695 19.813494,17.7999358 19.6745495,17.7199439 L17.715367,16.5919839 C17.5694724,16.507989 17.5757772,16.3765114 17.7142673,16.296966 L19.3814137,15.3394217 C19.5266608,15.2559946 19.7485463,15.256407 19.8944409,15.3404019 L21.8536258,16.4683618 Z"></path>
                                <path d="M31.1446778,16.828956 C31.2836199,16.9089479 31.2838887,17.0446419 31.1457727,17.1239691 L29.6584059,17.9782605 C29.5199133,18.0578059 29.2910753,18.0533954 29.1521332,17.9733987 L27.6584274,17.1134303 C27.5194853,17.0334336 27.5120807,16.9018396 27.6505732,16.8222941 L29.1379449,15.9680026 C29.276061,15.8886755 29.5120251,15.8889909 29.650972,15.9689828 L31.1446778,16.828956 Z"></path>
                                <path d="M28.0202937,17.4089577 C28.1662103,17.4929671 28.1595095,17.6246484 28.0213934,17.7039756 L26.5340218,18.558267 C26.3955292,18.6378124 26.1669112,18.6412914 26.0209946,18.5572868 L24.5342388,17.7013165 C24.3883467,17.6173217 24.3946736,17.4858587 24.5331636,17.4063131 L26.0205353,16.5520217 C26.1586514,16.4726946 26.3876458,16.4689973 26.5335381,16.5529921 L28.0202937,17.4089577 Z"></path>
                                <path d="M37.1101613,17.8052343 C37.2491083,17.885231 37.242779,18.0166892 37.1042865,18.0962348 L35.6169197,18.9505262 C35.4788036,19.0298582 35.2498092,19.0335555 35.1108621,18.9535588 L33.6171563,18.0935904 C33.4712397,18.0095809 33.4779454,17.8779045 33.6160615,17.7985725 L35.1034283,16.944281 C35.2419208,16.8647405 35.4705388,16.8612566 35.6164554,16.945266 L37.1101613,17.8052343 Z"></path>
                                <path d="M24.1393428,17.7843168 C24.2852373,17.8683117 24.2856895,17.9959076 24.1404424,18.0793299 L22.473296,19.0368791 C22.3348059,19.1164245 22.1061634,19.1198939 21.9602688,19.0358989 L20.4318152,18.1559204 C20.2928707,18.0759286 20.29225,17.9404674 20.43074,17.8609219 L22.0978865,16.9033727 C22.2431335,16.8199504 22.4719471,16.8243463 22.6108893,16.9043431 L24.1393428,17.7843168 Z"></path>
                                <path d="M34.9380253,19.0128951 C35.0769674,19.0928918 35.0771922,19.2285567 34.9390762,19.3078838 L33.4517045,20.1621753 C33.313212,20.2417207 33.0844228,20.2373345 32.9454807,20.1573426 L29.8607734,18.3813883 C29.7148812,18.2973935 29.7144315,18.1697976 29.8529192,18.090252 L31.3402908,17.2359606 C31.4784069,17.1566286 31.7074258,17.1529458 31.853318,17.2369408 L34.9380253,19.0128951 Z"></path>
                                <path d="M25.366044,19.5886706 C25.5119361,19.6726655 25.5123858,19.8002614 25.3671437,19.8836885 L24.6547941,20.2928329 C24.516304,20.3723783 24.2876615,20.3758477 24.141767,20.2918527 L22.6133377,19.4118887 C22.4674211,19.3278793 22.473748,19.1964163 22.6122405,19.1168757 L23.3245852,18.7077265 C23.4698322,18.6243042 23.6916957,18.624702 23.8376123,18.7087115 L25.366044,19.5886706 Z"></path>
                                <path d="M32.8002337,20.2407649 C32.9391758,20.3207616 32.9397769,20.4562083 32.8012845,20.5357537 L31.3210438,21.38595 C31.1757968,21.4693723 30.9470076,21.4649908 30.8080655,21.3849941 L26.6465078,18.9890663 C26.5075657,18.9090696 26.500166,18.7774756 26.645413,18.6940484 L28.1256489,17.8438522 C28.2641414,17.7643116 28.4997339,17.7648405 28.638676,17.8448372 L32.8002337,20.2407649 Z"></path>
                                <path d="M28.5023634,20.2962342 C28.6413103,20.3762309 28.6487101,20.507825 28.5034631,20.5912521 L26.836319,21.5488013 C26.6978265,21.6283419 26.462234,21.627813 26.3232919,21.5478163 L24.7878883,20.6638397 C24.6489437,20.5838478 24.6482985,20.4483721 24.7867886,20.3688266 L26.4539351,19.4112774 C26.5991821,19.3278551 26.8280201,19.3322657 26.9669622,19.4122576 L28.5023634,20.2962342 Z"></path>
                                <path d="M29.7498904,22.1125824 C29.895807,22.1965918 29.8962371,22.3241731 29.7509901,22.4075955 L29.0386405,22.8167446 C28.900153,22.8962852 28.67153,22.8997691 28.5256134,22.8157596 L26.9971867,21.9358006 C26.8512701,21.8517912 26.8575945,21.7203281 26.996087,21.6407827 L27.7084317,21.2316384 C27.8536787,21.1482112 28.0755422,21.1486091 28.2214588,21.2326185 L29.7498904,22.1125824 Z"></path>
                            </g>
                            <path d="M9.69547499,5.09972267 C9.83441951,5.17971696 9.83469075,5.31540859 9.69657467,5.39473815 L8.20920299,6.24902958 C8.07071292,6.32857258 7.84187734,6.32416209 7.70293282,6.24416781 L4.61825113,4.46822558 C4.47235772,4.38423076 4.4719057,4.25663484 4.61039692,4.1770893 L6.09776731,3.32279787 C6.2358834,3.24347072 6.46490116,3.23978562 6.61079445,3.32378045 L9.69547499,5.09972267 Z"></path>
                            <path d="M18.2926719,3.5177071 C18.431614,3.59770138 18.4253116,3.72917662 18.2868191,3.80871962 L17.5951144,4.20601029 C17.4498698,4.28943503 17.2279819,4.28902508 17.0890373,4.20903066 L15.5953315,3.34905984 C15.4563894,3.26906556 15.4489872,3.1374691 15.5942343,3.05404436 L16.285939,2.65675369 C16.424429,2.57721069 16.6600216,2.57774199 16.7989661,2.65773628 L18.2926719,3.5177071 Z"></path>
                            <path d="M16.0347503,2.21775435 C16.1736948,2.29774863 16.1743155,2.4332122 16.0358255,2.51275774 L15.3441208,2.910046 C15.1988738,2.99347073 14.9700602,2.98907233 14.831118,2.90907804 L13.3374122,2.04910964 C13.1984432,1.96910072 13.1910655,1.83751889 13.3363125,1.75409415 L14.0280172,1.35680349 C14.1665097,1.27725807 14.4020777,1.27777715 14.5410443,1.35778607 L16.0347503,2.21775435 Z"></path>
                            <path d="M16.7357779,4.23614676 C16.87472,4.31614104 16.8749913,4.45183268 16.7368752,4.53116224 L15.249506,5.38545367 C15.1110135,5.46499667 14.8754209,5.46446538 14.7364788,5.38447109 L13.242773,4.52450027 C13.1038285,4.44450598 13.1031832,4.3090302 13.2416733,4.2294872 L14.729045,3.37519335 C14.8671611,3.29586621 15.1031276,3.29618165 15.2420721,3.37617594 L16.7357779,4.23614676 Z"></path>
                            <path d="M14.5542774,2.98019283 C14.6932219,3.06018712 14.6934688,3.19586667 14.5553526,3.27519382 L13.0679833,4.12948767 C12.9294908,4.20903066 12.6939228,4.20851158 12.5549781,4.12851729 L11.0612503,3.26853439 C10.9223057,3.1885401 10.921685,3.05307653 11.0601751,2.97353341 L12.5475443,2.11924197 C12.6856604,2.03991241 12.9216049,2.04021564 13.0605495,2.12020993 L14.5542774,2.98019283 Z"></path>
                            <path d="M3.77394245,6.6790599 C3.91288698,6.75905418 3.92028788,6.89065064 3.77504098,6.97407296 L2.10789451,7.93162216 C1.96940443,8.01116757 1.7338119,8.01063386 1.59486853,7.93063958 L0.101162705,7.07067117 C-0.0377818205,6.99067689 -0.0314770099,6.85919923 0.107013063,6.77965623 L1.77415954,5.82210703 C1.91940657,5.73868229 2.14129339,5.73909479 2.28023663,5.81908907 L3.77394245,6.6790599 Z"></path>
                            <path d="M5.94849184,7.93101073 C6.08745955,8.01101965 6.09483727,8.14260148 5.94959036,8.22602622 L4.28244517,9.18357541 C4.14395395,9.26311841 3.90838576,9.26259933 3.76941804,9.18259283 L2.27571222,8.32262201 C2.13676769,8.24262772 2.13614694,8.10716415 2.27463701,8.02762103 L3.94178348,7.07007183 C4.08703051,6.98664709 4.3158429,6.9910455 4.45478742,7.07103978 L5.94849184,7.93101073 Z"></path>
                            <path d="M29.5684218,10.0094868 C29.7143139,10.0934816 29.7080091,10.2249593 29.5695215,10.3045023 L28.8778168,10.701793 C28.7325697,10.7852177 28.5106818,10.7848052 28.3647896,10.7008104 L26.8780339,9.84484252 C26.7321393,9.76084769 26.7316871,9.63325177 26.8769342,9.54982704 L27.5686389,9.15253637 C27.7071314,9.07299337 27.9357739,9.06952412 28.081666,9.15351895 L29.5684218,10.0094868 Z"></path>
                            <path d="M27.3105001,8.70953648 C27.4563947,8.79353131 27.4500678,8.92499434 27.3115753,9.00453746 L26.6198706,9.40182813 C26.474626,9.48525287 26.2527625,9.484855 26.1068679,9.40086017 L24.6201121,8.54488989 C24.4811455,8.46488352 24.4737678,8.33329915 24.6190148,8.24987441 L25.3107171,7.85258616 C25.4492096,7.77304075 25.6847776,7.77355983 25.8237442,7.85356633 L27.3105001,8.70953648 Z"></path>
                            <path d="M25.4479217,9.25198286 C25.5938138,9.3359801 25.5871131,9.46765669 25.4489969,9.54698626 L23.9616252,10.4012777 C23.8231352,10.4808207 23.5945147,10.4843046 23.4486224,10.4003097 L21.9618422,9.54432737 C21.8159501,9.46033013 21.8222769,9.32886951 21.960767,9.24932397 L23.4481386,8.39503254 C23.5862547,8.31570539 23.8152492,8.31200567 23.9611414,8.3960005 L25.4479217,9.25198286 Z"></path>
                            <path d="M43.1090654,17.8052345 C43.2480123,17.8852263 43.2416831,18.0166894 43.1031906,18.0962349 L42.4114859,18.4935256 C42.2662388,18.5769479 42.0443753,18.57655 41.9054331,18.4965581 L40.4117273,17.6365897 C40.2658107,17.5525803 40.2653806,17.424999 40.4106276,17.3415718 L41.1023323,16.9442812 C41.2408248,16.8647406 41.4694428,16.8612567 41.6153594,16.9452662 L43.1090654,17.8052345 Z"></path>
                            <path d="M26.1213081,16.9353581 C26.2672027,17.0193529 26.2604995,17.1510343 26.1223833,17.2303615 L24.6350141,18.0846529 C24.4965216,18.1641983 24.2679035,18.1676822 24.1220088,18.0836873 L22.635231,17.2277026 C22.4893365,17.1437077 22.4956633,17.0122447 22.6341558,16.9326992 L24.1215251,16.0784077 C24.2596411,15.9990806 24.4886356,15.9953833 24.6345303,16.0793781 L26.1213081,16.9353581 Z"></path>
                        </g>
                        <path d="M30.6405766,48.2123773 C30.8948909,48.3581443 30.8963009,48.5882362 30.6435506,48.7340567 L24.1100678,52.5033981 C23.8573176,52.6492185 23.456945,52.6492961 23.2026332,52.5035339 L11.9076094,46.0383851 C11.6577611,45.8951799 11.6521283,45.6623903 11.9048773,45.5165747 L18.4383602,41.7472284 C18.6911103,41.6014128 19.0957057,41.6040281 19.3455551,41.7472333 L30.6405766,48.2123773 Z" id="Path" fill="#CAD0DD"></path>
                        <g transform="translate(52.452841, 48.308376)" fill="#5B5E71" id="Path">
                            <polygon points="2.15031349 1.05051548 2.15263982 1.86553402 3.98546063 0.81501841 3.98313417 0"></polygon>
                            <polygon points="0 2.2830094 0.00232645958 3.09802794 1.83514727 2.04751234 1.83282081 1.23249393"></polygon>
                        </g>
                    </g>
                    <g transform="translate(25.960072, 5.779610)" id="Path">
                        <polygon fill="#ED435C" points="1.29302844 2.43636094 1.2920729 2.77051169 0.214819484 2.1530633 0.215772592 1.81891242"></polygon>
                        <polygon fill="#E4E8F4" points="8.35199433 8.30674617 8.35104122 8.6407654 1.18427408 4.53300023 1.18522949 4.19898112"></polygon>
                        <polygon fill="#E4E8F4" points="3.38295904 4.54770576 3.38201093 4.87934263 1.18687908 3.6211628 1.18782719 3.28952478"></polygon>
                        <polygon fill="#E4E8F4" points="3.85197908 2.99212693 3.8510261 3.32627832 0.217417181 1.24360696 0.218370288 0.909456212"></polygon>
                        <polygon fill="#EFAC41" points="3.85457691 2.08267072 3.8536238 2.41668919 0.220014877 0.334018469 0.220967985 0"></polygon>
                        <polygon fill="#ED435C" points="13.6998213 11.3719508 13.6988633 11.7059687 8.80845587 8.90293936 8.80940898 8.5689214"></polygon>
                        <polygon fill="#ED435C" points="3.45898922 6.41317313 3.45803368 6.74719224 1.18167882 5.44245657 1.1826318 5.10843733"></polygon>
                        <polygon fill="#ED435C" points="1.08460544 8.69854798 1.08365003 9.03256709 0.196625745 8.52415227 0.197578853 8.19013304"></polygon>
                        <polygon fill="#3C5DD6" points="5.07666915 16.4573783 5.07571361 16.7913975 3.25890921 15.7500621 3.25986475 15.416043"></polygon>
                        <g transform="translate(0.181030, 6.017894)">
                            <polygon fill="#ED435C" points="1.850279 7.78303512 1.84932589 8.11705435 0.00259526189 7.05856679 0.0035508041 6.72454756"></polygon>
                            <polygon fill="#E4E8F4" points="2.74112288 9.20458425 2.74016978 9.53860094 0 7.96802173 0.000953107878 7.63400504"></polygon>
                            <polygon fill="#EFAC41" points="4.62464419 9.37321433 4.62369108 9.70723356 2.1336006 8.27999055 2.13455358 7.94597386"></polygon>
                            <polygon fill="#E4E8F4" points="2.94220712 4.76259608 2.94125901 5.09423409 0.0129983466 3.41584709 0.0139464577 3.08420921"></polygon>
                            <polygon fill="#E4E8F4" points="5.24328795 7.90339414 5.24233254 8.23741083 0.00779795736 5.23714087 0.00875106524 4.90312163"></polygon>
                            <polygon fill="#E4E8F4" points="5.85932428 7.34554227 5.8583713 7.6795615 0.0103957817 4.32768453 0.0113487615 3.99366542"></polygon>
                            <polygon fill="#E4E8F4" points="5.11001787 5.09165521 5.10906233 5.42567317 1.29590833 3.24009281 1.29686144 2.90607485"></polygon>
                            <polygon fill="#E4E8F4" points="5.11261313 4.182199 5.11166002 4.51621696 0.0181937391 1.59680239 0.0191468469 1.26278328"></polygon>
                            <polygon fill="#3C5DD6" points="6.98620797 7.08048976 6.98525973 7.41212778 3.23836332 5.26452369 3.23930913 4.93288695"></polygon>
                            <polygon fill="#E4E8F4" points="4.63215631 2.99587041 4.63120076 3.32988837 0.995446291 1.24598882 0.996401833 0.911969715"></polygon>
                            <polygon fill="#3C5DD6" points="4.24574979 1.86093184 4.24479438 2.19508323 0.99805129 0.334151388 0.999004398 0"></polygon>
                            <polygon fill="#E4E8F4" points="9.99586269 4.24577125 9.99490971 4.57979048 3.61043965 0.920413563 3.61139519 0.586394458"></polygon>
                        </g>
                        <polygon fill="#E4E8F4" points="10.965145 11.6264111 10.9641919 11.9605626 4.81483559 8.43594449 4.81578857 8.10179437"></polygon>
                        <polygon fill="#E4E8F4" points="13.697221 12.2814071 13.696268 12.6154251 10.9112138 11.01912 10.9121669 10.6851008"></polygon>
                        <polygon fill="#E4E8F4" points="13.7024165 10.4624946 13.7014683 10.7941313 6.9258509 6.91056038 6.92679914 6.57892351"></polygon>
                        <polygon fill="#EFAC41" points="6.65107512 6.4208879 6.65012944 6.75252476 4.17072288 5.33140746 4.17166869 4.99976945"></polygon>
                        <polygon fill="#E4E8F4" points="13.6946257 13.1908633 13.6936728 13.5250136 11.4472464 12.2374349 11.448202 11.9032835"></polygon>
                        <polygon fill="#3C5DD6" points="4.7794011 20.8442355 4.77844799 21.1782547 1.14269351 19.0943539 1.14364662 18.7603348"></polygon>
                        <polygon fill="#E4E8F4" points="6.24612547 20.7739697 6.24516993 21.1079888 1.14528878 18.1848965 1.14624432 17.8508797"></polygon>
                        <polygon fill="#E4E8F4" points="3.72229158 18.4164439 3.72133847 18.7504632 1.14788647 17.2754415 1.14883958 16.9414222"></polygon>
                        <polygon fill="#E4E8F4" points="7.28797129 19.5492343 7.28702562 19.88074 3.65340939 17.7980645 3.6543552 17.4665612"></polygon>
                        <polygon fill="#E4E8F4" points="9.63104563 19.9787478 9.63009252 20.3127671 6.70183199 18.6343789 6.70278497 18.3003621"></polygon>
                        <polygon fill="#ED435C" points="14.7755229 19.2811043 14.7745697 19.6151235 7.81513809 15.626195 7.8160912 15.2921783"></polygon>
                        <polygon fill="#E4E8F4" points="6.38003348 18.1153707 6.37907793 18.4493873 4.90853882 17.6065202 4.90949193 17.2725011"></polygon>
                        <polygon fill="#E4E8F4" points="9.16861637 16.9783468 9.16766339 17.312366 6.04275129 15.5212633 6.0437044 15.1872465"></polygon>
                        <polygon fill="#EFAC41" points="23.3145096 24.175383 23.3135565 24.5094022 20.0005634 22.6104978 20.0015164 22.2764787"></polygon>
                        <g transform="translate(7.442299, 16.902884)">
                            <polygon fill="#E4E8F4" points="3.98250611 3.19304677 3.98155313 3.52706346 0.19190806 1.35495866 0.192861168 1.02094198"></polygon>
                            <polygon fill="#ED435C" points="6.59275123 3.77821113 6.59179825 4.11223023 0 0.334019105 0.000953107878 0"></polygon>
                            <polygon fill="#E4E8F4" points="8.79596701 5.95197047 8.79501403 6.28598958 4.48811902 3.81741368 4.48907443 3.48339445"></polygon>
                            <polygon fill="#EFAC41" points="10.2404068 7.69082311 10.2394538 8.02484234 2.60245203 3.64755349 2.60340744 3.31353426"></polygon>
                            <polygon fill="#ED435C" points="12.9057659 9.2185242 12.9048129 9.55254101 10.8593023 8.38011868 10.8602554 8.04609944"></polygon>
                            <polygon fill="#E4E8F4" points="11.306226 5.5663637 11.3052729 5.9003828 2.27681687 0.72555521 2.27776985 0.391538522"></polygon>
                            <polygon fill="#E4E8F4" points="12.1231828 5.12367416 12.1222298 5.4576934 7.60799933 2.8702796 7.60895731 2.53626037"></polygon>
                            <polygon fill="#E4E8F4" points="14.1976861 8.13712256 14.196733 8.47113938 6.98294557 4.33642436 6.98389868 4.00240525"></polygon>
                            <polygon fill="#E4E8F4" points="15.8644146 10.003382 15.8634567 10.3373988 9.22036408 6.52978626 9.22131718 6.19576715"></polygon>
                            <polygon fill="#E4E8F4" points="15.8670099 9.09392449 15.8660569 9.42794372 14.5750605 8.68798494 14.5760136 8.35396812"></polygon>
                            <polygon fill="#E4E8F4" points="15.869615 8.18195605 15.8686619 8.51597286 11.6365776 6.09027495 11.6375306 5.75625826"></polygon>
                        </g>
                        <polygon fill="#E4E8F4" points="12.3329168 16.9701346 12.3319639 17.3041537 6.52673201 13.9767764 6.52768756 13.6427596"></polygon>
                    </g>
                    <g transform="translate(3.031645, 17.012899)" id="Path">
                        <path d="M7.70270298,4.16689435 L7.68910632,9.89134455 C7.68459024,10.110934 7.60789421,10.2631617 7.48606206,10.3349002 L6.2136797,11.0695676 C6.33551184,10.9978268 6.41672396,10.8456016 6.41672396,10.6260096 L6.43027337,4.90156182 C6.43478945,4.46259885 6.11894636,3.92499479 5.73541134,3.70562365 L0.718091191,0.829730162 C0.524079734,0.717747065 0.348105577,0.708779172 0.217268171,0.780518877 L1.48964989,0.0458525524 C1.6204873,-0.0256674858 1.79646145,-0.0167008655 1.99047291,0.0952822316 L7.00779242,2.97095859 C7.39132757,3.19492237 7.70714375,3.7279338 7.70270298,4.16689435 L7.70270298,4.16689435 Z" fill="#F9BB4A"></path>
                        <path d="M5.73401724,3.70544189 C6.12003387,3.92669323 6.43302878,4.46146834 6.43177401,4.90184089 L6.41542275,10.6265191 C6.41416547,11.0668917 6.09914468,11.2417083 5.71312676,11.0204545 L0.697748187,8.14579827 C0.311730271,7.92454451 -0.00125387956,7.38977665 0,6.94940169 L0.0163515182,1.22472458 C0.0176091747,0.784350757 0.332619464,0.609529325 0.71863738,0.830783083 L5.73401724,3.70544189 Z" fill="#EFAC41"></path>
                        <g transform="translate(0.465415, 3.563129)" fill="#FFFFFF">
                            <polygon points="1.28536661 0.734126508 1.28082119 2.32592148 0.955841641 2.13965388 0.957709292 1.48561388 0.323035665 1.12183913 0.321168015 1.77587913 0 1.59179497 0.00454542387 0 0.325713439 0.184084163 0.323920227 0.812095085 0.958593854 1.17586984 0.960387578 0.547858914"></polygon>
                            <polygon points="2.67326094 1.52962492 2.67240264 1.83037805 2.22506474 1.57397811 2.22137774 2.86501996 1.90020973 2.68093579 1.90389686 1.38989637 1.45655896 1.13349631 1.4574179 0.832740762"></polygon>
                            <polygon points="4.41670511 2.52891192 4.41598416 4.1228977 4.11393865 3.94977445 4.1128414 2.9925552 3.70149457 3.54746416 3.55620232 3.46418748 3.14930136 2.46208869 3.1466364 3.3953482 2.84457794 3.2222177 2.84912401 1.6304226 3.11293707 1.78163382 3.63391193 3.07190906 4.15289205 2.37770325"></polygon>
                            <polygon points="5.07432623 2.90584069 5.07063974 4.19688011 5.77031727 4.59791426 5.76945834 4.89866739 4.74862509 4.31355887 4.75317167 2.7217639"></polygon>
                        </g>
                    </g>
                    <g transform="translate(6.882996, 0.427835)" id="Path">
                        <path d="M7.702703,4.16689584 L7.68910632,9.89134489 C7.68459024,10.1109356 7.6078942,10.2631621 7.48606206,10.3349005 L6.2136797,11.0695668 C6.33551184,10.9978284 6.41672512,10.8456019 6.41672512,10.6260112 L6.43027324,4.90156216 C6.43479047,4.4625997 6.11894623,3.92499576 5.73541121,3.70562399 L0.71809183,0.829729865 C0.524079732,0.717747276 0.348106217,0.70878002 0.21726881,0.780518707 L1.48965053,0.0458522551 C1.62048794,-0.025667656 1.79646145,-0.0167003996 1.99047355,0.0952820615 L7.00779242,2.97095779 C7.39132757,3.19492246 7.70714491,3.72793274 7.702703,4.16689584 L7.702703,4.16689584 Z" fill="#75CA75"></path>
                        <path d="M5.73401723,3.70544082 C6.12003515,3.92669395 6.43302878,4.46146792 6.43177528,4.90184173 L6.41542274,10.6265194 C6.41416547,11.0668932 6.09914468,11.2417085 5.71312804,11.020456 L0.697748185,8.14579797 C0.311730269,7.92454485 -0.00125362484,7.38977635 0,6.94940317 L0.016351901,1.22472491 C0.0176098138,0.784351604 0.332620103,0.609530045 0.718637378,0.830783422 L5.73401723,3.70544082 Z" fill="#65AA65"></path>
                        <g transform="translate(0.631508, 3.949584)" fill="#FFFFFF">
                            <path d="M1.01667787,0.15932446 C1.18047661,0.25320909 1.32371121,0.364500755 1.45662204,0.505097286 C1.58441447,0.642442964 1.69675999,0.800446402 1.7834217,0.972921211 L1.50617532,1.10658345 C1.37866757,0.869761767 1.22534277,0.70001135 1.03594079,0.591452727 C0.923327748,0.526906289 0.815752375,0.494440878 0.728572665,0.497147718 C0.636274436,0.502633007 0.564373663,0.543290675 0.512886876,0.619130895 C0.461400601,0.694971752 0.435465663,0.79688125 0.435098462,0.925503377 C0.434714733,1.05982792 0.459983815,1.19108604 0.510869577,1.3256034 C0.561755211,1.46012026 0.633189872,1.58293313 0.725170996,1.68833007 C0.812032961,1.79650367 0.919443312,1.88726121 1.03205636,1.95180752 C1.22145705,2.06036614 1.37524989,2.06664602 1.50370715,1.97082357 L1.77928563,2.42103072 C1.69192514,2.49376203 1.57904444,2.52267272 1.45086944,2.51965222 C1.31759192,2.50736059 1.16907032,2.45142666 1.00527158,2.35754203 C0.815869608,2.24898277 0.647083158,2.10559329 0.488671094,1.92118644 C0.335362173,1.7397043 0.218012416,1.53789843 0.126347243,1.32162105 C0.0398016139,1.10256535 -0.000610083239,0.892182706 0,0.676122579 C0.000607470756,0.465764864 0.0420865616,0.302319764 0.129598623,0.18302829 C0.222214469,0.0663453327 0.340314388,0.00552113251 0.494157326,8.92646842e-05 C0.653103407,-0.00241813282 0.822156225,0.0478309374 1.01667787,0.15932446 L1.01667787,0.15932446 Z"></path>
                            <path d="M2.73659723,1.14512866 C2.8594509,1.21554489 2.97715184,1.29443042 3.08966483,1.3941425 C3.20217768,1.49385393 3.30441711,1.5991004 3.3861594,1.70433961 L3.2519972,2.00188246 C3.07827314,1.79124695 2.90951962,1.63613529 2.73548038,1.53638086 C2.61262556,1.46596526 2.52554847,1.43921981 2.46398775,1.45089887 C2.40754798,1.4651956 2.38177857,1.5091302 2.38157947,1.57914374 C2.3813632,1.65485969 2.41193453,1.72505817 2.47836432,1.79835652 C2.54481242,1.87134744 2.64708363,1.96518959 2.78519843,2.07957502 C2.92841727,2.20259789 3.0409314,2.30199274 3.1329461,2.3956675 C3.224995,2.48364964 3.30158226,2.59196316 3.36789596,2.71184126 C3.42908885,2.82878496 3.4645819,2.96590258 3.46418449,3.10624676 C3.46383046,3.22884925 3.43280941,3.32213161 3.37109853,3.38608303 C3.31450847,3.45328657 3.2221431,3.48221481 3.10424293,3.4730256 C2.98634276,3.46383639 2.83780399,3.40789216 2.66888442,3.3110725 C2.52044584,3.22599257 2.37717703,3.12071037 2.23907812,3.0006224 C2.10101457,2.87452458 1.99368852,2.75462168 1.90687653,2.6287064 L2.0563989,2.34028496 C2.13808994,2.45723592 2.23008875,2.56264252 2.34258571,2.6680565 C2.44996185,2.77053545 2.56250776,2.85852547 2.67000114,2.92013688 C2.79285481,2.99055312 2.88505285,3.01991624 2.94659755,3.01425683 C3.00302016,3.00566187 3.03390923,2.96466217 3.03410962,2.89464876 L2.98327344,2.74270732 C2.94753106,2.68731511 2.90154934,2.6314491 2.85041258,2.58468632 C2.7941732,2.52897015 2.72255532,2.47046828 2.63050642,2.38851494 C2.48727195,2.2711946 2.36965518,2.16284573 2.27762217,2.07519061 C2.19071011,1.98444045 2.10900317,1.8731919 2.04780901,1.7562487 C1.98151247,1.63035109 1.95110732,1.50186112 1.95152397,1.35581453 C1.95187465,1.23321141 1.97779306,1.13700445 2.03950279,1.07305303 C2.09610989,1.00014707 2.18845937,0.976921243 2.30635839,0.986110455 C2.42425843,0.995299794 2.56767753,1.04830913 2.73659723,1.14512866 L2.73659723,1.14512866 Z"></path>
                            <path d="M4.44117346,2.12213782 C4.56402713,2.19255406 4.67660725,2.26850532 4.79424106,2.37115166 C4.90675391,2.4708631 5.00387239,2.57317529 5.09071731,2.6813391 L4.95657228,2.97889162 C4.78284938,2.76825611 4.60897503,2.61021019 4.44005546,2.51339066 C4.31720179,2.44297442 4.23010767,2.41621931 4.16854694,2.42789836 C4.11210717,2.4421951 4.08123398,2.48320446 4.08103488,2.55321863 C4.08081861,2.62893446 4.11649372,2.70205766 4.18294068,2.77536568 C4.24938763,2.8483566 4.35165999,2.94219875 4.48977479,3.05658418 C4.63297633,3.17959726 4.74548932,3.27899211 4.83752233,3.37267666 C4.92955291,3.46064901 5.00615734,3.56897232 5.07247104,3.68885105 C5.13366508,3.80579412 5.16915698,3.94291174 5.16875957,4.08325592 C5.16840669,4.20585904 5.13738449,4.29914141 5.07567476,4.36309283 C5.0190847,4.43029573 4.9267023,4.45921431 4.80880212,4.45002497 C4.69090195,4.44083563 4.54238035,4.38490119 4.37346065,4.28808217 C4.22500503,4.20299194 4.08175339,4.09772004 3.94365435,3.97763156 C3.80557363,3.85152408 3.69312676,3.72868628 3.61145276,3.60571556 L3.76095796,3.31728433 C3.8375465,3.43131069 3.93464781,3.53964189 4.04714478,3.64505586 C4.15451964,3.74753481 4.26708387,3.83553451 4.37457609,3.89714592 C4.49743091,3.96756216 4.58962895,3.99692592 4.65117251,3.99126586 C4.70759639,3.98267154 4.7384683,3.94166154 4.73866868,3.871648 L4.6878325,3.71970668 C4.65210601,3.66432465 4.60612429,3.60845814 4.55498882,3.561696 C4.49874828,3.50597919 4.4271304,3.44747732 4.32996183,3.36258971 C4.1918469,3.24820364 4.07423026,3.13985489 3.98218136,3.05218997 C3.89016667,2.95851521 3.81356224,2.85019127 3.7472657,2.73032284 C3.6860887,2.60736064 3.65056273,2.47593526 3.65098054,2.32988854 C3.65133006,2.20728605 3.68236929,2.11401336 3.74407902,2.05006194 C3.80068612,1.97715598 3.88791477,1.95099576 4.01093462,1.96311936 C4.12883467,1.97230896 4.27225376,2.02531816 4.44117346,2.12213782 L4.44117346,2.12213782 Z"></path>
                        </g>
                    </g>
                    <g transform="translate(12.982830, 14.476808)" id="Path">
                        <path d="M7.70270313,4.16689638 L7.68910773,9.89134543 C7.68458921,10.1109348 7.60789446,10.2631626 7.48606103,10.334901 L6.21368111,11.0695661 C6.3355121,10.9978277 6.41672537,10.8456024 6.41672537,10.6260105 L6.43027349,4.9015627 C6.43478958,4.46259973 6.11894649,3.92499567 5.73541147,3.70562453 L0.718091318,0.829729772 C0.524080373,0.717747947 0.348105704,0.708780054 0.217268297,0.780518487 L1.48965066,0.0458521624 C1.62048807,-0.0256678758 1.79646158,-0.0166999835 1.99047368,0.0952818416 L7.00779383,2.9709582 C7.39132885,3.194923 7.70714503,3.72793328 7.70270313,4.16689638 Z" fill="#EBC5B2"></path>
                        <path d="M5.73401608,3.70544137 C6.120034,3.92669385 6.43302763,4.46146782 6.43177528,4.90184164 L6.41542274,10.6265199 C6.41416662,11.0668924 6.09914468,11.241709 5.71312676,11.0204553 L0.697748185,8.14579903 C0.311730269,7.92454527 -0.00125362484,7.3897774 0,6.94940244 L0.0163525416,1.22472533 C0.0176098138,0.784351512 0.332619591,0.60953008 0.718637506,0.830783838 L5.73401608,3.70544137 Z" fill="#DDAF9B"></path>
                        <g transform="translate(0.361494, 4.217915)" fill="#FFFFFF">
                            <polygon points="1.85409361 0.28957026 1.85251372 0.842709425 0.552852922 0.64350367 1.84942723 1.92359198 1.84784863 2.47673241 0 0.607811573 0.00162754797 0.0375880675"></polygon>
                            <polygon points="3.7894238 0.307863972 2.49431214 3.75093985 1.95718467 3.44307601 3.25229761 0"></polygon>
                            <polygon points="3.86091458 1.43981727 5.70878781 3.30875262 5.70716026 3.87897485 3.85466845 3.62697816 3.85624834 3.07384014 5.14842021 3.27753906 3.8593347 1.99295529"></polygon>
                        </g>
                    </g>
                    <g transform="translate(52.287272, 27.774224)">
                        <path d="M7.70270202,4.16689668 L7.68910657,9.89134446 C7.68459049,10.1109364 7.60789573,10.2631616 7.48606474,10.3349001 L6.21367995,11.0695675 C6.33551581,10.9978291 6.41672664,10.8456015 6.41672664,10.6260119 L6.43027477,4.90156174 C6.43479085,4.46260118 6.11894533,3.92499712 5.73541274,3.70562356 L0.718091438,0.829730077 C0.524081775,0.717748252 0.348106978,0.708781505 0.217268418,0.780519937 L1.48965321,0.0458524678 C1.6204869,-0.0256675704 1.7964617,-0.0167009501 1.99047623,0.0952832918 L7.00779267,2.97095851 C7.39133012,3.19492216 7.70714631,3.72793371 7.70270202,4.16689668 L7.70270202,4.16689668 Z" id="Path" fill="#F25574"></path>
                        <path d="M5.73401979,3.70544167 C6.12003527,3.92669543 6.43303134,4.46146813 6.43177415,4.90184322 L6.41542158,10.6265191 C6.41416546,11.066894 6.09914595,11.2417106 5.71313047,11.020457 L0.697749459,8.14579831 C0.311729109,7.92454456 -0.00125235126,7.38977669 0,6.94940414 L0.016352534,1.22472589 C0.017608653,0.784353344 0.332618302,0.609531784 0.71863878,0.830783126 L5.73401979,3.70544167 Z" id="Path" fill="#ED435C"></path>
                        <g transform="translate(0.605190, 3.707591)" fill="#FFFFFF">
                            <path d="M1.3203851,1.06774533 C1.37771558,1.20169261 1.4039566,1.33319698 1.40356988,1.46977173 C1.40317454,1.60633439 1.37625421,1.71231655 1.31835191,1.78048627 C1.26045935,1.84839638 1.18049976,1.87864923 1.07401062,1.86814444 C0.967492261,1.86285567 0.843354412,1.8169741 0.701557994,1.73570366 L0.373674534,1.54777172 L0.372218031,2.05839312 L0,1.84505077 L0.00526867888,0 L0.705370169,0.401276708 C0.847161718,0.482547143 0.971157863,0.578890582 1.07735848,0.695523169 C1.18354461,0.81214838 1.26307409,0.93353603 1.3203851,1.06774533 L1.3203851,1.06774533 Z M0.937629581,1.44058871 C0.995395042,1.4182011 1.02664094,1.36002434 1.02694395,1.25390379 C1.02723236,1.15271066 0.996431173,1.0542905 0.938988326,0.965615785 C0.881555216,0.876933818 0.79299357,0.800901278 0.682218194,0.737409033 L0.376489784,0.562175107 L0.374656982,1.20416248 L0.680385393,1.37939641 C0.791160641,1.44289094 0.879878725,1.46325043 0.937629581,1.44058871" id="Shape"></path>
                            <polygon id="Path" points="3.15572776 1.80573895 3.15045908 3.65079226 2.77826052 3.437462 2.7804258 2.67920111 2.04487034 2.25760129 2.04270519 3.01586218 1.6660737 2.79998941 1.67134238 0.954936228 2.04797387 1.17080658 2.04589174 1.89862777 2.78145207 2.32022746 2.78352933 1.59240627"></polygon>
                            <path d="M4.85635613,3.09444943 C4.91365728,3.22838463 4.93991303,3.35989625 4.9395263,3.49647087 C4.93913097,3.63303099 4.91220077,3.73900844 4.85431808,3.80719024 C4.79641578,3.87509311 4.71644146,3.90533871 4.60995244,3.89483392 C4.50345856,3.88955965 4.37930597,3.84367324 4.23751442,3.76240052 L3.90961636,3.57446132 L3.90815985,4.08508514 L3.53595643,3.87174762 L3.54122511,2.02669685 L4.2413266,2.42797356 C4.38311815,2.509244 4.50712403,2.60559469 4.6133003,2.72221277 C4.7194863,2.83883786 4.79902565,2.96023276 4.85635613,3.09444943 L4.85635613,3.09444943 Z M4.47358601,3.46728544 C4.5313466,3.44489783 4.56258263,3.38671369 4.56288565,3.28059327 C4.56317405,3.17940255 4.5323876,3.08098723 4.47493976,2.99231251 C4.41749691,2.90362571 4.33337793,2.83013809 4.21817449,2.76410576 L3.91243148,2.58886458 L3.91059868,3.23085438 L4.21634169,3.40609555 C4.33154513,3.47212789 4.41582542,3.48994233 4.47358601,3.46728544" id="Shape"></path>
                        </g>
                    </g>
                    <g transform="translate(45.463542, 7.897477)" id="Path">
                        <path d="M7.70270195,4.16689581 L7.6891066,9.89134486 C7.68458565,10.1109355 7.60789089,10.2631608 7.4860599,10.3349005 L6.21367997,11.0695668 C6.33551097,10.9978271 6.41672181,10.8456019 6.41672181,10.6260112 L6.43026993,4.90156214 C6.43478601,4.46259917 6.11894536,3.9249951 5.7354079,3.70562396 L0.718091467,0.829729204 C0.524076807,0.71774687 0.34810201,0.708779613 0.217268319,0.780518682 L1.48964825,0.0458523574 C1.62048681,-0.0256676808 1.7964616,-0.0167004245 1.99047127,0.0952820366 L7.00779257,2.97095776 C7.39132528,3.19492256 7.70714147,3.72793284 7.70270195,4.16689581 Z" fill="#576CFB"></path>
                        <path d="M5.73401495,3.70544093 C6.12003043,3.92669341 6.4330265,4.46146738 6.43177415,4.9018412 L6.41542161,10.6265195 C6.41416549,11.0668933 6.09914111,11.2417086 5.71312563,11.0204548 L0.697744619,8.14579744 C0.311729138,7.92454495 -0.00125719078,7.38977582 0,6.94940327 L0.0163475663,1.22472502 C0.017608554,0.784351198 0.332618331,0.609529766 0.718633812,0.830782888 L5.73401495,3.70544093 Z" fill="#4562EF"></path>
                        <g transform="translate(1.180220, 2.720575)" fill="#FFFFFF">
                            <path d="M1.58937907,0.342554113 L1.58742891,1.02574203 L1.49388686,0.972124956 C1.38162564,0.90778114 1.28798584,0.886007242 1.23166227,0.928531244 C1.16597419,0.954674421 1.13762657,1.0457109 1.13726487,1.17366461 L1.13470382,2.06991339 C1.13415648,2.26213207 1.10568663,2.3849948 1.05865417,2.44328565 C1.00226206,2.5072316 0.91789388,2.52324471 0.805510558,2.50116529 C0.917649549,2.60835325 1.00165603,2.72087248 1.0574958,2.84856659 C1.10401026,2.97149356 1.13168332,3.12653666 1.13113585,3.31875533 L1.128609,4.20458301 C1.1282131,4.34295782 1.15597905,4.45513985 1.22127123,4.56737162 C1.27719902,4.66380002 1.37062371,4.75968251 1.48288493,4.82402632 L1.57643185,4.87764339 L1.57450616,5.55040894 L1.28451562,5.38419391 C0.985165436,5.21261608 0.751532801,4.9928762 0.602361104,4.73630023 C0.443800545,4.47434098 0.369671712,4.18596673 0.370585614,3.86579549 L0.373449678,2.86301621 L0.31787871,2.6281948 L0.159049349,2.47278538 L0,2.381624 L0.00195016199,1.69843609 L0.160999511,1.78959747 L0.320195432,1.81705432 L0.376890553,1.65701716 L0.379788826,0.643236902 C0.380702728,0.323065658 0.456234381,0.120470661 0.615767523,0.0408354468 C0.765916671,-0.0441807574 1.0000381,0.00476240046 1.29938828,0.176340357 L1.58937907,0.342554113 Z"></path>
                            <path d="M2.77745437,1.02352222 C3.08616408,1.20046412 3.31044219,1.41426132 3.46900275,1.67621942 C3.62753397,1.93815934 3.70169214,2.22655165 3.70077824,2.54672416 L3.69788483,3.56050442 L3.75344606,3.7848854 L3.9123145,3.93973439 L4.07132964,4.03087759 L4.06937948,4.7140655 L3.91036434,4.62292104 L3.75112934,4.59602575 L3.69443909,4.76650335 L3.69157503,5.76928262 C3.69066112,6.08945387 3.61510013,6.2920294 3.45559146,6.3716828 C3.29605832,6.45131802 3.07129155,6.40831742 2.76258171,6.23137679 L2.4819507,6.07052456 L2.48387152,5.39775901 L2.57741357,5.45137608 C2.68967479,5.51572117 2.77398428,5.52170977 2.83967237,5.49498811 C2.89599606,5.45246424 2.9337032,5.37780846 2.93409911,5.23943365 L2.93662595,4.35360711 C2.93717829,4.16138844 2.95628836,4.03316176 3.0126756,3.96921581 C3.06906285,3.90584847 3.14411045,3.88449075 3.26584855,3.91135436 C3.14435491,3.79938106 3.06967374,3.69220759 3.01383397,3.56393487 C2.95796485,3.446663 2.93964645,3.2969827 2.94019392,3.10476403 L2.94275498,2.20851525 C2.94312154,2.08056268 2.90599607,1.95199881 2.85006341,1.85614787 C2.78477123,1.7439161 2.70067672,1.66381879 2.5884155,1.59947497 L2.49486858,1.5458579 L2.49681875,0.862671262 L2.77745437,1.02352222 Z"></path>
                        </g>
                    </g>
                </g>
                <path d="M13.2479648,11.3330752 C13.2837023,11.2579258 13.3036432,11.1641442 13.3039561,11.0542147 L13.311698,8.35318149 L13.3052855,11.0535937 C13.3052855,11.1647652 13.2841715,11.2579258 13.2479648,11.3330752 L13.2479648,11.3330752 Z" id="Path" fill="#E4E8F4"></path>
            </g>
        </g>
    </g>
</svg>