<?xml version="1.0" encoding="UTF-8"?>
<svg width="29px" height="29px" viewBox="0 0 29 29" version="1.1" xmlns="http://www.w3.org/2000/svg" xmlns:xlink="http://www.w3.org/1999/xlink">
    <title>phone-call 3 copy</title>
    <g id="Page-1" stroke="none" stroke-width="1" fill="none" fill-rule="evenodd">
        <g id="phone-call-3-copy" fill="#FFFFFF" fill-rule="nonzero">
            <g id="phone-call">
                <path d="M28.0671667,20.8742 C28.0159333,20.8316667 22.2198,16.7020667 20.6547667,16.9601667 C19.8998,17.0935667 19.4686667,17.6088 18.6035,18.6392667 C18.4643,18.8055333 18.1288667,19.2028333 17.8698,19.4860667 C17.3229826,19.3079191 16.7896288,19.0908302 16.2738333,18.8364667 C13.6111709,17.540175 11.459825,15.3888291 10.1635333,12.7261667 C9.90916979,12.2103712 9.69208091,11.6770174 9.51393333,11.1302 C9.79813333,10.8701667 10.1964,10.5347333 10.3665333,10.3916667 C11.3921667,9.53133333 11.9064333,9.09923333 12.0398333,8.3433 C12.3134,6.77826667 8.16833333,0.984066667 8.1258,0.931866667 C7.74355361,0.389759252 7.13826648,0.047732992 6.47666667,0 C4.7966,0 0,6.22146667 0,7.2703 C0,7.3312 0.0879666667,13.5217333 7.72173333,21.2869667 C15.4782667,28.9120333 21.6688,29 21.7297,29 C22.7775667,29 29,24.2034 29,22.5233333 C28.9517693,21.8616466 28.6094315,21.256436 28.0671667,20.8742 Z M21.6224,27.0608667 C20.7833333,26.9893333 15.5826667,26.3039667 9.08666667,19.923 C2.67476667,13.3951 2.0068,8.18573333 1.9401,7.37856667 C3.2071845,5.389788 4.73743228,3.58152029 6.48923333,2.00293333 C6.5279,2.0416 6.57913333,2.0996 6.64486667,2.175 C7.98836459,4.00898795 9.14570802,5.97232684 10.0997333,8.0359 C9.78949033,8.34801063 9.46157226,8.64203953 9.1176,8.91653333 C8.58418658,9.32296956 8.09436607,9.7836341 7.656,10.2911333 C7.50617945,10.5013448 7.44665913,10.7627469 7.4907,11.0171 C7.69527506,11.9032714 8.00859463,12.7607605 8.42353333,13.5700667 C9.91015792,16.6228216 12.3769733,19.0892966 15.4299333,20.5755 C16.2390787,20.9910362 17.0966028,21.3046932 17.9829,21.5093 C18.2372531,21.5533409 18.4986552,21.4938206 18.7088667,21.344 C19.2181524,20.9038512 19.6804346,20.4120892 20.0883,19.8766 C20.3918333,19.5150667 20.7968667,19.0327 20.9505667,18.8964 C23.0193835,19.8495036 24.9871062,21.0082449 26.8240333,22.3551333 C26.9042667,22.4228 26.9613,22.475 26.999,22.5088333 C25.420328,24.2611969 23.6117067,25.7917939 21.6224,27.0589333 L21.6224,27.0608667 Z" id="Shape"></path>
                <path d="M15.4666667,7.73333333 C18.668593,7.73653047 21.2634695,10.331407 21.2666667,13.5333333 C21.2666667,14.0672086 21.6994581,14.5 22.2333333,14.5 C22.7672086,14.5 23.2,14.0672086 23.2,13.5333333 C23.1952054,9.26431881 19.7356812,5.80479456 15.4666667,5.8 C14.9327914,5.8 14.5,6.23279141 14.5,6.76666667 C14.5,7.30054192 14.9327914,7.73333333 15.4666667,7.73333333 L15.4666667,7.73333333 Z" id="Path"></path>
                <path d="M15.4666667,2.9 C21.3364238,2.90692472 26.0930753,7.6635762 26.1,13.5333333 C26.1,14.0672086 26.5327914,14.5 27.0666667,14.5 C27.6005419,14.5 28.0333333,14.0672086 28.0333333,13.5333333 C28.0253428,6.59626744 22.4037326,0.974657152 15.4666667,0.966666667 C14.9327914,0.966666667 14.5,1.39945808 14.5,1.93333333 C14.5,2.46720859 14.9327914,2.9 15.4666667,2.9 Z" id="Path"></path>
            </g>
        </g>
    </g>
</svg>