<?xml version="1.0" encoding="UTF-8"?>
<svg width="65px" height="56px" viewBox="0 0 65 56" version="1.1" xmlns="http://www.w3.org/2000/svg" xmlns:xlink="http://www.w3.org/1999/xlink">
    <title>37BC5C89-A761-467A-B88D-798B17680F65</title>
    <defs>
        <linearGradient x1="-0.000395238171%" y1="50%" x2="100%" y2="50%" id="linearGradient-1">
            <stop stop-color="#F2FBFF" offset="0%"></stop>
            <stop stop-color="#FAF7F7" offset="59.3%"></stop>
            <stop stop-color="#F3EAE6" offset="100%"></stop>
        </linearGradient>
        <linearGradient x1="0.314117647%" y1="50%" x2="98.5454902%" y2="50%" id="linearGradient-2">
            <stop stop-color="#F2FBFF" offset="0%"></stop>
            <stop stop-color="#FAF7F7" offset="59.3%"></stop>
            <stop stop-color="#F3EAE6" offset="100%"></stop>
        </linearGradient>
        <linearGradient x1="0.314083721%" y1="50%" x2="98.5452056%" y2="50%" id="linearGradient-3">
            <stop stop-color="#F3EAE6" offset="0%"></stop>
            <stop stop-color="#CDBFBA" offset="100%"></stop>
        </linearGradient>
        <linearGradient x1="29.2342646%" y1="50.0001976%" x2="121.462269%" y2="50.0001976%" id="linearGradient-4">
            <stop stop-color="#F3EAE6" offset="0%"></stop>
            <stop stop-color="#CDBFBA" offset="100%"></stop>
        </linearGradient>
        <linearGradient x1="14.7311373%" y1="49.9992388%" x2="258.481406%" y2="49.9992388%" id="linearGradient-5">
            <stop stop-color="#4A4A4A" offset="0%"></stop>
            <stop stop-color="#766E6E" offset="100%"></stop>
        </linearGradient>
        <linearGradient x1="-210.674125%" y1="49.9994172%" x2="108.958538%" y2="49.9994172%" id="linearGradient-6">
            <stop stop-color="#000000" offset="0%"></stop>
            <stop stop-color="#575757" offset="100%"></stop>
        </linearGradient>
        <linearGradient x1="-52.1631847%" y1="50%" x2="110.430718%" y2="50%" id="linearGradient-7">
            <stop stop-color="#F3EAE6" offset="0%"></stop>
            <stop stop-color="#CDBFBA" offset="100%"></stop>
        </linearGradient>
        <linearGradient x1="-13.7490571%" y1="50.000624%" x2="62.755136%" y2="50.000624%" id="linearGradient-8">
            <stop stop-color="#CDBFBA" offset="0%"></stop>
            <stop stop-color="#766E6E" offset="100%"></stop>
        </linearGradient>
        <linearGradient x1="0.314083721%" y1="50%" x2="98.5454932%" y2="50%" id="linearGradient-9">
            <stop stop-color="#3F7DD9" offset="0%"></stop>
            <stop stop-color="#17B2EF" offset="58.4245588%"></stop>
            <stop stop-color="#7AE2FC" offset="100%"></stop>
        </linearGradient>
        <linearGradient x1="0.313710727%" y1="50%" x2="98.5454279%" y2="50%" id="linearGradient-10">
            <stop stop-color="#38C2F3" offset="0%"></stop>
            <stop stop-color="#1BADED" offset="54.84%"></stop>
            <stop stop-color="#3B82DB" offset="100%"></stop>
        </linearGradient>
        <linearGradient x1="-7.29982821%" y1="50.0001699%" x2="98.4232983%" y2="50.0001699%" id="linearGradient-11">
            <stop stop-color="#D2024E" offset="0%"></stop>
            <stop stop-color="#FE2267" offset="62.1150944%"></stop>
            <stop stop-color="#FE606F" offset="100%"></stop>
        </linearGradient>
        <linearGradient x1="19.2713554%" y1="63.800222%" x2="65.4350127%" y2="37.4499196%" id="linearGradient-12">
            <stop stop-color="#FE5C6E" offset="0%"></stop>
            <stop stop-color="#FE2167" offset="70.43%"></stop>
            <stop stop-color="#DF0053" offset="100%"></stop>
        </linearGradient>
    </defs>
    <g id="Page-1" stroke="none" stroke-width="1" fill="none" fill-rule="evenodd">
        <g id="Landing-Copy" transform="translate(-946.000000, -2180.000000)" fill-rule="nonzero">
            <g id="search" transform="translate(946.000000, 2180.000000)">
                <g id="Group" transform="translate(0.000000, 5.969795)">
                    <ellipse id="Oval" fill="url(#linearGradient-1)" cx="22.155951" cy="15.9558199" rx="16.1233137" ry="15.9556937"></ellipse>
                    <path d="M60.9313824,25.8333763 L4.06861765,25.8333763 C1.82152941,25.8333763 0,24.0306576 0,21.8070565 L0,4.02631979 C0,1.80271869 1.82152941,0 4.06861765,0 L60.9313824,0 C63.1783431,0 65,1.80259256 65,4.02631979 L65,21.8070565 C65,24.0306576 63.1784706,25.8333763 60.9313824,25.8333763 Z" id="Path" fill="url(#linearGradient-2)"></path>
                    <path d="M25.0566078,0 C33.9612255,0 41.1799216,7.14377574 41.1799216,15.9558199 C41.1799216,19.6857436 39.8862941,23.1164965 37.7193725,25.8333763 L44.840951,25.8333763 C46.3573627,22.8648752 47.2125588,19.5094195 47.2125588,15.9558199 C47.2125588,9.66743055 44.5367255,3.9981937 40.2511863,0 L25.0566078,0 Z" id="Path" fill="url(#linearGradient-3)"></path>
                    <path d="M33.5568235,4.67334609 C29.8423922,0.997530408 24.7666569,-0.509044472 19.9356275,0.151981811 C23.2939608,0.611458771 26.5341471,2.11803365 29.1163039,4.67334609 C35.4128922,10.9044742 35.4128922,21.0070394 29.1163039,27.2381675 C26.5341471,29.79348 23.2939608,31.3000548 19.9356275,31.7595318 C24.7666569,32.4205581 29.8423922,30.9139832 33.5568235,27.2381675 C39.8534118,21.0070394 39.8534118,10.9044742 33.5568235,4.67334609 L33.5568235,4.67334609 Z" id="Path" fill="url(#linearGradient-4)"></path>
                    <g transform="translate(10.828850, 10.151250)">
                        <path d="M29.5321986,0 C29.0551496,0 28.6916594,0.202306078 28.5779731,0.53956696 L26.5559633,6.25029927 L25.1020026,1.41652093 C24.9202575,0.809476566 24.4432084,0.741999164 23.9433457,0.741999164 C23.4207967,0.741999164 22.9664339,0.809476566 22.7846888,1.41652093 L21.330728,6.25029927 L19.3087182,0.53956696 C19.1724731,0.157405228 18.7861692,0 18.3318065,0 C17.423081,0 16.0144928,0.584593936 16.0144928,1.39394438 C16.0144928,1.52889918 16.0373065,1.64127743 16.128179,1.86616006 L19.6268359,10.5220602 C19.808581,10.9716994 20.3993163,11.1291046 20.9673653,11.1291046 C21.6489731,11.1291046 22.3077673,10.9043481 22.4441398,10.5220602 L23.9436006,6.61001057 L25.4430614,10.5220602 C25.5794339,10.9043481 26.2155418,11.1291046 26.8970222,11.1291046 C27.4877575,11.1291046 28.0784928,10.9718255 28.2602379,10.5220602 L31.7590222,1.86616006 C31.8272084,1.73120526 31.8497673,1.57392616 31.8497673,1.43897135 C31.8495124,0.584593936 30.3954241,0 29.5321986,0 L29.5321986,0 Z" id="Path" fill="url(#linearGradient-5)"></path>
                        <path d="M13.5177059,0 C13.0406569,0 12.6771667,0.202306078 12.5634804,0.53956696 L10.5414706,6.25029927 L9.0875098,1.41652093 C8.90576471,0.809476566 8.42871569,0.741999164 7.92885294,0.741999164 C7.40630392,0.741999164 6.95194118,0.809476566 6.77019608,1.41652093 L5.31623529,6.25029927 L3.29422549,0.53956696 C3.15798039,0.157405228 2.77167647,0 2.31731373,0 C1.40858824,0 0,0.584593936 0,1.39394438 C0,1.52889918 0.0228137255,1.64127743 0.113686275,1.86616006 L3.61234314,10.5220602 C3.79408824,10.9716994 4.38482353,11.1291046 4.95287255,11.1291046 C5.63448039,11.1291046 6.29327451,10.9043481 6.42964706,10.5220602 L7.92910784,6.61001057 L9.42856863,10.5220602 C9.56494118,10.9043481 10.201049,11.1291046 10.8825294,11.1291046 C11.4732647,11.1291046 12.064,10.9718255 12.2457451,10.5220602 L15.7445294,1.86616006 C15.8127157,1.73120526 15.8352745,1.57392616 15.8352745,1.43897135 C15.8350196,0.584593936 14.3809314,0 13.5177059,0 L13.5177059,0 Z" id="Path-Copy-3" fill="url(#linearGradient-5)"></path>
                        <path d="M45.4812869,0 C45.0042379,0 44.6407477,0.202306078 44.5270614,0.53956696 L42.5050516,6.25029927 L41.0510908,1.41652093 C40.8693457,0.809476566 40.3921692,0.741999164 39.8924339,0.741999164 C39.3698849,0.741999164 38.9155222,0.809476566 38.7337771,1.41652093 L37.2798163,6.25029927 L35.2578065,0.53956696 C35.1214339,0.157405228 34.7352575,0 34.2807673,0 C33.3720418,0 31.9634535,0.584593936 31.9634535,1.39394438 C31.9634535,1.52889918 31.9861398,1.64127743 32.0771398,1.86616006 L35.5757967,10.5220602 C35.7575418,10.9716994 36.3482771,11.1291046 36.9161986,11.1291046 C37.5978065,11.1291046 38.256728,10.9043481 38.3929731,10.5220602 L39.8924339,6.61001057 L41.3918947,10.5220602 C41.5282673,10.9043481 42.1643751,11.1291046 42.8458555,11.1291046 C43.4365908,11.1291046 44.0273261,10.9718255 44.2090712,10.5220602 L47.7078555,1.86616006 C47.7760418,1.73120526 47.7986006,1.57392616 47.7986006,1.43897135 C47.7986006,0.584593936 46.3446398,0 45.4812869,0 L45.4812869,0 Z" id="Path" fill="#212121"></path>
                        <path d="M34.2808947,0 C33.3721692,0 31.963581,0.584593936 31.963581,1.39394438 C31.963581,1.52889918 31.9862673,1.64127743 32.0772673,1.86616006 L35.5759241,10.5220602 C35.6241006,10.6412493 35.7015908,10.7393753 35.7992182,10.8199698 C36.1804241,9.20908873 36.3838359,7.53047801 36.3838359,5.80457004 C36.3838359,4.9631836 36.3343849,4.13327462 36.2410908,3.31648275 L35.2579339,0.53956696 C35.1214339,0.157405228 34.7352575,0 34.2808947,0 Z" id="Path" fill="url(#linearGradient-6)"></path>
                    </g>
                    <path d="M60.9313824,0 L55.7027059,0 C57.9496667,0 59.7713235,1.80259256 59.7713235,4.02631979 L59.7713235,21.8070565 C59.7713235,24.0306576 57.9497941,25.8333763 55.7027059,25.8333763 L60.9313824,25.8333763 C63.1783431,25.8333763 65,24.0307837 65,21.8070565 L65,4.02631979 C65,1.80271869 63.1784706,0 60.9313824,0 Z" id="Path" fill="url(#linearGradient-7)"></path>
                </g>
                <g id="Group">
                    <path d="M40.0914902,43.3714467 L33.8453725,37.1902644 C32.8402941,36.1956349 32.8402941,34.5829881 33.8453725,33.5883586 L33.9413431,33.4933857 C34.9464216,32.4987562 36.5760098,32.4987562 37.5810882,33.4933857 L43.8272059,39.6745679 C44.8322843,40.6691974 44.8322843,42.2818443 43.8272059,43.2763477 L43.7312353,43.3713205 C42.7260294,44.3660762 41.0965686,44.3660762 40.0914902,43.3714467 Z" id="Path" fill="url(#linearGradient-8)"></path>
                    <path d="M22.155951,0 C9.9195098,0 0,9.81638534 0,21.9256149 C0,34.0348446 9.9195098,43.8512299 22.155951,43.8512299 C34.3923922,43.8512299 44.311902,34.0348446 44.311902,21.9256149 C44.311902,9.81638534 34.3922647,0 22.155951,0 Z M22.155951,37.8813087 C13.2513333,37.8813087 6.03263725,30.7376591 6.03263725,21.9256149 C6.03263725,13.1135708 13.2512059,5.96992121 22.155951,5.96992121 C31.0606961,5.96992121 38.2792647,13.1135708 38.2792647,21.9256149 C38.2792647,30.7376591 31.0605686,37.8813087 22.155951,37.8813087 Z" id="Shape" fill="url(#linearGradient-9)"></path>
                    <path d="M22.155951,0 C21.4065392,0 20.6659216,0.0373332913 19.9357549,0.109225102 C31.1295196,1.21144008 39.8713824,10.5580061 39.8713824,21.9256149 C39.8713824,33.2932238 31.1295196,42.6396637 19.9357549,43.7420048 C20.666049,43.8138966 21.4065392,43.8512299 22.155951,43.8512299 C34.3922647,43.8512299 44.311902,34.0348446 44.311902,21.9256149 C44.311902,9.81638534 34.3922647,0 22.155951,0 Z" id="Path" fill="url(#linearGradient-10)"></path>
                    <path d="M56.0421078,50.8545013 L51.3887451,55.4594871 C50.6604902,56.180171 49.4799118,56.180171 48.7516569,55.4594871 L39.3466667,46.1522724 C37.333451,44.1599863 37.333451,40.9298999 39.3466667,38.9376138 C41.3598824,36.9453278 44.623902,36.9453278 46.6371176,38.9376138 L56.0421078,48.2448286 C56.7702353,48.9655124 56.7702353,50.1339435 56.0421078,50.8545013 Z" id="Path" fill="url(#linearGradient-11)"></path>
                    <path d="M56.0421078,48.2448286 L46.6371176,38.9376138 C45.0506078,37.3675976 42.6875392,37.0358862 40.7716961,37.9404618 C41.2868529,38.1837588 41.7700196,38.5154701 42.196598,38.9376138 L51.6015882,48.2448286 C52.3298431,48.9655124 52.3298431,50.1338174 51.6015882,50.8545013 L47.8499412,54.5671458 L48.7516569,55.4594871 C49.4799118,56.180171 50.6604902,56.180171 51.3887451,55.4594871 L56.0421078,50.8545013 C56.7702353,50.1339435 56.7702353,48.9655124 56.0421078,48.2448286 L56.0421078,48.2448286 Z" id="Path" fill="url(#linearGradient-12)"></path>
                </g>
                <path d="M35.9308529,17.5375658 C35.7491078,16.9305215 35.2720588,16.8630441 34.7721961,16.8630441 C34.2496471,16.8630441 33.7952843,16.9305215 33.6135392,17.5375658 L33.4032451,18.236556 C34.0893137,21.1060483 33.9631373,24.1266395 33.0243333,26.9403841 C33.1443922,26.856258 33.2320784,26.7567446 33.2727353,26.642979 L34.7721961,22.7309294 L36.2716569,26.642979 C36.3835588,26.9567805 36.8324412,27.1641316 37.3664608,27.2284558 C38.1775588,24.9448188 38.4473725,22.5151278 38.177049,20.1341215 L37.3849412,22.3713442 L35.9308529,17.5375658 Z" id="Path" fill="#212121"></path>
            </g>
        </g>
    </g>
</svg>