<?xml version="1.0" encoding="UTF-8"?>
<svg width="434.75px" height="427.3645px" viewBox="0 0 434.75 427.3645" version="1.1" xmlns="http://www.w3.org/2000/svg" xmlns:xlink="http://www.w3.org/1999/xlink">
    <title>2896096</title>
    <defs>
        <polygon id="path-1" points="0 0 49.989097 0 49.989097 76.1631688 0 76.1631688"></polygon>
        <polygon id="path-3" points="0 0 49.989097 0 49.989097 76.1631688 0 76.1631688"></polygon>
        <polygon id="path-5" points="-7.10542736e-15 0 262.121499 0 262.121499 350.308129 -7.10542736e-15 350.308129"></polygon>
    </defs>
    <g id="livecasino" stroke="none" stroke-width="1" fill="none" fill-rule="evenodd">
        <g id="Artboard" transform="translate(-582.000000, -89.000000)">
            <g id="2896096" transform="translate(799.375000, 302.682250) scale(-1, 1) translate(-799.375000, -302.682250) translate(582.000000, 89.000000)">
                <path d="M73.87,395.018 C156.427,438.146 290.278,438.147 372.833,395.019 C455.389,351.89 455.389,281.966 372.833,238.838 C290.276,195.709 156.426,195.709 73.869,238.837 C-8.687,281.965 -8.687,351.89 73.87,395.018" id="Fill-1" fill-opacity="0.751505818" fill="#000000" opacity="0.402781"></path>
                <path d="M144.027,406.396 L147.73,408.589 C148.926,409.279 150.864,409.279 152.06,408.589 L393.062,269.505 C394.258,268.815 394.258,267.696 393.062,267.005 L389.358,264.813 C388.162,264.122 386.224,264.122 385.028,264.813 L144.027,403.896 C142.832,404.586 142.832,405.706 144.027,406.396" id="Fill-3" fill="#D4D5CF"></path>
                <path d="M95.267,378.317 L98.969,380.51 C100.165,381.201 102.104,381.201 103.299,380.51 L344.301,241.426 C345.497,240.736 345.497,239.617 344.301,238.926 L340.597,236.734 C339.401,236.044 337.463,236.044 336.267,236.734 L95.267,375.817 C94.071,376.507 94.071,377.627 95.267,378.317" id="Fill-4" fill="#D4D5CF"></path>
                <path d="M46.506,350.238 L50.208,352.431 C51.404,353.122 53.343,353.122 54.538,352.431 L295.54,213.348 C296.736,212.657 296.736,211.538 295.54,210.848 L291.836,208.655 C290.641,207.965 288.702,207.965 287.506,208.655 L46.506,347.738 C45.31,348.429 45.31,349.548 46.506,350.238" id="Fill-5" fill="#D4D5CF"></path>
                <path d="M50.072,307.866 C50.363,307.748 51.28,288.117 42.834,276.551 C34.389,264.984 24.152,263.65 17.427,266.473 C10.702,269.295 12.082,276.193 20.359,280.331 C28.636,284.47 38.939,291.712 41.396,304.909 L50.072,307.866" id="Fill-6" fill="#D4D5CF"></path>
                <g id="Group-10" transform="translate(0.000000, 268.147831)">
                    <mask id="mask-2" fill="white">
                        <use xlink:href="#path-1"></use>
                    </mask>
                    <g id="Clip-8"></g>
                    <path d="M46.964,33.9651688 C46.659,33.9651688 46.391,33.7431688 46.342,33.4331688 C43.172,13.5021688 31.388,3.73516879 21.417,1.24216879 C21.079,1.15716879 20.873,0.815168795 20.958,0.477168795 C21.042,0.139168795 21.385,-0.0638312054 21.722,0.0181687946 C32.084,2.61016879 44.32,12.6971688 47.587,33.2361688 C47.642,33.5791688 47.407,33.9021688 47.063,33.9571688 L46.964,33.9651688" id="Fill-7" fill="#FFFFFE" mask="url(#mask-2)"></path>
                    <path d="M48.548,76.1631688 C47.264,70.9911688 42.053,67.5731688 35.904,67.0181688 C29.519,66.4421688 22.08,65.8151688 20.102,60.4141688 C18.123,55.0121688 20.121,47.7141688 19.21,44.1241688 C18.111,39.7901688 16.448,37.2001688 8.056,34.5661688 C0.533,32.2041688 -3.623,25.0131688 3.961,21.9771688 C8.711,20.0771688 13.945,20.0271688 18.865,21.2711688 C22.04,22.0741688 25.065,23.3911688 28.269,24.0831688 C29.725,24.3981688 31.29,24.6101688 32.767,24.7081688 C33.642,24.7661688 34.519,24.6481688 35.4,24.5291688 C36.277,24.4111688 37.156,24.2931688 38.04,24.3501688 C42.589,24.6411688 46.671,27.7641688 48.818,31.7861688 C50.328,34.6181688 49.99,37.8021688 49.874,40.8901688 C49.757,44.0041688 49.64,47.1191688 49.523,50.2331688 C49.269,57.0021688 49.014,63.7701688 48.76,70.5391688 C48.689,72.4131688 48.619,74.2881688 48.548,76.1631688" id="Fill-9" fill="#DDDED8" mask="url(#mask-2)"></path>
                </g>
                <path d="M48.548,326.764 C48.29,326.764 48.047,326.604 47.955,326.347 C41.986,309.712 17.574,294.668 9.463,293.708 C9.117,293.667 8.871,293.354 8.911,293.008 C8.952,292.662 9.263,292.404 9.611,292.457 C17.947,293.443 43.023,308.869 49.142,325.921 C49.259,326.248 49.089,326.609 48.761,326.727 L48.548,326.764" id="Fill-11" fill="#FFFFFE"></path>
                <path d="M39.905,313.126 L39.764,313.096 C39.435,312.984 39.258,312.626 39.37,312.296 C42.228,303.877 40.828,298.124 40.814,298.067 C40.728,297.73 40.932,297.387 41.269,297.301 C41.605,297.215 41.949,297.418 42.035,297.754 C42.099,298.001 43.551,303.901 40.564,312.703 C40.468,312.985 40.191,313.155 39.905,313.126" id="Fill-12" fill="#FFFFFE"></path>
                <path d="M46.964,323.158 C46.862,323.158 46.759,323.133 46.664,323.082 C41.764,320.424 31.134,322.321 31.027,322.341 C30.687,322.398 30.356,322.176 30.294,321.833 C30.231,321.491 30.458,321.162 30.801,321.1 C31.254,321.018 41.973,319.104 47.265,321.974 C47.571,322.14 47.685,322.523 47.518,322.828 C47.405,323.039 47.188,323.158 46.964,323.158" id="Fill-13" fill="#FFFFFE"></path>
                <path d="M50.072,307.866 C50.363,307.748 51.28,288.117 42.835,276.551 C34.389,264.984 24.152,263.65 17.427,266.473 C10.702,269.295 12.082,276.193 20.359,280.331 C28.636,284.47 38.939,291.712 41.396,304.909 L50.072,307.866" id="Fill-14" fill="#00A798"></path>
                <path d="M48.69,307.395 L42.262,305.204 L41.396,304.909 C41.313,304.465 41.221,304.026 41.121,303.595 C38.247,291.227 28.357,284.33 20.359,280.331 C15.63,277.967 13.153,274.702 13.1519995,271.811 C13.151,269.642 14.544,267.683 17.427,266.473 C19.321,265.678 21.492,265.212 23.825,265.212 C29.775,265.212 36.767,268.242 42.835,276.551 C45.791,280.599 47.6,285.636 48.69,290.478 L48.69,307.395" id="Fill-15" fill="#00C7AA"></path>
                <g id="Group-19" transform="translate(0.000000, 268.147831)">
                    <mask id="mask-4" fill="white">
                        <use xlink:href="#path-3"></use>
                    </mask>
                    <g id="Clip-17"></g>
                    <path d="M46.964,33.9651688 C46.659,33.9651688 46.391,33.7431688 46.342,33.4331688 C43.172,13.5021688 31.388,3.73516879 21.417,1.24216879 C21.079,1.15716879 20.873,0.815168795 20.958,0.477168795 C21.042,0.139168795 21.385,-0.0638312054 21.722,0.0181687946 C32.084,2.61016879 44.32,12.6971688 47.587,33.2361688 C47.641,33.5801688 47.407,33.9021688 47.063,33.9571688 L46.964,33.9651688" id="Fill-16" fill="#FFFFFE" mask="url(#mask-4)"></path>
                    <path d="M48.548,76.1631688 C47.264,70.9911688 42.053,67.5731688 35.904,67.0181688 C29.519,66.4421688 22.08,65.8151688 20.102,60.4141688 C18.124,55.0121688 20.121,47.7141688 19.21,44.1241688 C18.111,39.7901688 16.448,37.2001688 8.056,34.5661688 C0.533,32.2041688 -3.623,25.0131688 3.961,21.9781688 C8.711,20.0771688 13.945,20.0271688 18.865,21.2711688 C22.039,22.0741688 25.065,23.3911688 28.269,24.0831688 C29.725,24.3981688 31.29,24.6101688 32.767,24.7081688 C34.514,24.8241688 36.269,24.2361688 38.04,24.3501688 C42.589,24.6411688 46.671,27.7641688 48.818,31.7861688 C50.328,34.6181688 49.99,37.8021688 49.874,40.8901688 C49.757,44.0041688 49.64,47.1191688 49.523,50.2331688 C49.269,57.0021688 49.014,63.7701688 48.76,70.5391688 C48.689,72.4141688 48.619,74.2881688 48.548,76.1631688" id="Fill-18" fill="#00DFBF" mask="url(#mask-4)"></path>
                </g>
                <path d="M48.548,326.764 C48.29,326.764 48.047,326.604 47.955,326.347 C41.986,309.712 17.574,294.668 9.463,293.708 C9.117,293.667 8.871,293.354 8.911,293.008 C8.952,292.662 9.263,292.404 9.611,292.457 C17.947,293.443 43.023,308.869 49.142,325.921 C49.259,326.248 49.089,326.609 48.761,326.727 L48.548,326.764" id="Fill-20" fill="#FFFFFE"></path>
                <path d="M39.905,313.127 L39.764,313.096 C39.435,312.984 39.258,312.626 39.37,312.296 C42.228,303.877 40.828,298.124 40.814,298.067 C40.728,297.73 40.932,297.387 41.269,297.301 C41.605,297.215 41.949,297.418 42.035,297.755 C42.099,298.001 43.551,303.901 40.564,312.702 C40.468,312.985 40.191,313.155 39.905,313.127" id="Fill-21" fill="#FFFFFE"></path>
                <g id="Group-26" transform="translate(30.283501, 0.000000)">
                    <mask id="mask-6" fill="white">
                        <use xlink:href="#path-5"></use>
                    </mask>
                    <g id="Clip-23"></g>
                    <path d="M16.6804993,323.158 C16.5784993,323.158 16.4754993,323.133 16.3804993,323.082 C11.4804993,320.424 0.850499315,322.321 0.743499315,322.341 C0.403499315,322.398 0.0724993149,322.176 0.0104993149,321.833 C-0.0525006851,321.491 0.174499315,321.162 0.517499315,321.1 C0.970499315,321.018 11.6894993,319.104 16.9814993,321.974 C17.2874993,322.14 17.4014993,322.523 17.2344993,322.828 C17.1204993,323.039 16.9044993,323.158 16.6804993,323.158" id="Fill-22" fill="#FFFFFE" mask="url(#mask-6)"></path>
                    <path d="M20.4374993,349.844 C19.3154993,349.197 18.4054993,347.552 18.4054993,346.172 L18.4054993,140.145 C18.4054993,138.765 19.3754993,137.086 20.5704993,136.395 L255.892499,0.541 C257.088499,-0.149 258.967499,-0.184 260.088499,0.464 C261.210499,1.112 262.121499,2.756 262.121499,4.137 L262.121499,210.163 C262.121499,211.544 261.151499,213.223 259.955499,213.913 L24.6324993,349.767 C23.4374993,350.457 21.5584993,350.492 20.4374993,349.844" id="Fill-24" fill="#00A798" mask="url(#mask-6)"></path>
                    <path d="M259.598499,0.239 C259.150499,0.08 258.636499,0 258.113499,0 C258.089499,0 258.065499,0 258.041499,0.001 C258.067499,0 258.092499,0 258.118499,0 C258.639499,0 259.152499,0.079 259.598499,0.239" id="Fill-25" fill="#FFFFFE" mask="url(#mask-6)"></path>
                </g>
                <path d="M53.385,140.359 L49.325,138.009 C49.725,137.329 50.255,136.749 50.855,136.399 L286.179,0.544 C286.78,0.195 287.558,0.012 288.325,0 C288.349,0 288.373,0 288.397,0 C288.92,0 289.434,0.08 289.882,0.239 C290.055,0.302 290.219,0.377 290.369,0.464 C291.399,1.064 292.249,2.484 292.379,3.784 C292.277,3.021 291.822,2.587 291.202,2.587 C290.911,2.587 290.584,2.683 290.239,2.883 L54.915,138.739 C54.357,139.062 53.848,139.603 53.464,140.229 C53.437,140.272 53.411,140.315 53.385,140.359" id="Fill-27" fill="#00EAD2"></path>
                <path d="M54.505,349.954 L54.415,349.984 L54.205,350.064 L54.045,350.114 C53.955,350.144 53.855,350.174 53.745,350.184 L53.545,350.224 C53.445,350.244 53.325,350.264 53.215,350.274 C52.325,350.374 51.395,350.234 50.725,349.844 C49.595,349.194 48.695,347.554 48.695,346.174 L48.685,165.789 L52.755,168.139 L52.755,348.514 C52.755,349.494 53.245,350.064 53.955,350.064 C54.055,350.064 54.145,350.054 54.245,350.024 L54.295,350.014 L54.505,349.954" id="Fill-28" fill="#EAEAE5"></path>
                <path d="M48.689,165.791 L48.685,165.789 L48.685,140.149 L48.695,139.889 C48.707,139.785 48.722,139.68 48.74,139.576 C48.707,139.769 48.689,139.96 48.689,140.145 L48.689,165.791 M48.762,139.461 C48.769,139.423 48.777,139.386 48.785,139.349 C48.79,139.328 48.796,139.306 48.801,139.285 C48.787,139.344 48.773,139.402 48.762,139.461" id="Fill-29" fill="#DBDCD6"></path>
                <path d="M52.755,168.139 L52.755,168.139 L48.689,165.791 L48.689,140.145 C48.689,139.96 48.707,139.769 48.74,139.576 C48.747,139.537 48.754,139.499 48.762,139.461 C48.773,139.402 48.787,139.344 48.801,139.285 C48.913,138.855 49.096,138.409 49.325,138.009 L53.385,140.359 C52.995,141.029 52.755,141.799 52.755,142.489 L52.755,168.139" id="Fill-30" fill="#00EAD2"></path>
                <polyline id="Fill-31" fill="#CBCCC7" points="52.755 168.139 48.685 165.789 48.689 165.791 52.755 168.139"></polyline>
                <path d="M292.399,4.134 L292.399,15.704 L119.905,115.289 C118.715,115.979 117.745,115.419 117.745,114.039 L117.745,109.659 C117.745,108.279 116.775,107.719 115.575,108.409 L63.045,138.739 C61.845,139.429 60.875,141.109 60.875,142.489 L60.875,146.869 C60.875,148.249 59.905,149.929 58.715,150.619 L52.755,154.059 L52.755,142.489 C52.755,141.109 53.725,139.429 54.915,138.739 L290.239,2.883 C291.429,2.194 292.399,2.754 292.399,4.134" id="Fill-32" fill="#03E0C0"></path>
                <path d="M292.409,210.159 C292.409,211.539 291.439,213.219 290.239,213.909 L54.915,349.764 C53.725,350.454 52.755,349.894 52.755,348.514 L52.755,154.059 L58.715,150.619 C59.905,149.929 61.845,139.429 63.045,138.739 L114.696,108.916 C115.296,108.571 116.301,110.337 117.304,112.103 C118.308,113.868 119.31,115.634 119.905,115.289 L292.399,15.704 L292.399,29.784 L292.409,210.159" id="Fill-33" fill="#FAF9F6"></path>
                <path d="M292.399,15.704 L292.399,29.784 L52.755,168.139 L52.755,154.059 L57.206,151.481 C58.396,150.791 58.796,149.742 59.366,147.731 L60.875,142.489 C61.351,140.669 61.845,139.429 63.045,138.739 L114.696,108.916 C115.896,108.226 116.833,108.15 117.745,109.659 L119.597,113.02 C120.276,114.193 120.616,114.883 121.806,114.193 L292.399,15.704" id="Fill-34" fill="#DDDED8"></path>
                <path d="M282.248,11.39 C283.753,10.521 284.973,11.225 284.973,12.962 C284.973,14.7 283.753,16.813 282.248,17.681 C280.744,18.55 279.524,17.846 279.524,16.108 C279.524,14.371 280.744,12.258 282.248,11.39" id="Fill-35" fill="#FFFFFE"></path>
                <path d="M272.44,17.045 C273.944,16.176 275.164,16.88 275.164,18.618 C275.164,20.355 273.944,22.468 272.44,23.336 C270.935,24.205 269.715,23.501 269.715,21.763 C269.715,20.026 270.935,17.913 272.44,17.045" id="Fill-36" fill="#FFFFFE"></path>
                <path d="M262.631,22.7 C264.136,21.831 265.356,22.535 265.356,24.273 C265.356,26.01 264.136,28.123 262.631,28.991 C261.127,29.86 259.907,29.156 259.907,27.419 C259.907,25.681 261.127,23.568 262.631,22.7" id="Fill-37" fill="#FFFFFE"></path>
                <path d="M60.403,159.716 L60.223,159.716 L58.379,158.299 L58.374,158.291 L58.325,158.217 L58.31,158.191 L58.286,158.036 L58.31,157.852 L58.325,157.809 L58.374,157.678 L58.379,157.665 L60.223,154.118 C60.302,153.968 60.408,153.881 60.5,153.881 C60.541,153.881 60.578,153.898 60.609,153.935 C60.709,154.053 60.697,154.325 60.583,154.544 L59.288,157.036 L62.686,155.074 C62.72,155.054 62.753,155.045 62.783,155.045 C62.886,155.045 62.96,155.157 62.96,155.337 C62.96,155.57 62.838,155.829 62.686,155.916 L59.288,157.878 L60.583,158.874 C60.697,158.962 60.709,159.221 60.609,159.454 C60.555,159.58 60.479,159.672 60.403,159.716" id="Fill-38" fill="#829495"></path>
                <path d="M67.808,155.441 L67.603,155.416 C67.503,155.298 67.515,155.026 67.628,154.807 L68.924,152.314 L65.525,154.277 C65.492,154.296 65.459,154.306 65.429,154.306 C65.326,154.306 65.252,154.194 65.252,154.014 C65.252,153.781 65.374,153.522 65.525,153.435 L68.924,151.473 L67.628,150.476 C67.515,150.389 67.503,150.13 67.603,149.897 C67.68,149.716 67.801,149.606 67.905,149.606 C67.934,149.606 67.963,149.615 67.988,149.635 L69.832,151.052 L69.837,151.06 L69.887,151.134 L69.902,151.16 L69.926,151.315 L69.902,151.498 L69.887,151.542 L69.837,151.673 L69.832,151.686 L67.988,155.233 C67.937,155.333 67.873,155.404 67.808,155.441" id="Fill-39" fill="#829495"></path>
                <path d="M74.28,151.912 C74,151.912 73.738,151.81 73.514,151.594 C72.672,150.784 72.672,148.675 73.514,146.893 C74.131,145.587 75.029,144.823 75.798,144.823 C75.839,144.823 75.879,144.825 75.919,144.829 L76.385,143.691 C76.434,143.571 76.509,143.508 76.57,143.508 C76.623,143.508 76.666,143.553 76.675,143.647 L76.878,145.634 C76.893,145.774 76.821,145.951 76.723,146.014 L75.337,146.919 C75.313,146.935 75.291,146.942 75.271,146.942 C75.171,146.942 75.126,146.767 75.202,146.582 L75.553,145.724 C74.991,145.759 74.348,146.319 73.901,147.265 C73.272,148.596 73.272,150.171 73.901,150.776 C74.068,150.937 74.263,151.013 74.472,151.013 C75.046,151.013 75.719,150.434 76.18,149.46 C76.259,149.294 76.373,149.196 76.47,149.196 C76.505,149.196 76.539,149.209 76.567,149.236 C76.674,149.339 76.674,149.605 76.567,149.832 C76.146,150.722 75.594,151.365 75.041,151.685 C74.783,151.834 74.524,151.912 74.28,151.912" id="Fill-40" fill="#829495"></path>
                <path d="M111.04,119.45 C110.991,119.45 110.945,119.432 110.906,119.395 C110.76,119.254 110.76,118.888 110.906,118.578 L112.145,115.955 L110.906,114.763 C110.76,114.622 110.76,114.257 110.906,113.946 C111.014,113.719 111.17,113.585 111.303,113.585 C111.352,113.585 111.398,113.603 111.437,113.64 L112.676,114.833 L113.914,112.21 C114.022,111.982 114.178,111.848 114.311,111.848 C114.36,111.848 114.406,111.866 114.445,111.904 C114.591,112.045 114.591,112.41 114.445,112.72 L113.206,115.343 L114.445,116.535 C114.591,116.676 114.591,117.042 114.445,117.352 C114.371,117.507 114.276,117.619 114.18,117.674 C114.135,117.7 114.09,117.713 114.048,117.713 C113.999,117.713 113.954,117.696 113.914,117.658 L112.676,116.466 L111.437,119.088 C111.363,119.244 111.267,119.355 111.172,119.411 C111.127,119.437 111.082,119.45 111.04,119.45" id="Fill-41" fill="#829495"></path>
                <path d="M81.185,146.872 L81.185,142.491 C81.185,141.11 82.155,139.431 83.35,138.741 L278.052,26.388 C279.248,25.698 280.217,26.257 280.217,27.638 L280.217,32.019 C280.217,33.399 279.247,35.078 278.052,35.769 L83.35,148.122 C82.155,148.812 81.185,148.252 81.185,146.872" id="Fill-42" fill="#FAF9F6"></path>
                <path d="M276.79,28.703 L276.45,28.863 L277.083,30.206 L277.407,30.333 L277.542,30.386 L278.95,29.846 L278.879,29.663 L278.879,29.858 L278.95,29.846 L278.879,29.663 L278.879,29.858 L278.879,29.615 L278.673,29.749 L278.879,29.858 L278.879,29.615 L278.673,29.749 L278.798,29.668 L278.652,29.704 L278.673,29.749 L278.798,29.668 L278.652,29.704 L278.699,29.692 L278.651,29.698 L278.652,29.704 L278.699,29.692 L278.651,29.698 L278.651,29.701 L278.621,29.801 L277.701,31.528 L277.701,31.527 C277.626,31.67 277.583,31.82 277.582,31.982 L277.59,32.088 L277.807,33.65 L277.807,33.654 L277.762,33.778 L277.745,33.798 L277.741,33.803 L277.838,33.925 L277.838,33.777 L277.741,33.803 L277.838,33.925 L277.838,33.777 L277.838,34.007 L277.867,33.779 L277.838,33.777 L277.838,34.007 L277.867,33.779 L276.729,33.638 L276.667,33.634 C276.416,33.644 276.271,33.775 276.159,33.912 L276.159,33.911 L275.022,35.365 L275.008,35.38 L275.049,35.424 L275.025,35.371 L275.008,35.38 L275.049,35.424 L275.025,35.371 L275.106,35.547 L275.106,35.355 L275.025,35.371 L275.106,35.547 L275.106,35.355 L275.106,35.596 L275.301,35.452 L275.106,35.355 L275.106,35.596 L275.301,35.452 L275.163,35.553 L275.329,35.507 L275.301,35.452 L275.163,35.553 L275.329,35.507 L275.256,35.527 L275.331,35.518 L275.329,35.507 L275.256,35.527 L275.331,35.518 L275.331,35.516 L275.332,35.502 L275.549,33.687 L275.556,33.585 C275.553,33.428 275.517,33.236 275.326,33.089 L274.406,32.424 L274.285,32.592 L274.481,32.518 L274.406,32.424 L274.285,32.592 L274.481,32.518 L274.383,32.555 L274.486,32.539 L274.481,32.518 L274.383,32.555 L274.486,32.539 L274.487,32.538 L274.51,32.449 L274.552,32.387 L275.823,31.406 C275.983,31.279 276.079,31.117 276.138,30.932 L276.707,29.067 L276.758,28.973 L276.762,28.969 L276.668,28.847 L276.668,28.993 L276.762,28.969 L276.668,28.847 L276.668,28.993 L276.668,28.74 L276.527,28.949 L276.668,28.993 L276.668,28.74 L276.527,28.949 L276.648,28.77 L276.451,28.863 L276.527,28.949 L276.648,28.77 L276.451,28.863 L276.45,28.863 L276.79,28.703 L277.129,28.543 L276.948,28.328 C276.863,28.27 276.759,28.242 276.668,28.2429741 C276.459,28.248 276.326,28.345 276.221,28.449 C276.116,28.557 276.038,28.691 275.989,28.849 L275.421,30.713 L275.365,30.812 L274.094,31.793 C273.845,31.999 273.746,32.261 273.737,32.538 C273.738,32.683 273.771,32.883 273.967,33.032 L274.887,33.697 L275.009,33.528 L274.811,33.604 L274.887,33.697 L275.009,33.528 L274.811,33.604 L274.904,33.568 L274.806,33.584 L274.811,33.604 L274.904,33.568 L274.806,33.584 L274.806,33.585 L274.805,33.598 L274.587,35.412 L274.588,35.411 L274.581,35.516 C274.582,35.642 274.608,35.775 274.697,35.897 C274.782,36.02 274.95,36.109 275.106,36.105 C275.34,36.099 275.497,35.971 275.612,35.827 L276.75,34.374 L276.761,34.36 L276.667,34.225 L276.667,34.384 L276.761,34.36 L276.667,34.225 L276.667,34.384 L276.667,34.146 L276.638,34.382 L276.667,34.384 L276.667,34.146 L276.638,34.382 L277.775,34.523 L277.838,34.527 C277.984,34.526 278.097,34.471 278.18,34.411 C278.419,34.222 278.544,33.971 278.557,33.654 L278.549,33.547 L278.332,31.984 L278.332,31.982 L278.363,31.88 L279.283,30.153 C279.361,30.005 279.401,29.853 279.401,29.701 C279.4,29.584 279.38,29.463 279.302,29.34 C279.23,29.217 279.054,29.102 278.879,29.108 L278.681,29.146 L277.545,29.581 L277.495,29.562 L277.358,29.911 L277.698,29.751 L277.119,28.522 L277.129,28.543 L276.79,28.703" id="Fill-43" fill="#D4D5CF"></path>
                <path d="M282.77,25.854 C282.511,25.854 282.259,25.719 282.12,25.479 C281.913,25.12 282.036,24.661 282.394,24.454 L288.487,20.936 C288.606,20.868 288.735,20.835 288.862,20.835 C289.121,20.835 289.373,20.97 289.512,21.211 C289.719,21.569 289.595,22.028 289.237,22.235 L283.144,25.753 C283.026,25.821 282.897,25.854 282.77,25.854" id="Fill-44" fill="#829495"></path>
                <path d="M282.77,29.373 C282.511,29.373 282.259,29.238 282.12,28.998 C281.913,28.639 282.036,28.18 282.394,27.973 L288.487,24.455 C288.606,24.386 288.735,24.354 288.862,24.354 C289.121,24.354 289.373,24.489 289.512,24.73 C289.719,25.088 289.595,25.547 289.237,25.754 L283.144,29.272 C283.026,29.34 282.897,29.373 282.77,29.373" id="Fill-45" fill="#829495"></path>
                <path d="M282.77,32.892 C282.511,32.892 282.259,32.757 282.12,32.517 C281.913,32.158 282.036,31.699 282.394,31.492 L288.487,27.974 C288.606,27.905 288.735,27.873 288.862,27.873 C289.121,27.873 289.373,28.008 289.512,28.249 C289.719,28.607 289.595,29.066 289.237,29.273 L283.144,32.791 C283.026,32.859 282.897,32.892 282.77,32.892" id="Fill-46" fill="#829495"></path>
                <polyline id="Fill-47" fill="#D4D5CF" points="52.755 154.059 52.755 168.139 48.685 165.789 48.685 151.719 52.755 154.059"></polyline>
                <path d="M63.042,204.412 L107.454,178.769 C108.65,178.079 109.619,178.639 109.619,180.019 L109.619,306.352 C109.619,307.732 108.649,309.411 107.454,310.101 L63.041,335.743 C61.846,336.433 60.876,335.874 60.876,334.493 L60.877,208.162 C60.877,206.781 61.846,205.102 63.042,204.412" id="Fill-48" fill="#EAEAE5"></path>
                <path d="M71.165,209.101 L99.331,192.84 C100.527,192.149 101.496,192.64 101.496,193.935 C101.496,195.231 100.527,196.84 99.331,197.531 L71.164,213.793 C69.968,214.483 68.999,213.992 68.999,212.697 C69,211.402 69.969,209.792 71.165,209.101" id="Fill-49" fill="#D4D5CF"></path>
                <path d="M68.999,221.233 L68.999,222.923 C68.999,223.752 69.581,224.088 70.298,223.674 L71.763,222.828 C72.481,222.414 73.062,221.407 73.062,220.578 L73.062,218.887 C73.061,218.059 72.48,217.723 71.762,218.137 L70.298,218.983 C69.58,219.397 68.999,220.405 68.999,221.233" id="Fill-50" fill="#FAF9F6"></path>
                <path d="M77.123,217.387 C77.123,218.683 78.092,219.173 79.288,218.483 L99.33,206.912 C100.526,206.221 101.495,204.612 101.495,203.316 C101.495,202.021 100.526,201.531 99.33,202.221 L79.288,213.792 C78.093,214.482 77.123,216.092 77.123,217.387" id="Fill-51" fill="#D4D5CF"></path>
                <path d="M68.999,230.623 L68.999,232.314 C68.999,233.142 69.581,233.478 70.298,233.064 L71.763,232.218 C72.481,231.804 73.062,230.797 73.062,229.969 L73.062,228.277 C73.061,227.449 72.48,227.113 71.762,227.528 L70.298,228.373 C69.58,228.787 68.999,229.795 68.999,230.623" id="Fill-52" fill="#FAF9F6"></path>
                <path d="M77.123,226.778 C77.123,228.073 78.092,228.564 79.288,227.873 L99.33,216.302 C100.526,215.611 101.495,214.002 101.495,212.707 C101.495,211.411 100.526,210.921 99.33,211.611 L79.288,223.182 C78.093,223.873 77.123,225.482 77.123,226.778" id="Fill-53" fill="#D4D5CF"></path>
                <path d="M68.999,239.998 L68.999,241.688 C68.999,242.517 69.581,242.852 70.298,242.438 L71.763,241.593 C72.481,241.179 73.062,240.171 73.062,239.343 L73.062,237.652 C73.061,236.823 72.48,236.488 71.762,236.902 L70.298,237.748 C69.58,238.162 68.999,239.169 68.999,239.998" id="Fill-54" fill="#FAF9F6"></path>
                <path d="M77.123,236.152 C77.123,237.447 78.092,237.938 79.288,237.248 L99.33,225.676 C100.526,224.986 101.495,223.376 101.495,222.081 C101.495,220.786 100.526,220.295 99.33,220.986 L79.288,232.557 C78.093,233.247 77.123,234.857 77.123,236.152" id="Fill-55" fill="#D4D5CF"></path>
                <path d="M68.999,249.368 L68.999,251.059 C68.999,251.887 69.581,252.223 70.298,251.809 L71.763,250.963 C72.481,250.549 73.062,249.542 73.062,248.713 L73.062,247.022 C73.061,246.194 72.48,245.858 71.762,246.272 L70.298,247.118 C69.58,247.532 68.999,248.54 68.999,249.368" id="Fill-56" fill="#FAF9F6"></path>
                <path d="M77.123,245.523 C77.123,246.818 78.092,247.308 79.288,246.618 L99.33,235.047 C100.526,234.356 101.495,232.747 101.495,231.451 C101.495,230.156 100.526,229.666 99.33,230.356 L79.288,241.927 C78.093,242.617 77.123,244.227 77.123,245.523" id="Fill-57" fill="#D4D5CF"></path>
                <path d="M70.993,260.79 L99.159,244.528 C100.355,243.838 101.324,244.328 101.324,245.624 C101.324,246.919 100.355,248.529 99.159,249.219 L70.992,265.481 C69.796,266.172 68.827,265.681 68.827,264.386 C68.828,263.09 69.797,261.48 70.993,260.79" id="Fill-58" fill="#D4D5CF"></path>
                <path d="M68.827,272.922 L68.827,274.612 C68.827,275.441 69.408,275.776 70.126,275.362 L71.591,274.517 C72.308,274.103 72.89,273.095 72.89,272.267 L72.89,270.576 C72.889,269.747 72.308,269.412 71.59,269.826 L70.126,270.672 C69.408,271.086 68.827,272.093 68.827,272.922" id="Fill-59" fill="#FAF9F6"></path>
                <path d="M76.951,269.076 C76.951,270.371 77.92,270.862 79.116,270.172 L99.158,258.6 C100.354,257.91 101.323,256.3 101.323,255.005 C101.323,253.71 100.354,253.219 99.158,253.91 L79.116,265.481 C77.921,266.171 76.951,267.781 76.951,269.076" id="Fill-60" fill="#D4D5CF"></path>
                <path d="M68.827,282.312 L68.827,284.002 C68.827,284.831 69.408,285.167 70.126,284.753 L71.591,283.907 C72.308,283.493 72.89,282.486 72.89,281.657 L72.89,279.966 C72.889,279.138 72.308,278.802 71.59,279.216 L70.126,280.062 C69.408,280.476 68.827,281.483 68.827,282.312" id="Fill-61" fill="#FAF9F6"></path>
                <path d="M76.951,278.466 C76.951,279.762 77.92,280.252 79.116,279.562 L99.158,267.99 C100.354,267.3 101.323,265.69 101.323,264.395 C101.323,263.1 100.354,262.61 99.158,263.3 L79.116,274.871 C77.921,275.561 76.951,277.171 76.951,278.466" id="Fill-62" fill="#D4D5CF"></path>
                <path d="M68.827,291.686 L68.827,293.377 C68.827,294.205 69.408,294.541 70.126,294.127 L71.591,293.281 C72.308,292.867 72.89,291.86 72.89,291.032 L72.89,289.34 C72.889,288.512 72.308,288.176 71.59,288.591 L70.126,289.436 C69.408,289.85 68.827,290.858 68.827,291.686" id="Fill-63" fill="#FAF9F6"></path>
                <path d="M76.951,287.841 C76.951,289.136 77.92,289.627 79.116,288.936 L99.158,277.365 C100.354,276.674 101.323,275.065 101.323,273.77 C101.323,272.474 100.354,271.984 99.158,272.674 L79.116,284.245 C77.921,284.936 76.951,286.545 76.951,287.841" id="Fill-64" fill="#D4D5CF"></path>
                <path d="M68.827,301.057 L68.827,302.747 C68.827,303.576 69.408,303.911 70.126,303.497 L71.591,302.652 C72.308,302.238 72.89,301.23 72.89,300.402 L72.89,298.711 C72.889,297.882 72.308,297.547 71.59,297.961 L70.126,298.807 C69.408,299.221 68.827,300.228 68.827,301.057" id="Fill-65" fill="#FAF9F6"></path>
                <path d="M76.951,297.211 C76.951,298.507 77.92,298.997 79.116,298.307 L99.158,286.735 C100.354,286.045 101.323,284.435 101.323,283.14 C101.323,281.845 100.354,281.354 99.158,282.045 L79.116,293.616 C77.921,294.306 76.951,295.916 76.951,297.211" id="Fill-66" fill="#D4D5CF"></path>
                <path d="M215.232,161.257 L215.232,163.576 C215.232,164.957 216.2,165.513 217.393,164.818 L274.002,131.872 C275.195,131.178 276.163,129.495 276.163,128.115 L276.163,126.079 C276.163,124.698 275.194,124.138 273.998,124.829 L217.397,157.507 C216.202,158.197 215.232,159.876 215.232,161.257" id="Fill-67" fill="#D4D5CF"></path>
                <path d="M217.397,171.579 L282.123,134.209 C283.319,133.519 284.288,134.009 284.288,135.305 C284.288,136.6 283.319,138.209 282.123,138.9 L217.398,176.269 C216.203,176.959 215.233,176.469 215.233,175.174 C215.233,173.879 216.202,172.269 217.397,171.579" id="Fill-68" fill="#E4E4DE"></path>
                <path d="M217.397,180.954 L282.123,143.585 C283.319,142.894 284.288,143.385 284.288,144.68 C284.288,145.975 283.319,147.585 282.123,148.275 L217.398,185.644 C216.203,186.334 215.233,185.844 215.233,184.549 C215.233,183.254 216.202,181.644 217.397,180.954" id="Fill-69" fill="#E4E4DE"></path>
                <path d="M217.397,190.329 L282.123,152.96 C283.319,152.269 284.288,152.76 284.288,154.055 C284.288,155.35 283.319,156.96 282.123,157.65 L217.398,195.019 C216.203,195.709 215.233,195.219 215.233,193.924 C215.233,192.629 216.202,191.019 217.397,190.329" id="Fill-70" fill="#E4E4DE"></path>
                <path d="M217.397,199.704 L282.123,162.335 C283.319,161.645 284.288,162.135 284.288,163.43 C284.288,164.725 283.319,166.335 282.123,167.025 L217.398,204.394 C216.203,205.084 215.233,204.594 215.233,203.299 C215.233,202.004 216.202,200.395 217.397,199.704" id="Fill-71" fill="#E4E4DE"></path>
                <path d="M217.397,209.079 L282.123,171.71 C283.319,171.02 284.288,171.51 284.288,172.805 C284.288,174.1 283.319,175.71 282.123,176.4 L217.398,213.769 C216.203,214.46 215.233,213.969 215.233,212.674 C215.233,211.379 216.202,209.77 217.397,209.079" id="Fill-72" fill="#E4E4DE"></path>
                <path d="M217.397,218.455 L282.123,181.085 C283.319,180.395 284.288,180.885 284.288,182.18 C284.288,183.476 283.319,185.085 282.123,185.776 L217.398,223.144 C216.203,223.835 215.233,223.345 215.233,222.049 C215.233,220.754 216.202,219.145 217.397,218.455" id="Fill-73" fill="#E4E4DE"></path>
                <path d="M217.397,227.83 L282.123,190.46 C283.319,189.77 284.288,190.26 284.288,191.556 C284.288,192.851 283.319,194.46 282.123,195.151 L217.398,232.52 C216.203,233.21 215.232999,232.72 215.232999,231.425 C215.232,230.13 216.202,228.52 217.397,227.83" id="Fill-74" fill="#E4E4DE"></path>
                <path d="M217.397,237.205 L282.123,199.836 C283.319,199.145 284.288,199.636 284.288,200.931 C284.288,202.226 283.319,203.836 282.123,204.526 L217.398,241.895 C216.203,242.585 215.232999,242.095 215.232999,240.8 C215.232,239.505 216.202,237.895 217.397,237.205" id="Fill-75" fill="#E4E4DE"></path>
                <path d="M119.908,213.792 L204.945,164.698 C206.14,164.008 207.11,164.567 207.11,165.948 L207.11,250.066 C207.11,251.447 206.14,253.126 204.945,253.816 L119.91,302.911 C118.715,303.602 117.745,303.042 117.745,301.661 L117.743,217.542 C117.743,216.161 118.712,214.482 119.908,213.792" id="Fill-76" fill="#EAEAE5"></path>
                <path d="M183.388,212.414 L169.182,237.56 L179.166,250.504 L146.178,222.078 L117.745,283.637 L117.745,301.661 C117.745,303.042 118.715,303.601 119.91,302.911 L204.945,253.816 C206.14,253.126 207.11,251.447 207.11,250.066 L207.11,234.104 L183.388,212.414" id="Fill-77" fill="#D4D5CF"></path>
                <path d="M186.797,186.539 C190.334,184.496 193.201,186.151 193.201,190.236 C193.201,194.321 190.334,199.288 186.797,201.33 C183.26,203.373 180.393,201.718 180.393,197.633 C180.393,193.549 183.26,188.581 186.797,186.539" id="Fill-78" fill="#D4D5CF"></path>
                <path d="M63.041,171.579 L282.122,45.09 C283.318,44.399 284.287,44.959 284.287,46.34 L284.287,69.483 C284.287,70.864 283.317,72.543 282.121,73.233 L63.041,199.72 C61.845,200.411 60.876,199.851 60.876,198.471 L60.876,175.329 C60.876,173.948 61.845,172.269 63.041,171.579" id="Fill-79" fill="#D4D5CF"></path>
                <path d="M203.046,102.8 L203.047,106.835 C203.047,107.66 203.631,107.998 204.346,107.585 L268.039,70.812 L268.038,63.777 L204.345,100.55 C203.63,100.962 203.046,101.975 203.046,102.8" id="Fill-80" fill="#FAF9F6"></path>
                <path d="M274.864,59.836 C275.581,59.422 276.163,59.757 276.163,60.586 L276.163,64.622 C276.163,65.45 275.581,66.458 274.864,66.872 L268.039,70.812 L268.038,63.777 L274.864,59.836" id="Fill-81" fill="#E4E4DE"></path>
                <path d="M271.916,66.828 C271.705,66.951 271.522,66.969 271.371,66.882 C271.117,66.735 270.96,66.3 270.96,65.745 C270.96,64.682 271.527,63.456 272.198,63.068 C272.323,62.997 272.437,62.96 272.54,62.96 L272.743,63.015 C272.997,63.161 273.155,63.596 273.155,64.151 C273.155,65.215 272.588,66.441 271.916,66.828 Z M274.359,65.37 L273.598,65.132 C273.676,64.809 273.72,64.477 273.72,64.151 C273.72,63.372 273.467,62.78 273.026,62.525 C272.698,62.336 272.303,62.355 271.916,62.579 C271.063,63.072 270.395,64.462 270.395,65.745 C270.395,66.524 270.648,67.116 271.089,67.371 C271.238,67.457 271.401,67.5 271.572,67.5 C271.775,67.5 271.987,67.439 272.198,67.317 C272.711,67.021 273.154,66.398 273.428,65.671 L274.191,65.909 L274.275,65.922 C274.395,65.922 274.507,65.844 274.545,65.723 C274.591,65.574 274.508,65.416 274.359,65.37 L274.359,65.37 Z" id="Fill-82" fill="#FAF9F6"></path>
                <path d="M117.743,175.329 L117.743,203.161 C117.743,204.542 118.712,205.101 119.908,204.411 L282.122,110.758 C283.318,110.067 284.287,108.388 284.287,107.008 L284.287,79.175 C284.287,77.794 283.317,77.234 282.122,77.925 L119.908,171.579 C118.712,172.269 117.743,173.948 117.743,175.329" id="Fill-83" fill="#E4E4DE"></path>
                <path d="M99.465,377.979 C98.344,377.332 97.434,375.687 97.434,374.307 L97.434,168.28 C97.434,166.9 98.403,165.221 99.599,164.53 L334.921,28.676 C336.116,27.986 337.995,27.951 339.117,28.599 C340.238,29.247 341.149,30.891 341.149,32.272 L341.149,238.298 C341.149,239.679 340.18,241.358 338.984,242.048 L103.661,377.902 C102.465,378.592 100.587,378.627 99.465,377.979" id="Fill-84" fill="#00A798"></path>
                <path d="M341.124,31.919 C340.974,30.798 340.064,30.389 338.984,31.019 L103.66,166.874 C103.07,167.224 102.53,167.814 102.13,168.494 L98.07,166.144 C98.47,165.464 99,164.884 99.6,164.534 L334.924,28.678 C336.114,27.988 337.994,27.949 339.114,28.599 C340.144,29.198 340.994,30.618 341.124,31.919" id="Fill-85" fill="#334F55"></path>
                <path d="M103.25,378.089 L103.16,378.119 L102.95,378.199 L102.79,378.249 C102.7,378.279 102.6,378.309 102.49,378.319 L102.29,378.359 C102.19,378.379 102.07,378.399 101.96,378.409 C101.07,378.509 100.14,378.369 99.47,377.979 C98.34,377.329 97.44,375.689 97.44,374.309 L97.43,193.924 L101.5,196.274 L101.5,376.649 C101.5,377.629 101.99,378.199 102.7,378.199 C102.8,378.199 102.89,378.189 102.99,378.159 L103.04,378.149 L103.25,378.089" id="Fill-86" fill="#EAEAE5"></path>
                <path d="M102.13,168.494 C101.74,169.164 101.5,169.934 101.5,170.624 L101.5,196.274 L97.43,193.924 L97.43,168.284 L97.44,168.024 C97.46,167.844 97.49,167.664 97.53,167.484 C97.64,167.034 97.83,166.564 98.07,166.144 L102.13,168.494" id="Fill-87" fill="#132529"></path>
                <path d="M341.144,32.269 L341.144,43.839 L168.65,143.424 C167.46,144.114 166.489,143.554 166.489,142.174 L166.489,137.794 C166.489,136.414 165.52,135.854 164.32,136.544 L111.79,166.874 C110.59,167.564 109.62,169.244 109.62,170.624 L109.62,175.004 C109.62,176.384 108.649,178.064 107.459,178.754 L101.499,182.194 L101.499,170.624 C101.499,169.244 102.47,167.564 103.66,166.874 L338.984,31.018 C340.174,30.329 341.144,30.888 341.144,32.269" id="Fill-88" fill="#253C40"></path>
                <path d="M341.154,238.294 C341.154,239.674 340.184,241.354 338.984,242.044 L103.66,377.899 C102.47,378.589 101.499,378.029 101.499,376.649 L101.499,182.194 L107.459,178.754 C108.649,178.064 110.59,167.564 111.79,166.874 L163.441,137.051 C164.041,136.706 165.045,138.472 166.049,140.237 C167.052,142.003 168.055,143.769 168.65,143.424 L341.144,43.839 L341.144,57.919 L341.154,238.294" id="Fill-89" fill="#FAF9F6"></path>
                <path d="M341.144,43.839 L341.144,57.919 L101.499,196.274 L101.499,182.194 L105.95,179.616 C107.14,178.926 107.54,177.877 108.11,175.866 L109.62,170.624 C110.096,168.804 110.59,167.564 111.79,166.874 L163.441,137.051 C164.641,136.361 165.577,136.285 166.489,137.794 L168.341,141.154 C169.021,142.328 169.361,143.018 170.551,142.328 L341.144,43.839" id="Fill-90" fill="#DDDED8"></path>
                <path d="M330.993,39.524 C332.497,38.656 333.717,39.36 333.717,41.097 C333.717,42.835 332.497,44.948 330.993,45.816 C329.488,46.685 328.268,45.981 328.268,44.243 C328.268,42.506 329.488,40.393 330.993,39.524" id="Fill-91" fill="#FFFFFE"></path>
                <path d="M321.184,45.18 C322.689,44.311 323.909,45.015 323.909,46.753 C323.909,48.49 322.689,50.603 321.184,51.471 C319.68,52.34 318.46,51.636 318.46,49.898 C318.46,48.161 319.68,46.048 321.184,45.18" id="Fill-92" fill="#FFFFFE"></path>
                <path d="M311.376,50.835 C312.88,49.966 314.1,50.67 314.1,52.408 C314.1,54.145 312.88,56.258 311.376,57.126 C309.871,57.995 308.651,57.291 308.651,55.553 C308.651,53.816 309.871,51.703 311.376,50.835" id="Fill-93" fill="#FFFFFE"></path>
                <path d="M109.148,187.851 L108.968,187.851 L107.124,186.434 L107.119,186.426 L107.069,186.352 L107.054,186.326 L107.03,186.17 L107.054,185.987 L107.069,185.944 L107.119,185.813 L107.124,185.8 L108.968,182.253 C109.046,182.102 109.153,182.016 109.244,182.016 C109.285,182.016 109.323,182.033 109.354,182.07 C109.453,182.187 109.442,182.46 109.328,182.679 L108.032,185.171 L111.431,183.209 C111.465,183.189 111.497,183.18 111.527,183.18 C111.631,183.18 111.704,183.291 111.704,183.472 C111.704,183.705 111.582,183.964 111.431,184.051 L108.032,186.013 L109.328,187.009 C109.442,187.097 109.453,187.356 109.354,187.589 C109.3,187.715 109.224,187.807 109.148,187.851" id="Fill-94" fill="#829495"></path>
                <path d="M116.553,183.576 L116.347,183.551 C116.247,183.433 116.259,183.161 116.373,182.942 L117.669,180.449 L114.27,182.412 C114.236,182.431 114.204,182.441 114.174,182.441 C114.07,182.441 113.996,182.329 113.996,182.149 C113.996,181.916 114.119,181.657 114.27,181.57 L117.669,179.608 L116.373,178.611 C116.259,178.524 116.247,178.265 116.347,178.032 C116.424,177.851 116.546,177.741 116.649,177.741 C116.679,177.741 116.707,177.75 116.733,177.77 L118.577,179.187 L118.582,179.195 L118.631,179.269 L118.646,179.295 L118.67,179.45 L118.646,179.633 L118.631,179.677 L118.582,179.808 L118.577,179.821 L116.733,183.368 C116.681,183.468 116.617,183.539 116.553,183.576" id="Fill-95" fill="#829495"></path>
                <path d="M123.024,180.047 C122.745,180.047 122.483,179.945 122.259,179.729 C121.417,178.919 121.417,176.81 122.259,175.028 C122.875,173.722 123.774,172.957 124.542,172.957 C124.583,172.957 124.624,172.96 124.664,172.964 L125.13,171.826 C125.179,171.706 125.253,171.643 125.315,171.643 C125.367,171.643 125.41,171.688 125.42,171.782 L125.623,173.769 C125.637,173.909 125.565,174.086 125.468,174.149 L124.082,175.054 C124.058,175.07 124.035,175.077 124.015,175.077 C123.916,175.077 123.871,174.902 123.947,174.717 L124.298,173.859 C123.736,173.894 123.092,174.454 122.645,175.4 C122.017,176.731 122.017,178.306 122.645,178.911 C122.813,179.072 123.008,179.148 123.216,179.148 C123.79,179.148 124.464,178.569 124.925,177.594 C125.003,177.429 125.117,177.331 125.214,177.331 C125.25,177.331 125.283,177.344 125.312,177.371 C125.418,177.474 125.418,177.74 125.312,177.966 C124.891,178.857 124.338,179.5 123.785,179.819 C123.527,179.969 123.269,180.047 123.024,180.047" id="Fill-96" fill="#829495"></path>
                <path d="M159.784,147.585 C159.736,147.585 159.69,147.567 159.651,147.53 C159.504,147.389 159.504,147.023 159.651,146.713 L160.89,144.09 L159.651,142.898 C159.504,142.757 159.504,142.391 159.651,142.081 C159.758,141.854 159.914,141.72 160.048,141.72 C160.096,141.72 160.142,141.738 160.181,141.775 L161.42,142.968 L162.659,140.345 C162.766,140.117 162.922,139.983 163.056,139.983 C163.104,139.983 163.15,140.001 163.189,140.038 C163.336,140.18 163.336,140.545 163.189,140.855 L161.95,143.478 L163.189,144.67 C163.336,144.811 163.336,145.177 163.189,145.487 C163.116,145.642 163.02,145.754 162.924,145.809 C162.879,145.835 162.835,145.848 162.792,145.848 C162.744,145.848 162.698,145.831 162.659,145.793 L161.42,144.601 L160.181,147.223 C160.108,147.378 160.012,147.49 159.916,147.546 C159.871,147.571 159.827,147.585 159.784,147.585" id="Fill-97" fill="#829495"></path>
                <path d="M129.93,175.007 L129.93,170.626 C129.93,169.245 130.899,167.566 132.095,166.876 L326.797,54.523 C327.993,53.832 328.962,54.392 328.962,55.773 L328.962,60.154 C328.962,61.534 327.992,63.213 326.796,63.904 L132.095,176.257 C130.899,176.947 129.93,176.387 129.93,175.007" id="Fill-98" fill="#FAF9F6"></path>
                <path d="M325.534,56.838 L325.195,56.998 L325.827,58.341 L326.152,58.468 L326.287,58.521 L327.694,57.981 L327.624,57.797 L327.624,57.993 L327.694,57.981 L327.624,57.797 L327.624,57.993 L327.624,57.75 L327.418,57.884 L327.624,57.993 L327.624,57.75 L327.418,57.884 L327.543,57.802 L327.397,57.839 L327.418,57.884 L327.543,57.802 L327.397,57.839 L327.444,57.827 L327.396,57.833 L327.397,57.839 L327.444,57.827 L327.396,57.833 L327.396,57.836 L327.365,57.936 L326.445,59.663 C326.371,59.805 326.328,59.955 326.327,60.117 L326.334,60.223 L326.334,60.222 L326.551,61.785 L326.551,61.789 L326.506,61.913 L326.49,61.933 L326.485,61.938 L326.583,62.06 L326.583,61.912 L326.485,61.938 L326.583,62.06 L326.583,61.912 L326.583,62.143 L326.611,61.914 L326.583,61.912 L326.583,62.143 L326.611,61.914 L325.474,61.773 L325.411,61.769 C325.16,61.779 325.016,61.91 324.903,62.047 L323.766,63.5 L323.753,63.515 L323.794,63.559 L323.769,63.506 L323.753,63.515 L323.794,63.559 L323.769,63.506 L323.85,63.682 L323.85,63.49 L323.769,63.506 L323.85,63.682 L323.85,63.49 L323.85,63.731 L324.045,63.587 L323.85,63.49 L323.85,63.731 L324.045,63.587 L323.908,63.688 L324.073,63.642 L324.045,63.587 L323.908,63.688 L324.073,63.642 L324.001,63.662 L324.075,63.653 L324.073,63.642 L324.001,63.662 L324.075,63.653 L324.075,63.651 L324.076,63.637 L324.077,63.636 L324.294,61.822 L324.3,61.72 C324.298,61.563 324.261,61.371 324.071,61.224 L324.07,61.224 L323.15,60.559 L323.029,60.727 L323.225,60.653 L323.15,60.559 L323.029,60.727 L323.225,60.653 L323.127,60.69 L323.231,60.674 L323.225,60.653 L323.127,60.69 L323.231,60.674 L323.231,60.673 L323.254,60.584 L323.296,60.522 L324.568,59.541 C324.728,59.413 324.824,59.252 324.883,59.067 L325.451,57.202 L325.502,57.108 L325.506,57.104 L325.412,56.982 L325.413,57.127 L325.506,57.104 L325.412,56.982 L325.413,57.127 L325.413,56.875 L325.271,57.084 L325.413,57.127 L325.413,56.875 L325.271,57.084 L325.392,56.905 L325.195,56.998 L325.271,57.084 L325.392,56.905 L325.195,56.998 L325.204,57.018 L325.195,56.998 L325.534,56.838 L325.873,56.678 L325.692,56.463 C325.608,56.405 325.504,56.377 325.413,56.377 C325.203,56.383 325.071,56.48 324.965,56.584 C324.861,56.692 324.783,56.826 324.734,56.984 L324.165,58.848 L324.11,58.947 L322.838,59.928 C322.589,60.134 322.49,60.396 322.481,60.673 C322.482,60.819 322.515,61.018 322.711,61.167 L323.631,61.832 L323.753,61.663 L323.556,61.739 L323.631,61.832 L323.753,61.663 L323.556,61.739 L323.649,61.703 L323.55,61.719 L323.556,61.739 L323.649,61.703 L323.55,61.719 L323.55,61.72 L323.549,61.733 L323.332,63.547 L323.332,63.546 L323.326,63.651 C323.326,63.777 323.353,63.909 323.441,64.032 C323.526,64.155 323.694,64.244 323.85,64.24 C324.085,64.234 324.242,64.106 324.357,63.962 L325.494,62.508 L325.506,62.495 L325.411,62.36 L325.411,62.519 L325.506,62.495 L325.411,62.36 L325.411,62.519 L325.411,62.281 L325.382,62.517 L325.411,62.519 L325.411,62.281 L325.382,62.517 L326.519,62.658 L326.583,62.662 C326.728,62.661 326.841,62.605 326.925,62.546 C327.164,62.357 327.288,62.106 327.301,61.789 L327.294,61.682 L327.077,60.119 L327.077,60.117 L327.107,60.015 L328.027,58.288 C328.105,58.14 328.145,57.988 328.146,57.836 C328.145,57.719 328.124,57.598 328.046,57.475 C327.974,57.352 327.799,57.237 327.624,57.243 L327.425,57.281 L326.29,57.716 L326.239,57.697 L326.103,58.046 L326.442,57.886 L325.874,56.678 L325.873,56.678 L325.534,56.838" id="Fill-99" fill="#D4D5CF"></path>
                <path d="M331.515,53.988 C331.255,53.988 331.003,53.854 330.864,53.613 C330.657,53.255 330.78,52.796 331.139,52.589 L337.232,49.071 C337.35,49.003 337.479,48.97 337.607,48.97 C337.866,48.97 338.117,49.105 338.256,49.345 C338.463,49.704 338.34,50.163 337.982,50.37 L331.889,53.888 C331.771,53.956 331.642,53.988 331.515,53.988" id="Fill-100" fill="#829495"></path>
                <path d="M331.515,57.507 C331.255,57.507 331.003,57.373 330.864,57.132 C330.657,56.774 330.78,56.315 331.139,56.108 L337.232,52.59 C337.35,52.521 337.479,52.489 337.607,52.489 C337.866,52.489 338.117,52.624 338.256,52.864 C338.463,53.223 338.34,53.682 337.982,53.889 L331.889,57.407 C331.771,57.475 331.642,57.507 331.515,57.507" id="Fill-101" fill="#829495"></path>
                <path d="M331.515,61.027 C331.255,61.027 331.003,60.892 330.864,60.652 C330.657,60.293 330.78,59.834 331.139,59.627 L337.232,56.109 C337.35,56.04 337.479,56.008 337.607,56.008 C337.866,56.008 338.117,56.143 338.256,56.383 C338.463,56.742 338.34,57.201 337.982,57.408 L331.889,60.926 C331.771,60.994 331.642,61.027 331.515,61.027" id="Fill-102" fill="#829495"></path>
                <polyline id="Fill-103" fill="#D4D5CF" points="101.5 182.194 101.5 196.274 97.43 193.924 97.43 179.854 101.5 182.194"></polyline>
                <path d="M111.781,232.544 L156.193,206.901 C157.389,206.211 158.358,206.77 158.358,208.151 L158.358,334.483 C158.358,335.864 157.389,337.543 156.193,338.233 L111.781,363.875 C110.585,364.565 109.616,364.006 109.616,362.625 L109.616,236.294 C109.616,234.913 110.585,233.234 111.781,232.544" id="Fill-104" fill="#EAEAE5"></path>
                <path d="M119.905,237.233 L148.071,220.972 C149.267,220.281 150.236,220.772 150.236,222.067 C150.236,223.363 149.267,224.972 148.071,225.663 L119.903,241.925 C118.708,242.615 117.739,242.124 117.739,240.829 C117.739,239.533 118.709,237.924 119.905,237.233" id="Fill-105" fill="#D4D5CF"></path>
                <path d="M117.738,249.365 L117.738,251.055 C117.738,251.884 118.32,252.22 119.037,251.806 L120.503,250.96 C121.22,250.546 121.802,249.539 121.801001,248.71 L121.801001,247.019 C121.801001,246.191 121.219,245.855 120.502,246.269 L119.037,247.115 C118.32,247.529 117.738,248.536 117.738,249.365" id="Fill-106" fill="#FAF9F6"></path>
                <path d="M125.863,245.519 C125.863,246.815 126.832,247.305 128.028,246.615 L148.07,235.044 C149.266,234.353 150.235,232.744 150.235,231.448 C150.235,230.153 149.265,229.663 148.07,230.353 L128.028,241.924 C126.832,242.614 125.863,244.224 125.863,245.519" id="Fill-107" fill="#D4D5CF"></path>
                <path d="M117.738,258.755 L117.738,260.446 C117.738,261.274 118.32,261.61 119.037,261.196 L120.503,260.35 C121.22,259.936 121.802,258.929 121.801001,258.1 L121.801001,256.409 C121.801001,255.581 121.219,255.245 120.502,255.659 L119.037,256.505 C118.32,256.919 117.738,257.927 117.738,258.755" id="Fill-108" fill="#FAF9F6"></path>
                <path d="M125.863,254.91 C125.863,256.205 126.832,256.696 128.028,256.005 L148.07,244.434 C149.266,243.743 150.235,242.134 150.235,240.839 C150.235,239.543 149.265,239.053 148.07,239.743 L128.028,251.314 C126.832,252.005 125.863,253.614 125.863,254.91" id="Fill-109" fill="#D4D5CF"></path>
                <path d="M117.738,268.13 L117.738,269.82 C117.738,270.648 118.32,270.984 119.037,270.57 L120.503,269.725 C121.22,269.31 121.802,268.303 121.801001,267.475 L121.801001,265.784 C121.801001,264.955 121.219,264.62 120.502,265.034 L119.037,265.879 C118.32,266.294 117.738,267.301 117.738,268.13" id="Fill-110" fill="#FAF9F6"></path>
                <path d="M125.863,264.284 C125.863,265.579 126.832,266.07 128.028,265.38 L148.07,253.808 C149.266,253.118 150.235,251.508 150.235,250.213 C150.235,248.918 149.265,248.427 148.07,249.118 L128.028,260.689 C126.832,261.379 125.863,262.989 125.863,264.284" id="Fill-111" fill="#D4D5CF"></path>
                <path d="M117.738,277.5 L117.738,279.19 C117.738,280.019 118.32,280.355 119.037,279.941 L120.503,279.095 C121.22,278.681 121.802,277.674 121.801001,276.845 L121.801001,275.154 C121.801001,274.326 121.219,273.99 120.502,274.404 L119.037,275.25 C118.32,275.664 117.738,276.672 117.738,277.5" id="Fill-112" fill="#FAF9F6"></path>
                <path d="M125.863,273.654 C125.863,274.95 126.832,275.44 128.028,274.75 L148.07,263.179 C149.266,262.488 150.235,260.879 150.235,259.583 C150.235,258.288 149.265,257.798 148.07,258.488 L128.028,270.059 C126.832,270.749 125.863,272.359 125.863,273.654" id="Fill-113" fill="#D4D5CF"></path>
                <path d="M119.733,288.922 L147.899,272.66 C149.095,271.97 150.064,272.46 150.064,273.756 C150.064,275.051 149.095,276.661 147.899,277.351 L119.731,293.613 C118.536,294.303 117.567,293.813 117.567,292.518 C117.567,291.222 118.537,289.612 119.733,288.922" id="Fill-114" fill="#D4D5CF"></path>
                <path d="M117.566,301.054 L117.566,302.744 C117.566,303.572 118.148,303.908 118.865,303.494 L120.331,302.649 C121.048,302.235 121.63,301.227 121.629001,300.399 L121.629001,298.708 C121.629001,297.879 121.047,297.544 120.33,297.958 L118.865,298.803 C118.148,299.218 117.566,300.225 117.566,301.054" id="Fill-115" fill="#FAF9F6"></path>
                <path d="M125.691,297.208 C125.691,298.503 126.66,298.994 127.856,298.304 L147.898,286.732 C149.094,286.042 150.063,284.432 150.063,283.137 C150.063,281.842 149.093,281.351 147.898,282.042 L127.856,293.613 C126.66,294.303 125.691,295.913 125.691,297.208" id="Fill-116" fill="#D4D5CF"></path>
                <path d="M117.566,310.444 L117.566,312.134 C117.566,312.963 118.148,313.299 118.865,312.884 L120.331,312.039 C121.048,311.625 121.63,310.617 121.629001,309.789 L121.629001,308.098 C121.629001,307.27 121.047,306.934 120.33,307.348 L118.865,308.194 C118.148,308.608 117.566,309.615 117.566,310.444" id="Fill-117" fill="#FAF9F6"></path>
                <path d="M125.691,306.598 C125.691,307.894 126.66,308.384 127.856,307.694 L147.898,296.122 C149.094,295.432 150.063,293.822 150.063,292.527 C150.063,291.232 149.093,290.742 147.898,291.432 L127.856,303.003 C126.66,303.693 125.691,305.303 125.691,306.598" id="Fill-118" fill="#D4D5CF"></path>
                <path d="M117.566,319.818 L117.566,321.509 C117.566,322.337 118.148,322.673 118.865,322.259 L120.331,321.413 C121.048,320.999 121.63,319.992 121.629001,319.163 L121.629001,317.472 C121.629001,316.644 121.047,316.308 120.33,316.722 L118.865,317.568 C118.148,317.982 117.566,318.99 117.566,319.818" id="Fill-119" fill="#FAF9F6"></path>
                <path d="M125.691,315.973 C125.691,317.268 126.66,317.759 127.856,317.068 L147.898,305.497 C149.094,304.806 150.063,303.197 150.063,301.902 C150.063,300.606 149.093,300.116 147.898,300.806 L127.856,312.377 C126.66,313.068 125.691,314.677 125.691,315.973" id="Fill-120" fill="#D4D5CF"></path>
                <path d="M117.566,329.189 L117.566,330.879 C117.566,331.707 118.148,332.043 118.865,331.629 L120.331,330.784 C121.048,330.37 121.63,329.362 121.629001,328.534 L121.629001,326.843 C121.629001,326.014 121.047,325.679 120.33,326.093 L118.865,326.939 C118.148,327.353 117.566,328.36 117.566,329.189" id="Fill-121" fill="#FAF9F6"></path>
                <path d="M125.691,325.343 C125.691,326.638 126.66,327.129 127.856,326.439 L147.898,314.867 C149.094,314.177 150.063,312.567 150.063,311.272 C150.063,309.977 149.093,309.486 147.898,310.177 L127.856,321.748 C126.66,322.438 125.691,324.048 125.691,325.343" id="Fill-122" fill="#D4D5CF"></path>
                <path d="M263.972,189.389 L263.972,191.708 C263.972,193.089 264.939,193.645 266.132,192.95 L322.742,160.004 C323.935,159.31 324.902,157.627 324.903,156.247 L324.903,154.211 C324.903,152.83 323.934,152.27 322.738,152.961 L266.137,185.639 C264.941,186.329 263.972,188.008 263.972,189.389" id="Fill-123" fill="#D4D5CF"></path>
                <path d="M266.137,199.711 L330.863,162.341 C332.058,161.651 333.028,162.141 333.028,163.436 C333.028,164.732 332.058,166.341 330.863,167.032 L266.138,204.4 C264.942,205.091 263.973,204.601 263.972,203.305 C263.972,202.01 264.941,200.401 266.137,199.711" id="Fill-124" fill="#E4E4DE"></path>
                <path d="M266.137,209.086 L330.863,171.716 C332.058,171.026 333.028,171.516 333.028,172.812 C333.028,174.107 332.058,175.716 330.863,176.407 L266.138,213.776 C264.942,214.466 263.973,213.976 263.972,212.681 C263.972,211.386 264.941,209.776 266.137,209.086" id="Fill-125" fill="#E4E4DE"></path>
                <path d="M266.137,218.461 L330.863,181.092 C332.058,180.401 333.028,180.892 333.028,182.187 C333.028,183.482 332.058,185.092 330.863,185.782 L266.138,223.151 C264.942,223.841 263.973,223.351 263.972,222.056 C263.972,220.761 264.941,219.151 266.137,218.461" id="Fill-126" fill="#E4E4DE"></path>
                <path d="M266.137,227.836 L330.863,190.467 C332.058,189.776 333.028,190.267 333.028,191.562 C333.028,192.857 332.058,194.467 330.863,195.157 L266.138,232.526 C264.942,233.216 263.973,232.726 263.972,231.431 C263.972,230.136 264.941,228.527 266.137,227.836" id="Fill-127" fill="#E4E4DE"></path>
                <path d="M266.137,237.211 L330.863,199.842 C332.058,199.152 333.028,199.642 333.028,200.937 C333.028,202.232 332.058,203.842 330.863,204.532 L266.138,241.901 C264.942,242.592 263.973,242.101 263.972,240.806 C263.972,239.511 264.941,237.902 266.137,237.211" id="Fill-128" fill="#E4E4DE"></path>
                <path d="M266.137,246.586 L330.863,209.217 C332.058,208.527 333.028,209.017 333.028,210.312 C333.028,211.608 332.058,213.217 330.863,213.907 L266.138,251.276 C264.942,251.967 263.973,251.476 263.972,250.181 C263.972,248.886 264.941,247.277 266.137,246.586" id="Fill-129" fill="#E4E4DE"></path>
                <path d="M266.137,255.962 L330.863,218.592 C332.058,217.902 333.028,218.392 333.028,219.687 C333.028,220.983 332.058,222.592 330.863,223.283 L266.138,260.651 C264.942,261.342 263.973,260.852 263.972,259.557 C263.972,258.261 264.941,256.652 266.137,255.962" id="Fill-130" fill="#E4E4DE"></path>
                <path d="M266.137,265.337 L330.863,227.967 C332.058,227.277 333.028,227.768 333.028,229.063 C333.028,230.358 332.058,231.968 330.863,232.658 L266.138,270.027 C264.942,270.717 263.973,270.227 263.972,268.932 C263.972,267.637 264.941,266.027 266.137,265.337" id="Fill-131" fill="#E4E4DE"></path>
                <path d="M168.648,241.924 L253.684,192.83 C254.88,192.14 255.849,192.699 255.849,194.08 L255.849,278.198 C255.849,279.579 254.88,281.258 253.684,281.948 L168.65,331.043 C167.454,331.733 166.485,331.174 166.485,329.793 L166.483,245.674 C166.483,244.293 167.452,242.614 168.648,241.924" id="Fill-132" fill="#EAEAE5"></path>
                <path d="M232.128,240.546 L217.921,265.692 L227.906,278.636 L194.917,250.21 L166.484,311.769 L166.485,329.793 C166.485,331.174 167.454,331.733 168.65,331.043 L253.684,281.948 C254.88,281.258 255.849,279.579 255.849,278.198 L255.849,262.236 L232.128,240.546" id="Fill-133" fill="#D4D5CF"></path>
                <path d="M235.536,214.671 C239.073,212.628 241.941,214.283 241.941,218.368 C241.941,222.452 239.073,227.42 235.536,229.462 C231.999,231.505 229.132,229.849 229.132,225.765 C229.132,221.68 231.999,216.713 235.536,214.671" id="Fill-134" fill="#D4D5CF"></path>
                <path d="M111.781,199.711 L330.862,73.222 C332.057,72.531 333.027,73.091 333.027,74.471 L333.027,97.615 C333.027,98.996 332.056,100.675 330.861,101.365 L111.781,227.852 C110.585,228.543 109.615,227.983 109.615,226.602 L109.615,203.461 C109.615,202.08 110.585,200.401 111.781,199.711" id="Fill-135" fill="#D4D5CF"></path>
                <path d="M251.786,130.932 L251.786,134.967 C251.786,135.792 252.371,136.13 253.085,135.717 L316.778,98.944 L316.778,91.909 L253.084,128.682 C252.37,129.094 251.786,130.107 251.786,130.932" id="Fill-136" fill="#FAF9F6"></path>
                <path d="M323.604,87.968 C324.321,87.554 324.903,87.889 324.903,88.718 L324.903,92.754 C324.903,93.582 324.321,94.59 323.604,95.004 L316.778,98.944 L316.778,91.909 L323.604,87.968" id="Fill-137" fill="#E4E4DE"></path>
                <path d="M320.656,94.96 C320.444,95.083 320.261,95.101 320.111,95.014 C319.857,94.867 319.699,94.432 319.699,93.877 C319.699,92.814 320.266,91.588 320.938,91.2 C321.062,91.129 321.176,91.092 321.28,91.092 L321.483,91.146 C321.737,91.293 321.894,91.728 321.894,92.283 C321.894,93.347 321.327,94.573 320.656,94.96 M323.099,93.501 L322.337,93.264 C322.415,92.941 322.459,92.609 322.459,92.283 C322.459,91.504 322.206,90.912 321.765,90.657 C321.437,90.468 321.043,90.487 320.656,90.711 C319.803,91.204 319.134,92.594 319.134,93.877 C319.134,94.656 319.387,95.248 319.829,95.503 C319.978,95.589 320.141,95.632 320.311,95.632 C320.514,95.632 320.727,95.571 320.938,95.449 C321.451,95.153 321.893,94.53 322.168,93.803 L322.93,94.041 L323.014,94.054 C323.135,94.054 323.246,93.976 323.284,93.855 C323.33,93.706 323.247,93.548 323.099,93.501" id="Fill-138" fill="#FAF9F6"></path>
                <path d="M166.482,203.461 L166.482,231.293 C166.482,232.673 167.452,233.233 168.648,232.543 L330.862,138.89 C332.057,138.199 333.027,136.52 333.027,135.14 L333.027,107.307 C333.027,105.926 332.057,105.366 330.861,106.057 L168.648,199.711 C167.452,200.401 166.482,202.08 166.482,203.461" id="Fill-139" fill="#E4E4DE"></path>
                <path d="M148.305,380.5 C148.04,374.172 142.914,361.255 136.003,353.314 C129.091,345.372 118.515,339.796 111.286,342.612 C104.553,345.235 105.668,354.166 114.205,359.757 C122.741,365.348 135.512,372.286 139.586,382.398 L147.761,394.673 L148.305,380.5" id="Fill-140" fill="#00A798"></path>
                <path d="M146.173,392.289 L139.586,382.398 C135.853,373.133 124.819,366.532 116.43,361.19 C115.664,360.702 114.92,360.225 114.205,359.757 C112.307,358.514 110.775,357.105 109.616,355.638 C107.826,353.374 106.922,350.969 106.918995,348.814 C106.916,346.083 108.36,343.752 111.286,342.612 C112.583,342.107 113.986,341.872 115.458,341.872 C122.19,341.872 130.331,346.796 136.003,353.314 C140.359,358.319 144.005,365.301 146.173,371.364 L146.173,392.289" id="Fill-141" fill="#00C7AA"></path>
                <path d="M149.135,389.14 C148.932,389.132 148.752,388.991 148.703,388.786 C143.56,367.361 125.349,350.534 114.727,347.093 C114.484,347.014 114.35,346.753 114.429,346.51 C114.507,346.268 114.763,346.129 115.012,346.212 C125.836,349.719 144.382,366.82 149.602,388.57 C149.662,388.818 149.509,389.067 149.261,389.127 L149.135,389.14" id="Fill-142" fill="#FFFFFE"></path>
                <path d="M146.492,403.103 C145.326,399.588 140.736,393.9 133.505,389.345 C125.506,384.307 115.564,382.252 113.122,378.172 C110.187,373.271 114.216,368.355 122.243,369.011 C130.27,369.666 144.767,379.974 147.699,396.284 L146.492,403.103" id="Fill-143" fill="#00DFC0"></path>
                <path d="M147.881,399.305 C147.705,399.298 147.541,399.191 147.47,399.016 C140.07,380.787 125.678,374.883 119.103,374.308 C118.848,374.286 118.66,374.061 118.682,373.807 C118.704,373.551 118.918,373.363 119.183,373.386 C126.454,374.021 140.774,380.062 148.328,398.668 C148.424,398.905 148.309,399.175 148.073,399.271 L147.881,399.305" id="Fill-144" fill="#FFFFFE"></path>
                <path d="M384.586,237.421 C384.586,237.421 385.971,225.237 392.031,215.782 C398.092,206.326 406.419,200.425 414.188,199.81 C421.958,199.196 428.233,206.344 419.92,211.253 C411.607,216.162 396.837,221.172 390.04,239.532 L384.586,237.421" id="Fill-145" fill="#00A798"></path>
                <path d="M390.04,239.532 L389.89,239.474 L389.889,219.591 C390.528,218.297 391.24,217.016 392.031,215.782 C398.092,206.326 406.419,200.425 414.188,199.81 C414.504,199.785 414.818,199.773 415.127,199.773 C419.886,199.773 423.855,202.637 423.856,205.935 C423.856,207.708 422.709,209.606 419.92,211.253 C411.607,216.162 396.837,221.172 390.04,239.532" id="Fill-146" fill="#00C7AA"></path>
                <path d="M386.863,234.257 L386.781,234.233 C386.569,234.147 386.466,233.904 386.553,233.692 C394.752,213.499 410.361,205.067 417.47,203.431 C417.692,203.377 417.915,203.519 417.968,203.742 C418.019,203.965 417.88,204.188 417.656,204.239 C410.693,205.843 395.393,214.128 387.322,234.004 C387.247,234.19 387.052,234.291 386.863,234.257" id="Fill-147" fill="#FFFFFE"></path>
                <path d="M428.367,234.495 C427.664,236.081 425.933,236.907 424.321,237.557 C422.719,238.2 420.962,238.902 420.092,240.402 C418.338,243.43 421.217,247.689 419.335,250.639 C418.545,251.876 417.075,252.527 415.631,252.786 C414.431,253.011 413.208,253.009 411.991,253.112 C411.405,253.1 410.826,253.057 410.261,252.977 C408.591,252.735 406.779,252.656 405.249,253.511 C402.841,254.864 402.101,257.904 400.639,260.248 C398.887,263.055 395.787,264.892 392.53,265.335 C391.448,265.478 389.436,265.673 388.334,265.058 L388.106,264.913 L388.086,264.894 C387.935,264.723 387.744,264.506 387.663,264.388 L387.62,264.316 C387.194,262.746 387.89,261.111 387.918,259.488 C387.921,259.386 387.922,259.291 387.916,259.194 C387.849,257.308 387.795,255.433 387.752,253.551 C387.664,250.089 387.624,246.621 387.648,243.156 C387.672,240.906 387.401,238.442 388.353,236.322 C389.408,233.991 392.029,233.94 393.02,231.652 C393.417,230.741 393.628,229.763 394.012,228.841 C395.158,226.138 397.936,224.194 400.876,224.05 C405.452,223.817 409.56,227.523 414.131,227.186 C415.315,227.093 416.469,226.733 417.635,226.518 C421.343,225.824 425.627,226.88 427.712,230.017 C428.583,231.328 429.005,233.056 428.367,234.495" id="Fill-148" fill="#00DFBF"></path>
                <path d="M387.245,257.107 L387.214,257.099 C387.006,257.044 386.882,256.83 386.938,256.622 C393.262,232.895 418.26,229.466 424.109,229.889 C424.321,229.906 424.486,230.091 424.471,230.306 C424.455,230.521 424.268,230.683 424.053,230.668 C418.332,230.255 393.88,233.609 387.692,256.823 C387.639,257.021 387.443,257.143 387.245,257.107" id="Fill-149" fill="#FFFFFE"></path>
                <path d="M415.021,245.084 L414.814,244.975 C414.752,244.911 408.376,238.626 397.802,240.182 C397.589,240.211 397.39,240.067 397.359,239.853 C397.327,239.64 397.475,239.441 397.688,239.41 C408.671,237.795 415.303,244.359 415.37,244.425 C415.521,244.579 415.519,244.826 415.367,244.977 C415.272,245.07 415.142,245.106 415.021,245.084" id="Fill-150" fill="#FFFFFE"></path>
                <path d="M148.204,406.138 C147.082,405.49 146.172,403.846 146.172,402.465 L146.172,196.439 C146.172,195.059 147.141,193.38 148.337,192.689 L383.659,56.835 C384.855,56.145 386.733,56.11 387.855,56.758 C388.977,57.406 389.887,59.05 389.887,60.431 L389.887,266.457 C389.887,267.838 388.918,269.516 387.722,270.207 L152.399,406.061 C151.203,406.751 149.325,406.786 148.204,406.138" id="Fill-151" fill="#00A798"></path>
                <path d="M387.388,56.542 C386.935,56.376 386.412,56.294 385.88,56.294 C385.862,56.294 385.844,56.294 385.826,56.294 C385.846,56.294 385.865,56.294 385.885,56.294 C386.415,56.294 386.936,56.376 387.388,56.542" id="Fill-152" fill="#FFFFFE"></path>
                <path d="M150.868,196.653 L146.808,194.303 C147.208,193.623 147.738,193.043 148.338,192.693 L383.662,56.837 C384.268,56.486 385.053,56.303 385.826,56.294 C385.844,56.294 385.862,56.294 385.88,56.294 C386.412,56.294 386.935,56.376 387.388,56.542 C387.553,56.602 387.709,56.674 387.852,56.757 C388.882,57.357 389.732,58.777 389.862,60.078 C389.76,59.315 389.305,58.881 388.685,58.881 C388.394,58.881 388.066,58.976 387.722,59.177 L152.398,195.033 C151.84,195.356 151.33,195.898 150.946,196.524 C150.92,196.566 150.893,196.609 150.868,196.653" id="Fill-153" fill="#00EAD2"></path>
                <path d="M151.988,406.248 L151.898,406.278 L151.688,406.358 L151.528,406.408 C151.438,406.438 151.338,406.468 151.228,406.478 L151.028,406.518 C150.928,406.538 150.808,406.558 150.698,406.568 C149.808,406.668 148.878,406.528 148.208,406.138 C147.078,405.488 146.178,403.848 146.178,402.468 L146.168,222.083 L150.238,224.433 L150.238,404.808 C150.238,405.788 150.728,406.358 151.438,406.358 C151.538,406.358 151.628,406.348 151.728,406.318 L151.778,406.308 L151.988,406.248" id="Fill-154" fill="#EAEAE5"></path>
                <polyline id="Fill-155" fill="#D5D7D1" points="146.168 212.69 146.168 207.999 146.172 207.996 146.172 212.687 146.168 212.69"></polyline>
                <polyline id="Fill-156" fill="#CBCCC7" points="146.168 222.07 146.168 212.69 146.172 212.687 146.172 222.068 146.168 222.07"></polyline>
                <polyline id="Fill-157" fill="#BABCB8" points="146.172 222.085 146.168 222.083 146.168 222.07 146.172 222.068 146.172 222.085"></polyline>
                <path d="M146.168,207.999 L146.168,196.443 L146.178,196.183 C146.19,196.072 146.206,195.961 146.226,195.85 C146.191,196.05 146.172,196.247 146.172,196.439 L146.172,207.996 L146.168,207.999 M146.24,195.774 C146.249,195.731 146.258,195.687 146.268,195.643 C146.274,195.619 146.28,195.596 146.286,195.572 C146.269,195.64 146.254,195.707 146.24,195.774" id="Fill-158" fill="#BABCB8"></path>
                <path d="M150.238,224.433 L150.238,224.433 L146.172,222.085 L146.172,196.439 C146.172,196.247 146.191,196.05 146.226,195.85 C146.231,195.826 146.235,195.802 146.24,195.778 C146.24,195.778 146.24,195.778 146.24,195.777 C146.24,195.776 146.24,195.775 146.24,195.774 C146.254,195.707 146.269,195.64 146.286,195.572 C146.398,195.144 146.58,194.701 146.808,194.303 L150.868,196.653 C150.478,197.323 150.238,198.093 150.238,198.783 L150.238,224.433" id="Fill-159" fill="#01C9AB"></path>
                <polyline id="Fill-160" fill="#CBCCC7" points="150.238 224.433 146.168 222.083 146.172 222.085 150.238 224.433"></polyline>
                <path d="M389.882,71.997 L217.388,171.583 C216.198,172.273 215.228,171.713 215.228,170.333 L215.228,165.953 C215.228,164.573 214.258,164.013 213.058,164.703 L160.528,195.033 C159.328,195.723 158.358,197.403 158.358,198.783 L158.358,203.163 C158.358,204.543 157.388,206.223 156.198,206.913 L150.238,210.353 L150.238,198.783 C150.238,197.403 151.208,195.723 152.398,195.033 L387.722,59.177 C388.912,58.487 389.882,59.048 389.882,60.427 L389.882,71.997 Z" id="Fill-161" fill="#03E0C0"></path>
                <path d="M389.892,266.453 C389.892,267.833 388.922,269.513 387.722,270.203 L152.398,406.058 C151.208,406.748 150.238,406.188 150.238,404.808 L150.238,210.353 L156.198,206.913 C157.388,206.223 159.328,195.723 160.528,195.033 L212.179,165.21 C212.779,164.865 213.784,166.631 214.787,168.396 C215.791,170.162 216.793,171.928 217.388,171.583 L389.882,71.997 L389.882,86.078 L389.892,266.453" id="Fill-162" fill="#FAF9F6"></path>
                <path d="M160.526,260.7 L204.939,235.057 C206.134,234.367 207.104,234.926 207.104,236.307 L207.104,362.639 C207.104,364.02 206.134,365.699 204.938,366.389 L160.526,392.031 C159.33,392.721 158.361,392.162 158.361,390.781 L158.361,264.45 C158.361,263.069 159.33,261.39 160.526,260.7" id="Fill-163" fill="#EAEAE5"></path>
                <path d="M168.65,265.389 L196.816,249.128 C198.012,248.437 198.981,248.928 198.981,250.223 C198.981,251.519 198.012,253.128 196.816,253.819 L168.648,270.081 C167.453,270.771 166.484,270.28 166.484,268.985 C166.484,267.689 167.454,266.08 168.65,265.389" id="Fill-164" fill="#D4D5CF"></path>
                <path d="M166.484,277.521 L166.484,279.211 C166.484,280.04 167.065,280.376 167.783,279.962 L169.248,279.116 C169.965,278.702 170.547,277.695 170.547,276.866 L170.546,275.175 C170.546,274.347 169.964,274.011 169.247,274.425 L167.783,275.271 C167.065,275.685 166.484,276.693 166.484,277.521" id="Fill-165" fill="#00DFC0"></path>
                <path d="M174.608,273.675 C174.608,274.971 175.577,275.461 176.773,274.771 L196.815,263.2 C198.011,262.509 198.98,260.9 198.98,259.604 C198.98,258.309 198.011,257.819 196.815,258.509 L176.773,270.08 C175.577,270.77 174.608,272.38 174.608,273.675" id="Fill-166" fill="#D4D5CF"></path>
                <path d="M166.484,286.911 L166.484,288.602 C166.484,289.43 167.065,289.766 167.783,289.352 L169.248,288.506 C169.965,288.092 170.547,287.085 170.547,286.256 L170.546,284.565 C170.546,283.737 169.964,283.401 169.247,283.816 L167.783,284.661 C167.065,285.075 166.484,286.083 166.484,286.911" id="Fill-167" fill="#00DFC0"></path>
                <path d="M174.608,283.066 C174.608,284.361 175.577,284.852 176.773,284.161 L196.815,272.59 C198.011,271.899 198.98,270.29 198.98,268.995 C198.98,267.699 198.011,267.209 196.815,267.899 L176.773,279.47 C175.577,280.161 174.608,281.77 174.608,283.066" id="Fill-168" fill="#D4D5CF"></path>
                <path d="M166.484,296.286 L166.484,297.976 C166.484,298.804 167.065,299.14 167.783,298.726 L169.248,297.881 C169.965,297.467 170.547,296.459 170.547,295.631 L170.546,293.94 C170.546,293.111 169.964,292.776 169.247,293.19 L167.783,294.035 C167.065,294.45 166.484,295.457 166.484,296.286" id="Fill-169" fill="#00DFC0"></path>
                <path d="M174.608,292.44 C174.608,293.735 175.577,294.226 176.773,293.536 L196.815,281.964 C198.011,281.274 198.98,279.664 198.98,278.369 C198.98,277.074 198.011,276.583 196.815,277.274 L176.773,288.845 C175.577,289.535 174.608,291.145 174.608,292.44" id="Fill-170" fill="#D4D5CF"></path>
                <path d="M166.484,305.656 L166.484,307.346 C166.484,308.175 167.065,308.511 167.783,308.097 L169.248,307.251 C169.965,306.837 170.547,305.83 170.547,305.001 L170.546,303.31 C170.546,302.482 169.964,302.146 169.247,302.56 L167.783,303.406 C167.065,303.82 166.484,304.828 166.484,305.656" id="Fill-171" fill="#00DFC0"></path>
                <path d="M174.608,301.81 C174.608,303.106 175.577,303.596 176.773,302.906 L196.815,291.335 C198.011,290.644 198.98,289.035 198.98,287.739 C198.98,286.444 198.011,285.954 196.815,286.644 L176.773,298.215 C175.577,298.905 174.608,300.515 174.608,301.81" id="Fill-172" fill="#D4D5CF"></path>
                <path d="M168.478,317.078 L196.644,300.816 C197.84,300.126 198.809,300.616 198.809,301.912 C198.809,303.207 197.84,304.817 196.644,305.507 L168.476,321.769 C167.281,322.46 166.312,321.969 166.312,320.674 C166.312,319.378 167.282,317.768 168.478,317.078" id="Fill-173" fill="#D4D5CF"></path>
                <path d="M166.312,329.21 L166.312,330.9 C166.312,331.728 166.893,332.064 167.611,331.65 L169.076,330.805 C169.793,330.391 170.375,329.383 170.375,328.555 L170.374,326.864 C170.374,326.035 169.792,325.7 169.075,326.114 L167.611,326.96 C166.893,327.374 166.312,328.381 166.312,329.21" id="Fill-174" fill="#00DFC0"></path>
                <path d="M174.436,325.364 C174.436,326.659 175.405,327.15 176.601,326.46 L196.643,314.888 C197.839,314.198 198.808,312.588 198.808,311.293 C198.808,309.998 197.839,309.507 196.643,310.198 L176.601,321.769 C175.405,322.459 174.436,324.069 174.436,325.364" id="Fill-175" fill="#D4D5CF"></path>
                <path d="M166.312,338.6 L166.312,340.29 C166.312,341.119 166.893,341.455 167.611,341.041 L169.076,340.195 C169.793,339.781 170.375,338.774 170.375,337.945 L170.374,336.254 C170.374,335.426 169.792,335.09 169.075,335.504 L167.611,336.35 C166.893,336.764 166.312,337.771 166.312,338.6" id="Fill-176" fill="#00DFC0"></path>
                <path d="M174.436,334.754 C174.436,336.05 175.405,336.54 176.601,335.85 L196.643,324.278 C197.839,323.588 198.808,321.978 198.808,320.683 C198.808,319.388 197.839,318.898 196.643,319.588 L176.601,331.159 C175.405,331.849 174.436,333.459 174.436,334.754" id="Fill-177" fill="#D4D5CF"></path>
                <path d="M166.312,347.974 L166.312,349.665 C166.312,350.493 166.893,350.829 167.611,350.415 L169.076,349.569 C169.793,349.155 170.375,348.148 170.375,347.319 L170.374,345.628 C170.374,344.8 169.792,344.464 169.075,344.879 L167.611,345.724 C166.893,346.138 166.312,347.146 166.312,347.974" id="Fill-178" fill="#00DFC0"></path>
                <path d="M174.436,344.129 C174.436,345.424 175.405,345.915 176.601,345.224 L196.643,333.653 C197.839,332.962 198.808,331.353 198.808,330.058 C198.808,328.762 197.839,328.272 196.643,328.962 L176.601,340.533 C175.405,341.224 174.436,342.833 174.436,344.129" id="Fill-179" fill="#D4D5CF"></path>
                <path d="M166.312,357.345 L166.312,359.035 C166.312,359.864 166.893,360.199 167.611,359.785 L169.076,358.94 C169.793,358.526 170.375,357.518 170.375,356.69 L170.374,354.999 C170.374,354.17 169.792,353.835 169.075,354.249 L167.611,355.095 C166.893,355.509 166.312,356.516 166.312,357.345" id="Fill-180" fill="#00DFC0"></path>
                <path d="M174.436,353.499 C174.436,354.794 175.405,355.285 176.601,354.595 L196.643,343.023 C197.839,342.333 198.808,340.723 198.808,339.428 C198.808,338.133 197.839,337.642 196.643,338.333 L176.601,349.904 C175.405,350.594 174.436,352.204 174.436,353.499" id="Fill-181" fill="#D4D5CF"></path>
                <path d="M312.717,217.545 L312.717,219.864 C312.717,221.245 313.684,221.801 314.878,221.107 L371.487,188.16 C372.68,187.466 373.648,185.783 373.648,184.403 L373.648,182.367 C373.648,180.986 372.679,180.426 371.483,181.117 L314.882,213.795 C313.686,214.485 312.717,216.164 312.717,217.545" id="Fill-182" fill="#04DEC1"></path>
                <path d="M314.882,227.867 L379.608,190.497 C380.803,189.807 381.773,190.297 381.773,191.593 C381.773,192.888 380.803,194.497 379.608,195.188 L314.883,232.557 C313.687,233.247 312.718,232.757 312.717,231.462 C312.717,230.167 313.686,228.557 314.882,227.867" id="Fill-183" fill="#DDDED8"></path>
                <path d="M314.882,237.242 L379.608,199.872 C380.803,199.182 381.773,199.672 381.773,200.968 C381.773,202.263 380.803,203.873 379.608,204.563 L314.883,241.932 C313.687,242.622 312.718,242.132 312.717,240.837 C312.717,239.542 313.686,237.932 314.882,237.242" id="Fill-184" fill="#DDDED8"></path>
                <path d="M314.882,246.617 L379.608,209.248 C380.803,208.557 381.773,209.048 381.773,210.343 C381.773,211.638 380.803,213.248 379.608,213.938 L314.883,251.307 C313.687,251.997 312.718,251.507 312.717,250.212 C312.717,248.917 313.686,247.307 314.882,246.617" id="Fill-185" fill="#DDDED8"></path>
                <path d="M314.882,255.992 L379.608,218.623 C380.803,217.932 381.773,218.423 381.773,219.718 C381.773,221.013 380.803,222.623 379.608,223.313 L314.883,260.682 C313.687,261.372 312.718,260.882 312.717,259.587 C312.717,258.292 313.686,256.683 314.882,255.992" id="Fill-186" fill="#DDDED8"></path>
                <path d="M314.882,265.367 L379.608,227.998 C380.803,227.308 381.773,227.798 381.773,229.093 C381.773,230.388 380.803,231.998 379.608,232.688 L314.883,270.057 C313.687,270.748 312.718,270.257 312.717,268.962 C312.717,267.667 313.686,266.058 314.882,265.367" id="Fill-187" fill="#DDDED8"></path>
                <path d="M314.882,274.743 L379.608,237.373 C380.803,236.683 381.773,237.173 381.773,238.468 C381.773,239.764 380.803,241.373 379.608,242.064 L314.883,279.432 C313.687,280.123 312.718,279.633 312.717,278.337 C312.717,277.042 313.686,275.433 314.882,274.743" id="Fill-188" fill="#DDDED8"></path>
                <path d="M314.882,284.118 L379.608,246.748 C380.803,246.058 381.773,246.548 381.773,247.844 C381.773,249.139 380.803,250.748 379.608,251.439 L314.883,288.808 C313.687,289.498 312.718,289.008 312.717,287.713 C312.717,286.418 313.686,284.808 314.882,284.118" id="Fill-189" fill="#DDDED8"></path>
                <path d="M314.882,293.493 L379.608,256.124 C380.803,255.433 381.773,255.923 381.773,257.219 C381.773,258.514 380.803,260.124 379.608,260.814 L314.883,298.183 C313.687,298.873 312.718,298.383 312.717,297.088 C312.717,295.793 313.686,294.183 314.882,293.493" id="Fill-190" fill="#DDDED8"></path>
                <path d="M217.393,270.08 L302.429,220.986 C303.625,220.296 304.594,220.855 304.594,222.236 L304.594,306.354 C304.594,307.735 303.625,309.414 302.429,310.104 L217.395,359.199 C216.199,359.889 215.23,359.33 215.23,357.949 L215.228,273.83 C215.228,272.449 216.197,270.77 217.393,270.08" id="Fill-191" fill="#00A798"></path>
                <path d="M216.428,359.495 C215.718,359.495 215.23,358.929 215.23,357.949 L215.228,273.83 C215.228,272.449 216.197,270.77 217.393,270.08 L302.429,220.986 C302.777,220.785 303.105,220.69 303.396,220.69 C304.107,220.69 304.594,221.256 304.594,222.236 L304.594,306.354 C304.594,307.735 303.625,309.414 302.429,310.104 L217.395,359.199 C217.048,359.4 216.719,359.495 216.428,359.495" id="Fill-192" fill="#C5F8F2"></path>
                <path d="M280.873,268.702 L266.666,293.848 L276.651,306.792 L243.662,278.366 L215.229,339.925 L215.23,357.949 C215.23,359.33 216.199,359.889 217.395,359.199 L302.429,310.104 C303.625,309.414 304.594,307.735 304.594,306.354 L304.594,290.392 L280.873,268.702" id="Fill-193" fill="#00DFC0"></path>
                <path d="M284.282,242.827 C287.818,240.784 290.686,242.439 290.686,246.524 C290.686,250.609 287.818,255.576 284.282,257.618 C280.745,259.661 277.877,258.006 277.877,253.921 C277.877,249.837 280.745,244.869 284.282,242.827" id="Fill-194" fill="#00DFC0"></path>
                <path d="M160.526,227.867 L379.607,101.378 C380.803,100.687 381.772,101.247 381.772,102.628 L381.772,125.771 C381.772,127.152 380.801,128.831 379.606,129.521 L160.526,256.008 C159.33,256.699 158.361,256.139 158.361,254.758 L158.361,231.617 C158.361,230.236 159.33,228.557 160.526,227.867" id="Fill-195" fill="#334F55"></path>
                <path d="M300.531,159.088 L300.531,163.123 C300.531,163.948 301.116,164.286 301.83,163.873 L365.523,127.1 L365.523,120.065 L301.83,156.838 C301.115,157.25 300.531,158.263 300.531,159.088" id="Fill-196" fill="#FAF9F6"></path>
                <path d="M372.349,116.124 C373.066,115.71 373.648,116.045 373.648,116.874 L373.648,120.91 C373.648,121.738 373.066,122.746 372.349,123.16 L365.523,127.1 L365.523,120.065 L372.349,116.124" id="Fill-197" fill="#1FDAB9"></path>
                <path d="M369.401,123.116 C369.189,123.239 369.006,123.257 368.856,123.17 C368.602,123.023 368.444,122.588 368.444,122.033 C368.444,120.97 369.012,119.744 369.683,119.356 C369.807,119.285 369.921,119.248 370.025,119.248 L370.228,119.302 C370.482,119.449 370.639,119.884 370.639,120.439 C370.639,121.502 370.072,122.729 369.401,123.116 Z M371.844,121.657 L371.082,121.42 C371.16,121.097 371.204,120.765 371.204,120.439 C371.204,119.66 370.951,119.068 370.51,118.813 C370.182,118.624 369.788,118.643 369.401,118.867 C368.548,119.36 367.88,120.75 367.88,122.033 C367.88,122.812 368.132,123.404 368.574,123.659 C368.723,123.745 368.886,123.788 369.056,123.788 C369.259,123.788 369.472,123.727 369.683,123.605 C370.196,123.309 370.639,122.686 370.913,121.959 L371.676,122.197 L371.76,122.21 C371.88,122.21 371.992,122.132 372.029,122.011 C372.076,121.862 371.993,121.704 371.844,121.657 L371.844,121.657 Z" id="Fill-198" fill="#FAF9F6"></path>
                <path d="M215.228,231.617 L215.228,259.449 C215.228,260.829 216.197,261.389 217.393,260.699 L379.607,167.046 C380.802,166.355 381.772,164.676 381.772,163.296 L381.772,135.463 C381.772,134.082 380.802,133.522 379.606,134.212 L217.393,227.867 C216.197,228.557 215.228,230.236 215.228,231.617" id="Fill-199" fill="#00A798"></path>
                <path d="M216.426,260.994008 C215.715,260.994008 215.228,260.428 215.228,259.449 L215.228,231.617 C215.228,230.236 216.197,228.557 217.393,227.867 L379.606,134.212 C379.954,134.012 380.282,133.917 380.573,133.917 C381.284,133.917 381.772,134.483 381.772,135.463 L381.772,163.296 C381.772,164.676 380.802,166.355 379.607,167.046 L217.393,260.699 C217.045,260.899 216.717,260.994008 216.426,260.994008" id="Fill-200" fill="#A5F5EC"></path>
                <path d="M389.882,71.997 L389.882,86.078 L150.238,224.433 L150.238,210.353 L154.689,207.775 C155.879,207.085 156.279,206.036 156.849,204.025 L158.358,198.783 C158.834,196.963 159.328,195.723 160.528,195.033 L212.179,165.21 C213.379,164.52 214.315,164.444 215.228,165.953 L217.08,169.313 C217.759,170.487 218.099,171.177 219.289,170.487 L389.882,71.997" id="Fill-201" fill="#DDDED8"></path>
                <path d="M379.731,67.683 C381.236,66.815 382.456,67.519 382.456,69.256 C382.456,70.994 381.236,73.106 379.731,73.975 C378.226,74.844 377.007,74.14 377.007,72.402 C377.007,70.665 378.226,68.552 379.731,67.683" id="Fill-202" fill="#FFFFFE"></path>
                <path d="M369.923,73.339 C371.427,72.47 372.647,73.174 372.647,74.911 C372.647,76.649 371.427,78.761 369.923,79.63 C368.418,80.499 367.198,79.795 367.198,78.057 C367.198,76.32 368.418,74.207 369.923,73.339" id="Fill-203" fill="#FFFFFE"></path>
                <path d="M360.114,78.994 C361.619,78.125 362.839,78.829 362.839,80.567 C362.839,82.304 361.619,84.417 360.114,85.285 C358.61,86.154 357.39,85.45 357.39,83.712 C357.39,81.975 358.61,79.862 360.114,78.994" id="Fill-204" fill="#FFFFFE"></path>
                <path d="M157.886,216.01 L157.706,216.01 L155.862,214.592 L155.857,214.585 L155.808,214.511 L155.793,214.485 L155.769,214.329 L155.793,214.146 L155.808,214.103 L155.857,213.972 L155.862,213.958 L157.706,210.412 C157.785,210.261 157.891,210.175 157.983,210.175 C158.023,210.175 158.061,210.192 158.092,210.229 C158.192,210.346 158.18,210.619 158.066,210.838 L156.77,213.33 L160.169,211.368 C160.203,211.348 160.236,211.339 160.265,211.339 C160.369,211.339 160.443,211.45 160.443,211.631 C160.443,211.864 160.32,212.123 160.169,212.21 L156.77,214.172 L158.066,215.168 C158.18,215.256 158.192,215.515 158.092,215.747 C158.038,215.874 157.962,215.966 157.886,216.01" id="Fill-205" fill="#829495"></path>
                <path d="M165.291,211.735 L165.086,211.71 C164.986,211.592 164.997,211.319 165.111,211.101 L166.407,208.608 L163.008,210.571 C162.974,210.59 162.942,210.6 162.912,210.6 C162.808,210.6 162.735,210.488 162.735,210.308 C162.735,210.075 162.857,209.816 163.008,209.729 L166.407,207.767 L165.111,206.77 C164.997,206.683 164.986,206.424 165.086,206.191 C165.163,206.01 165.284,205.9 165.387,205.9 C165.417,205.9 165.446,205.909 165.471,205.929 L167.315,207.346 L167.32,207.354 L167.37,207.428 L167.385,207.454 L167.409,207.609 L167.385,207.792 L167.37,207.836 L167.32,207.967 L167.315,207.98 L165.471,211.527 C165.419,211.627 165.355,211.698 165.291,211.735" id="Fill-206" fill="#829495"></path>
                <path d="M171.762,208.206 C171.483,208.206 171.221,208.104 170.997,207.888 C170.155,207.078 170.155,204.969 170.997,203.187 C171.614,201.881 172.512,201.116 173.281,201.116 C173.322,201.116 173.362,201.119 173.402,201.123 L173.868,199.985 C173.917,199.864 173.992,199.802 174.053,199.802 C174.106,199.802 174.148,199.847 174.158,199.941 L174.361,201.928 C174.375,202.068 174.303,202.245 174.206,202.308 L172.82,203.213 C172.796,203.229 172.774,203.236 172.753,203.236 C172.654,203.236 172.609,203.061 172.685,202.876 L173.036,202.018 C172.474,202.052 171.831,202.613 171.384,203.559 C170.755,204.89 170.755,206.465 171.384,207.07 C171.551,207.231 171.746,207.307 171.955,207.307 C172.529,207.307 173.202,206.728 173.663,205.753 C173.742,205.588 173.856,205.49 173.953,205.49 C173.988,205.49 174.021,205.503 174.05,205.53 C174.157,205.633 174.157,205.899 174.05,206.125 C173.629,207.016 173.076,207.659 172.524,207.978 C172.265,208.128 172.007,208.206 171.762,208.206" id="Fill-207" fill="#829495"></path>
                <path d="M208.523,175.744 C208.474,175.744 208.428,175.726 208.389,175.689 C208.243,175.548 208.243,175.182 208.389,174.872 L209.628,172.249 L208.389,171.057 C208.243,170.916 208.243,170.55 208.389,170.24 C208.497,170.013 208.653,169.879 208.786,169.879 C208.835,169.879 208.88,169.897 208.92,169.934 L210.158,171.126 L211.397,168.504 C211.505,168.276 211.661,168.142 211.794,168.142 C211.843,168.142 211.888,168.16 211.928,168.198 C212.074,168.338 212.074,168.704 211.928,169.014 L210.689,171.637 L211.928,172.829 C212.074,172.97 212.074,173.336 211.928,173.646 C211.854,173.801 211.758,173.912 211.662,173.968 C211.618,173.994 211.573,174.007 211.531,174.007 C211.482,174.007 211.436,173.989 211.397,173.952 L210.158,172.759 L208.92,175.382 C208.846,175.537 208.75,175.649 208.654,175.705 C208.61,175.73 208.565,175.744 208.523,175.744" id="Fill-208" fill="#829495"></path>
                <path d="M178.668,203.166 L178.668,198.784 C178.668,197.404 179.638,195.725 180.833,195.034 L375.535,82.682 C376.731,81.991 377.7,82.551 377.7,83.932 L377.7,88.313 C377.7,89.693 376.73,91.372 375.535,92.063 L180.833,204.416 C179.638,205.106 178.668,204.546 178.668,203.166" id="Fill-209" fill="#FAF9F6"></path>
                <path d="M374.273,84.997 L373.933,85.157 L374.565,86.5 L374.89,86.627 L375.025,86.68 L376.432,86.14 L376.362,85.956 L376.362,86.152 L376.433,86.14 L376.362,85.956 L376.362,86.152 L376.362,85.909 L376.156,86.043 L376.362,86.152 L376.362,85.909 L376.156,86.043 L376.281,85.961 L376.135,85.998 L376.156,86.043 L376.281,85.961 L376.135,85.998 L376.182,85.986 L376.134,85.992 L376.135,85.998 L376.182,85.986 L376.134,85.992 L376.134,85.994 L376.103,86.095 L375.184,87.822 C375.109,87.964 375.066,88.113 375.065,88.276 L375.072,88.382 L375.072,88.381 L375.289,89.944 L375.289,89.943 L375.29,89.948 L375.245,90.071 L375.228,90.092 L375.223,90.097 L375.321,90.218 L375.321,90.071 L375.223,90.097 L375.321,90.218 L375.321,90.071 L375.321,90.301 L375.349,90.073 L375.321,90.071 L375.321,90.301 L375.349,90.073 L374.212,89.932 L374.15,89.928 C373.899,89.937 373.754,90.069 373.642,90.206 L372.505,91.659 L372.491,91.674 L372.532,91.718 L372.507,91.665 L372.491,91.674 L372.532,91.718 L372.507,91.665 L372.589,91.841 L372.589,91.649 L372.507,91.665 L372.589,91.841 L372.589,91.649 L372.589,91.89 L372.784,91.746 L372.589,91.649 L372.589,91.89 L372.784,91.746 L372.646,91.847 L372.812,91.801 L372.784,91.746 L372.646,91.847 L372.812,91.801 L372.739,91.821 L372.814,91.812 L372.812,91.801 L372.739,91.821 L372.814,91.812 L372.814,91.81 L372.815,91.797 L372.815,91.792 L373.032,89.981 L373.032,89.981 L373.038,89.879 C373.036,89.722 373,89.53 372.809,89.383 L371.889,88.718 L371.768,88.886 L371.963,88.812 L371.889,88.718 L371.768,88.886 L371.963,88.812 L371.866,88.849 L371.969,88.832 L371.963,88.812 L371.866,88.849 L371.969,88.832 L371.992,88.743 L372.034,88.681 L373.306,87.7 C373.466,87.572 373.562,87.411 373.621,87.226 L374.19,85.361 L374.24,85.267 L374.244,85.263 L374.151,85.141 L374.151,85.286 L374.244,85.263 L374.151,85.141 L374.151,85.286 L374.151,85.034 L374.01,85.243 L374.151,85.286 L374.151,85.034 L374.01,85.243 L374.131,85.064 L373.933,85.157 L374.01,85.243 L374.131,85.064 L373.933,85.157 L374.273,84.997 L374.612,84.837 L374.43,84.622 C374.346,84.564 374.242,84.536 374.151,84.536 C373.942,84.542 373.809,84.639 373.704,84.743 C373.599,84.851 373.521,84.985 373.472,85.143 L372.904,87.007 L372.848,87.106 L371.577,88.087 C371.327,88.293 371.229,88.555 371.219,88.832 C371.221,88.977 371.254,89.177 371.449,89.326 L372.37,89.991 L372.491,89.822 L372.294,89.898 L372.369,89.991 L372.491,89.822 L372.294,89.898 L372.387,89.862 L372.289,89.878 L372.294,89.898 L372.387,89.862 L372.289,89.878 L372.288,89.879 L372.288,89.892 L372.07,91.706 L372.071,91.704 L372.064,91.81 C372.064,91.936 372.091,92.068 372.179,92.191 C372.264,92.314 372.433,92.403 372.589,92.399 C372.823,92.393 372.98,92.265 373.095,92.121 L374.233,90.667 L374.244,90.654 L374.15,90.519 L374.15,90.678 L374.244,90.654 L374.15,90.519 L374.15,90.678 L374.15,90.44 L374.12,90.676 L374.15,90.678 L374.15,90.44 L374.12,90.676 L375.258,90.817 L375.321,90.821 C375.467,90.82 375.579,90.764 375.663,90.705 C375.902,90.516 376.027,90.265 376.04,89.948 L376.032,89.841 L375.815,88.278 L375.815,88.276 L375.845,88.174 L376.766,86.447 C376.844,86.299 376.883,86.147 376.884,85.994 C376.883,85.878 376.863,85.757 376.785,85.634 C376.713,85.511 376.537,85.396 376.362,85.402 L376.164,85.44 L375.028,85.875 L374.978,85.856 L374.841,86.205 L375.18,86.045 L374.612,84.837 L374.273,84.997" id="Fill-210" fill="#D4D5CF"></path>
                <path d="M380.253,82.147 C379.993,82.147 379.742,82.013 379.603,81.772 C379.396,81.414 379.519,80.955 379.877,80.748 L385.97,77.23 C386.089,77.162 386.218,77.129 386.345,77.129 C386.604,77.129 386.856,77.264 386.994,77.504 C387.201,77.863 387.078,78.322 386.72,78.529 L380.627,82.047 C380.509,82.115 380.38,82.147 380.253,82.147" id="Fill-211" fill="#829495"></path>
                <path d="M380.253,85.666 C379.993,85.666 379.742,85.532 379.603,85.291 C379.396,84.933 379.519,84.474 379.877,84.267 L385.97,80.749 C386.089,80.68 386.218,80.648 386.345,80.648 C386.604,80.648 386.856,80.783 386.994,81.023 C387.201,81.382 387.078,81.841 386.72,82.048 L380.627,85.566 C380.509,85.634 380.38,85.666 380.253,85.666" id="Fill-212" fill="#829495"></path>
                <path d="M380.253,89.185 C379.993,89.185 379.742,89.051 379.603,88.81 C379.396,88.452 379.519,87.993 379.877,87.786 L385.97,84.268 C386.089,84.199 386.218,84.167 386.345,84.167 C386.604,84.167 386.856,84.302 386.994,84.542 C387.201,84.901 387.078,85.36 386.72,85.567 L380.627,89.085 C380.509,89.153 380.38,89.185 380.253,89.185" id="Fill-213" fill="#829495"></path>
                <polyline id="Fill-214" fill="#D4D5CF" points="150.238 210.353 150.238 224.433 146.168 222.083 146.168 208.013 150.238 210.353"></polyline>
            </g>
        </g>
    </g>
</svg>