<?xml version="1.0" encoding="UTF-8"?>
<svg width="72px" height="58px" viewBox="0 0 72 58" version="1.1" xmlns="http://www.w3.org/2000/svg" xmlns:xlink="http://www.w3.org/1999/xlink">
    <title>39E4C2D8-6AD6-473E-9B6A-DB940761DD4E</title>
    <defs>
        <linearGradient x1="14.8591797%" y1="19.271423%" x2="102.242188%" y2="75.7571837%" id="linearGradient-1">
            <stop stop-color="#9013FE" offset="0%"></stop>
            <stop stop-color="#6610F2" offset="100%"></stop>
        </linearGradient>
        <linearGradient x1="27.0631085%" y1="6.58202765%" x2="61.3540922%" y2="84.5230415%" id="linearGradient-2">
            <stop stop-color="#FFFFFF" offset="0%"></stop>
            <stop stop-color="#F1E5FC" offset="100%"></stop>
        </linearGradient>
    </defs>
    <g id="Page-1" stroke="none" stroke-width="1" fill="none" fill-rule="evenodd">
        <g id="Landing" transform="translate(-825.000000, -4373.000000)" fill-rule="nonzero">
            <g id="Bootstrap_logo" transform="translate(825.000000, 4373.000000)">
                <path d="M7.94264063,7.57980392 C7.80679687,3.63637255 10.846125,0 14.9543437,0 L57.0508594,0 C61.1590781,0 64.1984063,3.63637255 64.0625625,7.57980392 C63.9320625,11.3678578 64.1015156,16.2748284 65.323125,20.2758333 C66.5486719,24.2892059 68.6152969,26.8259951 72,27.1519608 L72,30.8480392 C68.6152969,31.1740049 66.5486719,33.7107941 65.323125,37.7241667 C64.1015156,41.7251716 63.9320625,46.6321422 64.0625625,50.4203382 C64.1984063,54.3636275 61.1590781,58 57.0508594,58 L14.9543437,58 C10.846125,58 7.80679687,54.3636275 7.94278125,50.4203382 C8.07314063,46.6321422 7.9036875,41.7251716 6.6819375,37.7241667 C5.45653125,33.7107941 3.38484375,31.1740049 0,30.8480392 L0,27.1519608 C3.38470312,26.8259951 5.45653125,24.2892059 6.6819375,20.2758333 C7.9036875,16.2748284 8.07314063,11.3678578 7.94264063,7.57980392 Z" id="Path" fill="url(#linearGradient-1)"></path>
                <path d="M37.5613594,44.4179069 C44.2125,44.4179069 48.2204531,41.1258382 48.2204531,35.6958725 C48.2204531,31.5913775 45.3607031,28.6198725 41.1143906,28.1494755 L41.1143906,27.9784608 C44.2341562,27.4654167 46.6822969,24.536701 46.6822969,21.2659559 C46.6822969,16.6056275 43.0426406,13.5698676 37.4963906,13.5698676 L25.0173281,13.5698676 L25.0173281,44.4179069 L37.5613594,44.4179069 Z M29.8702969,17.4820245 L36.3265312,17.4820245 C39.83625,17.4820245 41.8293281,19.0639461 41.8293281,21.928549 C41.8293281,24.9856324 39.5112656,26.6957794 35.3082656,26.6957794 L29.8702969,26.6957794 L29.8702969,17.4820245 L29.8702969,17.4820245 Z M29.8702969,40.5058922 L29.8702969,30.3514853 L36.2830781,30.3514853 C40.8760312,30.3514853 43.2592031,32.0616324 43.2592031,35.3966324 C43.2592031,38.7314902 40.9411406,40.5058922 36.56475,40.5058922 L29.8702969,40.5058922 L29.8702969,40.5058922 Z" id="Shape" stroke="#FFFFFF" fill="url(#linearGradient-2)"></path>
            </g>
        </g>
    </g>
</svg>