<?xml version="1.0" encoding="UTF-8"?>
<svg width="48px" height="58px" viewBox="0 0 48 58" version="1.1" xmlns="http://www.w3.org/2000/svg" xmlns:xlink="http://www.w3.org/1999/xlink">
    <title>94125885-8C9E-4B51-B2FC-81F18427C420</title>
    <g id="Page-1" stroke="none" stroke-width="1" fill="none" fill-rule="evenodd">
        <g id="Landing" transform="translate(-930.000000, -4373.000000)" fill="#FC490B" fill-rule="nonzero">
            <g id="html-5" transform="translate(930.000000, 4373.000000)">
                <path d="M0.0052183643,1.92003059 L3.5685663,50.0776361 C3.62206015,50.8007871 4.08542058,51.4174626 4.73999306,51.6366924 L23.4904091,57.9167368 C23.821995,58.0277544 24.1779884,58.0277544 24.5095744,57.9167368 L43.2599904,51.6366924 C43.9145628,51.4174626 44.3779233,50.8007871 44.4314171,50.0776361 L47.9947651,1.92003059 C48.0714016,0.884667587 47.2968158,0 46.3138189,0 L1.68629102,0 C0.703294121,0 -0.0712917503,0.884667587 0.0052183643,1.92003059 Z M38.8568016,16.8617215 L15.6337688,16.8617215 L16.3346267,23.6891055 L38.3517084,23.6891055 L36.9114213,43.1529948 L24.0000549,47.4773386 L11.0886886,43.1529948 L10.3362337,32.9842605 L17.1131329,32.9842605 L17.1131329,37.9721719 L24.18115,39.9761003 L31.2069283,37.9721719 L31.7519839,30.0228551 L10.1170733,30.0228551 L8.68070658,10.6099993 L39.3192768,10.6099993 L38.8568016,16.8617215 Z" id="Shape"></path>
            </g>
        </g>
    </g>
</svg>