<?xml version="1.0" encoding="UTF-8"?>
<svg width="55px" height="55px" viewBox="0 0 55 55" version="1.1" xmlns="http://www.w3.org/2000/svg" xmlns:xlink="http://www.w3.org/1999/xlink">
    <title>80D801C1-F40B-4254-8378-147A15FB3B8C</title>
    <g id="Page-1" stroke="none" stroke-width="1" fill="none" fill-rule="evenodd">
        <g id="Landing" transform="translate(-1111.000000, -4375.000000)" fill-rule="nonzero">
            <g id="js" transform="translate(1111.000000, 4375.000000)">
                <path d="M4,0 L51,0 C53.209139,-4.33003142e-15 55,1.790861 55,4 L55,51 C55,53.209139 53.209139,55 51,55 L4,55 C1.790861,55 2.705415e-16,53.209139 0,51 L0,4 C-2.705415e-16,1.790861 1.790861,4.05812251e-16 4,0 Z" id="Path" fill="#FFDF00"></path>
                <path d="M36.9460352,42.9689648 C38.053877,44.7778418 39.4952637,46.1074023 42.0444922,46.1074023 C44.1859473,46.1074023 45.5539648,45.0370508 45.5539648,43.5581738 C45.5539648,41.7859277 44.148457,41.1582617 41.7912988,40.1272266 L40.4992285,39.5728223 C36.7696484,37.9839453 34.2920703,35.993418 34.2920703,31.7854883 C34.2920703,27.9092773 37.2455273,24.9585059 41.861123,24.9585059 C45.1471582,24.9585059 47.5095801,26.1021191 49.2118945,29.0966113 L45.187334,31.680752 C44.3012109,30.091875 43.3452637,29.4659277 41.861123,29.4659277 C40.347334,29.4659277 39.3878418,30.4262793 39.3878418,31.680752 C39.3878418,33.2312793 40.3481934,33.8589453 42.5655957,34.8192969 L43.857666,35.3727344 C48.2489648,37.2558398 50.7282617,39.1755762 50.7282617,43.4917871 C50.7282617,48.1449805 47.0729102,50.694209 42.1639453,50.694209 C37.3641211,50.694209 34.2631738,48.406875 32.7458398,45.4089453 L36.9460352,42.9689648 Z M18.6886133,43.4168066 C19.5005078,44.857334 20.2391406,46.0751758 22.0148242,46.0751758 C23.7128418,46.0751758 24.7840527,45.4107715 24.7840527,42.8275977 L24.7840527,25.2537012 L29.952334,25.2537012 L29.952334,42.8973145 C29.952334,48.2488574 26.8147559,50.6846484 22.2348242,50.6846484 C18.0967188,50.6846484 15.7003516,48.5430859 14.481543,45.9637793 L18.6886133,43.4168066 Z" id="Shape" fill="#000000"></path>
            </g>
        </g>
    </g>
</svg>