<?xml version="1.0" encoding="UTF-8"?>
<svg width="62px" height="59px" viewBox="0 0 62 59" version="1.1" xmlns="http://www.w3.org/2000/svg" xmlns:xlink="http://www.w3.org/1999/xlink">
    <title>72013926-ADBB-448F-B43E-0354822AE1F9</title>
    <g id="Page-1" stroke="none" stroke-width="1" fill="none" fill-rule="evenodd">
        <g id="Landing" transform="translate(-923.000000, -4457.000000)" fill-rule="nonzero">
            <g id="photoshop" transform="translate(925.000000, 4459.000000)">
                <path d="M10.2708711,0 L47.7292422,0 C53.4083711,0 58,4.46576629 58,9.98933295 L58,45.010667 C58,50.5341235 53.4083711,55 47.7291289,55 L10.2708711,55 C4.59162891,55 0,50.5341235 0,45.0105569 L0,9.98933295 C0,4.46576629 4.59162891,0 10.2708711,0 Z" id="Path" stroke="#00A9FF" stroke-width="3" fill="#001834"></path>
                <g id="Group" transform="translate(13.050000, 13.984978)" fill="#00A9FF">
                    <path d="M0,24.5854576 L0,0.399608575 C0,0.235115715 0.0725,0.141025359 0.241628906,0.141025359 C0.6525,0.141025359 1.03912891,0.141025359 1.595,0.117557857 C2.175,0.0940903564 2.77912891,0.0940903564 3.43162891,0.0705126793 C4.08412891,0.0469350021 4.785,0.0470451782 5.53412891,0.0234675011 C6.28325781,0 7.00825781,0 7.73325781,0 C9.71488672,0 11.3582578,0.235005539 12.7116289,0.728594294 C13.92,1.12820287 15.0316289,1.78628448 15.95,2.65590413 C16.7233711,3.40807611 17.3275,4.32474094 17.7141289,5.33538595 C18.0766289,6.32256346 18.27,7.33320847 18.27,8.39089866 C18.27,10.4122989 17.7866289,12.0810255 16.82,13.3972989 C15.8533711,14.7135723 14.5,15.7007498 12.9291289,16.2648512 C11.2857578,16.8524202 9.47325781,17.0639582 7.49162891,17.0639582 C6.91162891,17.0639582 6.525,17.0639582 6.28325781,17.0404907 C6.04162891,17.0170232 5.70325781,17.0170232 5.24412891,17.0170232 L5.24412891,24.5618799 C5.26825781,24.7263727 5.1475,24.8673981 4.97825781,24.8909758 C4.95412891,24.8909758 4.92988672,24.8909758 4.88162891,24.8909758 L0.29,24.8909758 C0.0966289063,24.8909758 0,24.7969956 0,24.5854576 L0,24.5854576 Z M5.26837109,4.67741451 L5.26837109,12.5748346 C5.60674219,12.5983021 5.92087109,12.6218798 6.21087109,12.6218798 L7.49174219,12.6218798 C9.16048828,12.6218798 11.0877422,12.2404502 12.2525,10.9531531 C13.2549258,9.84522267 13.2577578,7.64809165 12.4458711,6.44034167 C11.4820742,5.00662058 9.55470703,4.59125683 7.9025,4.63047951 C7.27412891,4.63047951 6.71837109,4.63047951 6.25912891,4.65394701 C5.77587109,4.63036933 5.4375,4.65383683 5.26837109,4.67741451 L5.26837109,4.67741451 Z" id="Shape"></path>
                    <path d="M33.35,11.1410033 C32.625,10.7649724 31.8516289,10.5063892 31.03,10.3418964 C30.1358711,10.1538258 29.2416289,10.0363781 28.3233711,10.0363781 C27.84,10.0129106 27.3325,10.0834233 26.8733711,10.200871 C26.5592422,10.2713837 26.2933711,10.4358765 26.1242422,10.6709922 C26.0033711,10.8590628 25.9308711,11.0940683 25.9308711,11.3056064 C25.9308711,11.5171444 26.0275,11.7286824 26.1725,11.916753 C26.39,12.1753362 26.68,12.3868742 26.9941289,12.5513671 C27.55,12.8334178 28.13,13.092001 28.71,13.3270066 C30.015,13.7500826 31.2716289,14.3376516 32.4316289,15.0427784 C33.2291289,15.5363671 33.8816289,16.1944487 34.3407578,16.9936659 C34.7273867,17.7458378 34.9207578,18.5684123 34.8966289,19.4145645 C34.9207578,20.5192998 34.5825,21.623925 33.9541289,22.5405899 C33.2775,23.4807222 32.335,24.2094267 31.2475,24.6325027 C30.0633711,25.1260915 28.6133711,25.3846747 26.8733711,25.3846747 C25.7617422,25.3846747 24.6742422,25.2906945 23.5867422,25.0791565 C22.7408711,24.9381311 21.8951133,24.6795479 21.1217422,24.3269845 C20.9526133,24.2330043 20.8317422,24.0684013 20.8558711,23.8804409 L20.8558711,19.7907055 C20.8558711,19.7201929 20.88,19.6262127 20.9525,19.5791675 C21.025,19.5321223 21.0975,19.5557 21.17,19.602635 C22.1125,20.1432689 23.1033711,20.5192998 24.1666289,20.7543054 C25.085,20.9893109 26.0516289,21.1068688 27.0182578,21.1068688 C27.9366289,21.1068688 28.5891289,20.9893109 29.0241289,20.7777729 C29.4107578,20.61328 29.6766289,20.2136714 29.6766289,19.7905954 C29.6766289,19.4614995 29.4832578,19.1559813 29.0966289,18.850463 C28.71,18.5449448 27.9125,18.1923814 26.7282578,17.7457277 C25.4957578,17.3226516 24.3598867,16.7585502 23.2966289,16.0534234 C22.5475,15.5363671 21.9191289,14.8547078 21.46,14.0556009 C21.0733711,13.3034289 20.88,12.4808544 20.9041289,11.6581698 C20.9041289,10.6475247 21.1941289,9.68381474 21.7257578,8.81419508 C22.3298867,7.87406275 23.2241289,7.12189078 24.2632578,6.65176953 C25.3991289,6.08766809 26.8248867,5.82908488 28.5407578,5.82908488 C29.5316289,5.82908488 30.5466289,5.89959756 31.5373867,6.04062292 C32.2623867,6.1346031 32.9632578,6.32267363 33.6157578,6.58125685 C33.7123867,6.60472435 33.8091289,6.69881471 33.8573867,6.79279489 C33.8815156,6.88677507 33.9057578,6.98086542 33.9057578,7.0748456 L33.9057578,10.9059978 C33.9057578,10.999978 33.8573867,11.0940683 33.7848867,11.1410033 C33.5675,11.1880485 33.4466289,11.1880485 33.35,11.1410033 L33.35,11.1410033 Z" id="Path"></path>
                </g>
            </g>
        </g>
    </g>
</svg>