<?xml version="1.0" encoding="UTF-8"?>
<svg width="55px" height="55px" viewBox="0 0 55 55" version="1.1" xmlns="http://www.w3.org/2000/svg" xmlns:xlink="http://www.w3.org/1999/xlink">
    <title>02D6CAC7-485A-4E4F-859D-192CB2732B22</title>
    <g id="Page-1" stroke="none" stroke-width="1" fill="none" fill-rule="evenodd">
        <g id="Landing" transform="translate(-1111.000000, -4456.000000)">
            <g id="typescript" transform="translate(1111.000000, 4456.000000)">
                <path d="M5.37109375,0 L49.6289062,0 C52.5952539,0 55,2.40474609 55,5.37109375 L55,49.6289062 C55,52.5952539 52.5952539,55 49.6289062,55 L5.37109375,55 C2.40474609,55 0,52.5952539 0,49.6289062 L0,5.37109375 C0,2.40474609 2.40474609,0 5.37109375,0 Z" id="Path" fill="#3178C6" fill-rule="nonzero"></path>
                <path d="M5.37109375,0 L49.6289062,0 C52.5952539,0 55,2.40474609 55,5.37109375 L55,49.6289062 C55,52.5952539 52.5952539,55 49.6289062,55 L5.37109375,55 C2.40474609,55 0,52.5952539 0,49.6289062 L0,5.37109375 C0,2.40474609 2.40474609,0 5.37109375,0 Z" id="Path" fill="#3178C6" fill-rule="nonzero"></path>
                <path d="M34.0461816,43.76625 L34.0461816,49.1438965 C34.9203809,49.5920605 35.9543164,49.9280762 37.1479883,50.1521582 C38.3416602,50.3762402 39.5996777,50.4882812 40.9222559,50.4882812 C43.2016406,50.4882812 45.6969434,50.1622559 47.6470801,48.9001562 C49.5875488,47.6442871 50.4882812,45.5550391 50.4882812,43.2957422 C50.4882812,41.6159863 49.9671777,39.9996094 48.7902637,38.7753223 C47.0254297,36.939375 44.5453809,36.194834 42.3175586,35.1033203 C41.2015527,34.556543 39.6613379,33.7076953 39.6613379,32.2715723 C39.6613379,31.9019336 39.7566211,31.5687109 39.9471875,31.2717969 C40.7133203,30.0780176 42.4149902,29.8349219 43.7130762,29.8349219 C45.186582,29.8349219 46.7411914,30.1648145 48.1094238,30.7759375 C48.5857324,30.9888477 49.025625,31.2352734 49.4291016,31.5154297 L49.4291016,26.4906641 C48.6109766,26.1769922 47.7171191,25.9445312 46.7476367,25.7932812 C45.7781543,25.6420313 44.6656934,25.5664062 43.4104688,25.5664062 C42.1326855,25.5664062 40.9222559,25.7036914 39.7790723,25.9781543 C38.6358887,26.2526172 37.6299902,26.681123 36.7612695,27.2636719 C35.8926563,27.8463281 35.2062305,28.5885059 34.7018848,29.4904199 C34.1975391,30.3922266 33.9453125,31.4705273 33.9453125,32.7253223 C33.9453125,34.3274121 34.4076563,35.694248 35.3323437,36.8258301 C36.2569238,37.9573047 37.6607129,38.9151855 39.5437109,39.6994727 C40.8104297,40.2174609 42.1275293,40.7286816 43.2674902,41.4976074 C44.0575781,42.0304199 44.7721484,42.773457 44.7721484,43.7830078 C44.7721484,44.5157324 44.3579297,45.1369531 43.7550781,45.5223828 C42.8631543,46.0925781 41.7209375,46.2197656 40.6867871,46.2197656 C39.5211523,46.2197656 38.3667969,46.0153418 37.2235059,45.6063867 C36.0804297,45.1975391 35.02125,44.5841602 34.0461816,43.76625 L34.0461816,43.76625 Z M25.0056641,30.5166211 L31.9042969,30.5166211 L31.9042969,26.1035156 L12.6757812,26.1035156 L12.6757812,30.5166211 L19.5406836,30.5166211 L19.5406836,50.1660156 L25.0056641,50.1660156 L25.0056641,30.5166211 Z" id="Shape" fill="#FFFFFF"></path>
            </g>
        </g>
    </g>
</svg>