<?xml version="1.0" encoding="UTF-8"?>
<svg width="58px" height="60px" viewBox="0 0 58 60" version="1.1" xmlns="http://www.w3.org/2000/svg" xmlns:xlink="http://www.w3.org/1999/xlink">
    <title>456F88AF-D786-4E41-A4E0-A2BEE50EE641</title>
    <g id="Page-1" stroke="none" stroke-width="1" fill="none" fill-rule="evenodd">
        <g id="Landing" transform="translate(-732.000000, -4373.000000)" fill-rule="nonzero">
            <g id="Group-13" transform="translate(732.000000, 4373.000000)">
                <g id="Group-15" transform="translate(9.000000, 0.000000)" fill="#0868AC">
                    <path d="M2.41320065,8.68997406 C-0.951195216,13.5774253 -0.532371323,19.9360076 2.03773649,25.1290266 C2.09884054,25.2535301 2.16289121,25.3760346 2.22596102,25.4985473 C2.26637413,25.5762366 2.30430482,25.6559167 2.34618721,25.7326105 C2.36984898,25.7784049 2.39644123,25.8232446 2.42108387,25.8670725 C2.46492798,25.949739 2.50977314,26.0284278 2.55510267,26.1091034 C2.63492786,26.251533 2.71672284,26.3929672 2.80048358,26.5344095 C2.84680205,26.6120947 2.89262807,26.689784 2.94042388,26.7674733 C3.03305678,26.9188659 3.12815596,27.0682677 3.2252209,27.2176654 C3.26563401,27.2814104 3.30504205,27.3451553 3.34643199,27.4069053 C3.48045886,27.6090981 3.6174364,27.8102914 3.7588379,28.0084942 C3.76234963,28.0135938 3.76620445,28.0194686 3.77064457,28.024405 C3.79284514,28.0562672 3.81746759,28.0871545 3.84012025,28.119029 C3.96232027,28.2893432 4.08845989,28.4576706 4.21607685,28.6240112 C4.26289988,28.6847657 4.3101871,28.7455243 4.35749047,28.8062789 C4.47131482,28.9507035 4.58710493,29.0941326 4.70486888,29.2375414 C4.74871299,29.2913278 4.7930657,29.3451061 4.83741033,29.3978971 C4.99557932,29.5861456 5.15669897,29.7733945 5.32126172,29.9566494 C5.32428907,29.9595052 5.32817619,29.9636257 5.33109859,29.9666039 C5.33801306,29.9745592 5.34391438,29.9795364 5.34981569,29.9874918 C5.51044693,30.1647823 5.67501775,30.3380869 5.84157856,30.5114037 C5.89330993,30.5651902 5.94603831,30.6189766 5.99925106,30.6717676 C6.12834537,30.8032392 6.25940948,30.9327241 6.39195901,31.0612053 C6.44566421,31.1129968 6.498881,31.1657878 6.55259024,31.2155884 C6.72947633,31.3839158 6.90834029,31.5492528 7.09065139,31.7106162 C7.09367874,31.713472 7.09604815,31.7157158 7.09902706,31.7175924 C7.13005943,31.7454974 7.16209687,31.7713789 7.1926489,31.798268 C7.35328013,31.9387068 7.51686606,32.0781501 7.68142478,32.2156188 C7.74843418,32.2704007 7.81643655,32.3241871 7.8839384,32.378965 C8.01845369,32.4875292 8.15444632,32.5951021 8.29141982,32.70068 C8.36385423,32.7564573 8.43628461,32.8122306 8.50921147,32.868012 C8.6604781,32.980558 8.81273366,33.0911172 8.96646254,33.1996855 C9.02262998,33.2405312 9.07683571,33.2803611 9.13300316,33.3192037 C9.14874538,33.330178 9.16307484,33.3411115 9.17881707,33.3520859 C9.32467079,33.453678 9.47396359,33.5512842 9.62278815,33.6488986 C9.68684286,33.6917352 9.75040512,33.7365423 9.81495631,33.7783753 C10.0435818,33.9247907 10.2756787,34.0692153 10.5101975,34.2086586 C10.5737557,34.2455389 10.6383069,34.2813666 10.7023576,34.3182224 C10.8748157,34.418819 11.0482587,34.5174248 11.2241518,34.6140397 C11.319251,34.6658312 11.4168124,34.7146363 11.5128965,34.7644369 C11.6370623,34.8301727 11.7602472,34.896904 11.8863868,34.9606489 C11.9149448,34.9746422 11.9445321,34.9885539 11.9726138,35.0024656 C12.0233684,35.0273516 12.0746113,35.0512707 12.1253618,35.0771685 C12.3209731,35.1717925 12.5180698,35.2644215 12.7171484,35.3540643 C12.7595313,35.3729939 12.8004207,35.3919236 12.8423031,35.410837 C13.0704362,35.5114296 13.3005229,35.6080445 13.5326198,35.7006776 C13.5882988,35.7235645 13.6444703,35.745501 13.7006418,35.7674047 C13.9154707,35.8510748 14.1332704,35.9337453 14.352047,36.0114305 C14.3796483,36.0213849 14.4062527,36.0303602 14.4338419,36.0402738 C14.6738059,36.1249393 14.9162402,36.20362 15.1601236,36.2803138 C15.2182649,36.2972444 15.2768986,36.3161741 15.3355323,36.3331048 C15.583872,36.4088032 15.8292731,36.4994372 16.0854677,36.547247 C32.3564691,39.5462572 37.0827692,26.664641 37.0827692,26.664641 C33.1133068,31.8915212 26.0672487,33.2700436 19.3913348,31.7352697 C19.1385631,31.6775015 18.8931943,31.5978213 18.6463239,31.5241138 C18.5837425,31.5051841 18.5221541,31.4862952 18.4605616,31.4673411 C18.2196168,31.3926422 17.9806256,31.3139575 17.7431602,31.231287 C17.7106182,31.2193743 17.6776241,31.2073801 17.6446098,31.1954266 C17.4317508,31.1197282 17.2213458,31.0400481 17.0119339,30.9583771 C16.9528037,30.9344702 16.8936735,30.9115628 16.8345513,30.88766 C16.6049369,30.7960264 16.3768159,30.7004069 16.1516213,30.6008098 C16.1053029,30.5808602 16.0609582,30.55996 16.0151322,30.5400471 C15.8214867,30.4514039 15.629815,30.3617653 15.4391283,30.2691322 C15.3839457,30.2422471 15.3287551,30.2163453 15.2725836,30.1884566 C15.1228307,30.1146145 14.9746923,30.0358767 14.8269576,29.9591788 C14.7280641,29.906551 14.6275561,29.856779 14.5294699,29.8017034 C14.3490398,29.7041991 14.1718389,29.6026152 13.9954452,29.4989914 C13.9357055,29.4651301 13.8751585,29.4324927 13.8150151,29.3974075 C13.5804963,29.2578826 13.3488031,29.1134621 13.1195317,28.9670018 C13.0561592,28.926205 12.9944012,28.8825525 12.931836,28.8405318 C12.7655335,28.7320124 12.6000383,28.6214532 12.436965,28.5080383 C12.3828764,28.4709132 12.3308059,28.4313404 12.2775246,28.3946233 C12.1201023,28.2820242 11.9642947,28.1682013 11.8096979,28.0527465 C11.7394634,28.0001187 11.6704398,27.9470829 11.6022235,27.8944551 C11.4605435,27.7847118 11.3196708,27.6741526 11.180009,27.5607376 C11.1169392,27.5099456 11.0538694,27.4591455 10.9917844,27.4083454 C10.8144019,27.2609386 10.6389891,27.1125281 10.4660345,26.9601522 C10.447822,26.9442415 10.4280917,26.92829 10.4083857,26.9113471 C10.2211501,26.7450146 10.0373576,26.5746923 9.85555107,26.4033867 C9.80282673,26.3525947 9.75157973,26.302786 9.69984432,26.2519899 C9.56532904,26.1225092 9.43278758,25.992033 9.3027003,25.8585664 C9.25047244,25.8057754 9.19824055,25.7539839 9.14699759,25.7011929 C8.98144187,25.5298833 8.8188368,25.3565705 8.65967484,25.1803 C8.65180373,25.1713247 8.64342806,25.1633693 8.63555695,25.154394 C8.46703846,24.9681364 8.30246763,24.7779012 8.14133184,24.5856873 C8.09748772,24.5329003 8.05510481,24.4821043 8.01174104,24.4303128 C7.89151485,24.2838973 7.77227355,24.135491 7.65598696,23.9860769 C7.6123931,23.9322252 7.56879925,23.8771496 7.52560905,23.821666 C7.38554362,23.6380806 7.24870736,23.4549032 7.11469663,23.26887 C3.40829086,18.1590764 2.07678124,11.1114369 5.03914492,5.32360124" id="Path"></path>
                    <path d="M12.8569555,4.57235755 C10.4238534,8.11119049 10.5558863,12.8483873 12.453898,16.5910817 C12.7722058,17.2185765 13.1299256,17.8271417 13.5300203,18.4068228 C13.8946385,18.9346921 14.2986849,19.5632069 14.7825362,19.9874931 C14.9579531,20.1827138 15.1412491,20.372949 15.3284685,20.560198 C15.3757436,20.6090031 15.4240561,20.6558174 15.4723484,20.7036271 C15.6541671,20.881913 15.8389404,21.0572126 16.0301075,21.2275391 C16.0379786,21.2334954 16.0448931,21.2414508 16.0527642,21.2474887 C16.0547824,21.2495285 16.0568007,21.2503444 16.058161,21.2525883 C16.2695427,21.4398413 16.4878026,21.6201222 16.7095661,21.7973881 C16.7588595,21.8352067 16.80762,21.8750815 16.8573856,21.9139241 C17.0796093,22.0862373 17.3062812,22.2555561 17.5388221,22.4169073 C17.5457366,22.4220069 17.5516379,22.4268617 17.5585524,22.4318389 C17.6610423,22.5035514 17.7655021,22.5702867 17.8694653,22.6390089 C17.9192148,22.6718911 17.9665383,22.7067397 18.0167964,22.7376146 C18.1828486,22.8451834 18.3508625,22.9497659 18.5218392,23.0503626 C18.5460056,23.0652942 18.5696229,23.0782675 18.5932847,23.0921792 C18.7406158,23.177832 18.8899086,23.2624935 19.039718,23.3441686 C19.0919459,23.3740318 19.1451587,23.3999459 19.1983754,23.4278345 C19.3018503,23.4826123 19.4053251,23.5383938 19.5107658,23.5911807 C19.526508,23.599136 19.5428032,23.6061123 19.5580409,23.6131293 C19.7723813,23.7196986 19.9886916,23.8222943 20.209446,23.9199005 C20.2567211,23.9408293 20.3055301,23.9597182 20.3533219,23.9796596 C20.5297196,24.055358 20.7080911,24.1290655 20.8874273,24.1987871 C20.9633089,24.2276713 21.0401713,24.2555599 21.1160528,24.2834445 C21.2786579,24.344199 21.4417514,24.3999804 21.6063222,24.4557537 C21.6807224,24.4796606 21.7536533,24.5045588 21.8280535,24.5274703 C22.0620959,24.6011737 22.2931756,24.6938027 22.5370994,24.7346403 C35.0997979,26.8382026 38,17.0624025 38,17.0624025 C35.3855798,20.8681686 30.3226384,22.6837874 24.9198263,21.2665081 C24.6798623,21.2027632 24.4433616,21.1330415 24.2083181,21.0583345 C24.1363802,21.0364267 24.0659156,21.0125402 23.9944701,20.988621 C23.827437,20.9338351 23.6613848,20.8760669 23.496814,20.8153082 C23.4214289,20.7874033 23.3460438,20.759535 23.272128,20.7306509 C23.0917867,20.6609292 22.9134152,20.5882213 22.7365291,20.5125229 C22.6882449,20.4915942 22.6394561,20.4727053 22.5921528,20.4507688 C22.3704255,20.3531585 22.1521374,20.250571 21.9368322,20.1429981 C21.8259666,20.0882203 21.7170708,20.0304521 21.608179,19.9736793 C21.5451092,19.940838 21.4815469,19.9079435 21.4184731,19.8750736 C21.2785368,19.7983798 21.1395895,19.7186996 21.0025958,19.638024 C20.9701022,19.6190943 20.9360788,19.6011438 20.9030646,19.5812472 C20.7330687,19.4806506 20.5655392,19.3770676 20.3994749,19.2704942 C20.3482319,19.237612 20.2989587,19.201768 20.2477117,19.1679026 C20.1383235,19.0961901 20.0289392,19.0234821 19.9215248,18.9497746 C19.6899365,18.7884194 19.4647581,18.6190965 19.2425506,18.4477705 C19.1913076,18.4069208 19.1400646,18.367095 19.0898066,18.3262574 C16.7248401,16.4389995 14.8503045,13.8602366 13.9590524,10.9359252 C13.0250138,7.9030944 13.2264335,4.49860517 14.8446535,1.7358489" id="Path"></path>
                    <path d="M21.6407129,1.49587423 C20.2063541,3.62934055 20.065441,6.27888582 21.0607532,8.63530641 C22.1102752,11.1363107 24.2610667,13.0984714 26.7711441,14.0286375 C26.874619,14.0675168 26.9780938,14.1023409 27.083046,14.1381971 C27.1288599,14.1521496 27.1741976,14.1681012 27.2205201,14.1820006 C27.3683395,14.2288149 27.5151741,14.2835968 27.6679221,14.3124809 C34.604592,15.6670555 36.4859896,10.7148598 36.9869152,9.98598498 C35.3387447,12.3843854 32.5690013,12.9600684 29.1706991,12.1264275 C28.902274,12.0603368 28.6072082,11.9624246 28.3484706,11.869816 C28.016673,11.7502815 27.6897191,11.6140203 27.3720491,11.4598086 C26.7685971,11.1668879 26.1934005,10.8111402 25.6601831,10.4039885 C22.6191083,8.072046 20.7300414,3.62315984 22.7143689,0" id="Path"></path>
                </g>
                <g id="Group-14" transform="translate(0.000000, 43.000000)">
                    <path d="M17.3131746,7.15864788 L17.3134328,7.15789474 C17.3134328,7.15789474 16.4477612,8.94736842 16.4477612,8.94736842 C16.4477612,8.94736842 17.3131229,7.15864788 17.3131229,7.15864788 L17.3131746,7.15864788 Z" id="Path" fill="#131B28"></path>
                    <path d="M19.0447761,10.7432053 C19.0447761,10.7432053 18.1791045,10.7410053 18.1791045,10.7410053 C18.1791045,10.7410053 19.0447761,10.7432053 19.0447761,10.7432053 Z" id="Path" fill="#131B28"></path>
                    <path d="M19.0441503,13.4222858 L19.0447761,13.4222858 C19.0447761,13.4222858 15.5820896,13.4303458 15.5820896,13.4303458 C15.5820896,13.4303458 19.0443067,13.4222858 19.0443067,13.4222858 L19.0441503,13.4222858 Z" id="Path" fill="#131B28"></path>
                    <path d="M19.9104478,10.7432053 C19.9104478,10.7432053 19.0447761,10.7410053 19.0447761,10.7410053 C19.0447761,10.7410053 19.9104478,10.7432053 19.9104478,10.7432053 Z" id="Path" fill="#131B28"></path>
                    <path d="M19.0447761,12.5259507 C19.0447761,12.5259507 19.9104478,10.7368421 19.9104478,10.7368421 C19.9104478,10.7368421 19.0447761,12.5263158 19.0447761,12.5263158 L19.0447761,12.5260724 L19.0447761,12.5259507 Z" id="Path" fill="#131B28"></path>
                    <path d="M30.2985075,3.57894737 C30.2985075,3.57894737 29.4328358,8.05263158 29.4328358,8.05263158 C29.4328358,8.05263158 30.2985075,3.57894737 30.2985075,3.57894737 Z" id="Path" fill="#131B28"></path>
                    <path d="M28.5671642,3.57923116 C28.5671642,3.57923116 27.7014925,7.15789474 27.7014925,7.15789474 C27.7014925,7.15789474 28.5671642,3.57894737 28.5671642,3.57894737 L28.5671642,3.57923116 L28.5671642,3.57923116 Z" id="Path" fill="#131B28"></path>
                    <path d="M30.1277456,2.68421053 L28.0482253,2.68421053 C27.9328401,2.68421053 27.8182809,2.77956814 27.7936479,2.89569939 C27.7936479,2.89569939 27.0553884,6.4140505 27.0553884,6.4140505 C27.0553884,6.4140505 26.3171154,9.9324016 26.3171154,9.9324016 C26.2926502,10.0485329 26.178255,10.1435557 26.0628765,10.1435557 L24.8010806,10.1435557 L24.5909754,10.1435557 C23.1347966,10.1435557 23.3032193,9.10619869 23.6014428,7.68467157 C23.604422,7.6703733 23.6074013,7.65640563 23.610367,7.64176141 C23.610367,7.64176141 23.6430968,7.46262152 23.6430968,7.46262152 C23.645074,7.4510434 23.6473897,7.43946111 23.6492043,7.42890549 C23.6492043,7.42890549 23.7156579,7.06415312 23.7156579,7.06415312 C23.7156579,7.06415312 23.7869055,6.67318957 23.7869055,6.67318957 C23.808562,6.55535368 23.841457,6.38302534 23.8629483,6.27473512 C23.8629483,6.27473512 24.1985208,4.58558622 24.1985208,4.58558622 C24.1985208,4.58558622 24.5344318,2.89643732 24.5344318,2.89643732 C24.5575752,2.7799643 24.4818629,2.68421053 24.3664831,2.68421053 L22.231982,2.68421053 C22.1165954,2.68421053 22.0023626,2.7799643 21.9787317,2.89610253 C21.9787317,2.89610253 21.5198316,5.13904787 21.5198316,5.13904787 C21.5198316,5.13904787 21.0609315,7.38171423 21.0609315,7.38171423 C21.0605252,7.38269069 21.0603898,7.3840996 21.0602544,7.38511791 C21.0602544,7.38511791 21.017605,7.59355183 21.017605,7.59355183 C20.4889496,10.0796375 20.6291371,12.4503606 23.5021686,12.5245721 C23.5491189,12.5259671 23.5854862,12.5263158 23.5854862,12.5263158 L28.0952664,12.5263158 C28.2106529,12.5263158 28.3248857,12.4309568 28.3490177,12.3144782 C28.3490177,12.3144782 29.3215279,7.60553448 29.3215279,7.60553448 C29.3215279,7.60553448 30.2940381,2.89617228 30.2940381,2.89617228 C30.3180089,2.77969787 30.2431226,2.68433468 30.1277415,2.68433468 L30.1277456,2.68421053 Z" id="Path" fill="#FFFFFF"></path>
                    <path d="M38.9284592,10.7368421 C38.9845033,10.7368421 39.0211425,10.806298 39.0099175,10.8911365 C39.0099175,10.8911365 38.9119403,11.6315789 38.9119403,11.6315789" id="Path" fill="#131B28"></path>
                    <path d="M38.9120207,12.5260214 C38.9120207,12.5260214 39.0119403,11.6315789 39.0119403,11.6315789 C39.0119403,11.6315789 38.9119403,12.5263158 38.9119403,12.5263158 C38.9119403,12.5260705 38.9120067,12.5260705 38.9120067,12.5260705 L38.9120207,12.5260214 Z" id="Path" fill="#131B28"></path>
                    <path d="M38.9541535,13.4195578 C38.9544593,13.4195578 38.9549181,13.4193578 38.9552239,13.4193578 C38.2642096,13.4230178 36.1876497,13.4332738 34.6268657,13.4332738 C36.5263522,13.4332738 38.9540006,13.4196018 38.9540006,13.4196018 L38.9541535,13.4195578 Z" id="Path" fill="#131B28"></path>
                    <path d="M33.7405944,9.38273678 C33.7400419,9.22507719 33.780196,8.95362859 33.8179104,8.95362859 C33.8179104,8.95362859 33.7331514,8.94736842 33.7331514,8.94736842 C33.6949525,10.6637617 33.7405966,9.38273678 33.7405966,9.38273678 L33.7405944,9.38273678 Z" id="Path" fill="#131B28"></path>
                    <path d="M34.6483531,13.4262158 C34.6385931,13.4262158 34.6285781,13.4262158 34.6188111,13.4264158 C34.6285711,13.4262158 34.6385881,13.4262158 34.6483531,13.4262158 Z" id="Path" fill="#131B28"></path>
                    <path d="M38.9399466,10.7368421 C38.9882788,10.7368421 39.0198762,10.8592293 39.0101958,11.0087221 C39.0101958,11.0087221 38.9257007,12.3134452 38.9257007,12.3134452 C38.9257007,12.3134452 38.9119403,12.5263158 38.9119403,12.5263158" id="Path" fill="#131B28"></path>
                    <path d="M35.5023687,13.4263158 L35.4961387,13.4263158 L35.5023687,13.4263158 Z" id="Path" fill="#131B28"></path>
                    <path d="M35.5101797,13.4263158 L35.4883277,13.4263158 L35.5101797,13.4263158 Z" id="Path" fill="#131B28"></path>
                    <path d="M35.5173207,13.4262158 C35.5051197,13.4262158 35.4931507,13.4262158 35.4811867,13.4264158 C35.4931497,13.4262158 35.5051137,13.4262158 35.5173207,13.4262158 Z" id="Path" fill="#131B28"></path>
                    <path d="M34.6494506,13.4263158 L34.6177136,13.4263158 L34.6494506,13.4263158 Z" id="Path" fill="#131B28"></path>
                    <path d="M35.5457617,13.4262158 C35.5146347,13.4262158 35.4835067,13.4264158 35.4527457,13.4264158 C35.4835067,13.4264158 35.5146347,13.4262158 35.5457617,13.4262158 Z" id="Path" fill="#131B28"></path>
                    <path d="M36.358209,13.4256908 C36.067837,13.4261908 35.7780491,13.4266908 35.4925373,13.4269408 C35.7780491,13.4267408 36.0681407,13.4262408 36.358209,13.4256908 Z" id="Path" fill="#131B28"></path>
                    <path d="M38.08942,13.4203343 L38.0895522,13.4203343 C37.6517637,13.4230243 36.5706832,13.4291243 35.4925373,13.4322973 C36.570128,13.4293773 37.6514729,13.4230273 38.08942,13.4203343 L38.08942,13.4203343 Z" id="Path" fill="#131B28"></path>
                    <path d="M38.9120363,12.525613 C38.9120363,12.525613 39.0119403,11.6315789 39.0119403,11.6315789 C39.0119403,11.6315789 38.9119403,12.5263158 38.9119403,12.5263158 C38.9119403,12.526023 38.9120203,12.526023 38.9120203,12.5255837 L38.9120363,12.525613 Z" id="Path" fill="#131B28"></path>
                    <path d="M34.6741091,13.4263158 L34.5930551,13.4263158 L34.6741091,13.4263158 Z" id="Path" fill="#131B28"></path>
                    <path d="M34.6835821,13.4263158 L34.5835821,13.4263158 L34.6835821,13.4263158 Z" id="Path" fill="#131B28"></path>
                    <path d="M34.6767951,13.4263158 L34.5903691,13.4263158 L34.6767951,13.4263158 Z" id="Path" fill="#131B28"></path>
                    <path d="M3.94199542,9.60367012 C3.94199542,9.60367012 4.32835821,8.05263158 4.32835821,8.05263158 C4.32835821,8.05263158 3.8866295,9.82560329 3.8866295,9.82560329 C3.8866295,9.82560329 3.46268657,11.6315789 3.46268657,11.6315789 C3.46268657,11.6315789 3.83422787,10.0484166 3.83422787,10.0484166 C3.86289893,9.92593967 3.91154255,9.72575537 3.9419938,9.60364079 L3.94199542,9.60367012 Z" id="Path" fill="#131B28"></path>
                    <path d="M7.60415905,2.68421053 L5.09241199,2.68421053 C4.96532629,2.68421053 4.83860102,2.79087521 4.81024259,2.92085689 C4.81024259,2.92085689 4.57207046,4.02612005 4.57207046,4.02612005 C4.57207046,4.02612005 4.33389834,5.13177469 4.33389834,5.13177469 C4.30589885,5.26176107 4.38680677,5.36842105 4.51389397,5.36842105 L7.04515234,5.36842105 C7.17205783,5.36842105 7.2982335,5.26175637 7.32550466,5.1313832 C7.32550466,5.1313832 7.55567863,4.02612005 7.55567863,4.02612005 C7.55567863,4.02612005 7.78585261,2.9216242 7.78585261,2.9216242 L7.78585261,2.92131101 C7.81294355,2.79094098 7.73130879,2.68427316 7.60421862,2.68427316 L7.60415905,2.68421053 Z" id="Path" fill="#FFFFFF"></path>
                    <path d="M6.92537313,6.2634707 L6.92537313,6.26315789 C6.92537313,6.26315789 6.05970149,9.84210526 6.05970149,9.84210526 C6.05970149,9.84210526 6.92537313,6.2634707 6.92537313,6.2634707 L6.92537313,6.2634707 Z" id="Path" fill="#131B28"></path>
                    <path d="M4.38507463,6.26315789 C4.38507463,6.26315789 4.28507463,8.05263158 4.28507463,8.05263158 C4.28507463,8.05263158 4.38507463,6.26315789 4.38507463,6.26315789 Z" id="Path" fill="#131B28"></path>
                    <path d="M6.75229808,6.26315789 L4.41025917,6.26315789 C4.29285409,6.26315789 4.175449,6.35759651 4.14954423,6.47301995 C4.14954423,6.47301995 3.82053992,7.93901811 3.82053992,7.93901811 C3.82053992,7.93901811 3.49188009,9.40501626 3.49188009,9.40501626 C3.4659767,9.5204397 3.42459797,9.70965384 3.40020891,9.82540586 C3.40020891,9.82540586 3.08415698,11.3217666 3.08415698,11.3217666 C3.08415698,11.3217666 2.7682704,12.8181273 2.7682704,12.8181273 C2.74371323,12.9335493 2.69325268,13.1200475 2.65557502,13.2320839 C2.65557502,13.2320839 2.21808761,14.5419991 1.48253003,14.527109 C1.45124452,14.5264158 1.42079953,14.5261385 1.39069213,14.525376 C1.03426734,14.5185964 0.754220283,14.5135221 0.754220283,14.5135221 L0.753669118,14.5135221 C0.636432137,14.5117891 0.518514467,14.6038958 0.491107776,14.7186426 C0.491107776,14.7186426 0.248223033,15.7459366 0.248223033,15.7459366 C0.248223033,15.7459366 0.00566898864,16.772884 0.00566898864,16.772884 C-0.021579243,16.8876267 0.052093637,16.9823994 0.168827679,16.9844375 C0.585977093,16.9895117 1.52016084,17 2.08578039,17 C3.92308973,17 4.89162485,15.9757561 5.51251249,13.028329 C5.51251249,13.028329 6.23914119,9.64560827 6.23914119,9.64560827 C6.23914119,9.64560827 6.92069835,6.47306848 6.92069835,6.47306848 C6.945425,6.35764781 6.86956399,6.26315789 6.75215202,6.26315789 L6.75229808,6.26315789 Z" id="Path" fill="#FFFFFF"></path>
                    <path d="M40.8566524,13.4210526 C40.7415811,13.4210526 40.6669039,13.3214506 40.6911323,13.1997893 C40.6911323,13.1997893 42.4179104,4.47368421 42.4179104,4.47368421" id="Path" fill="#131B28"></path>
                    <path d="M43.2835821,12.5263158 C43.2835821,12.5263158 44.1492537,8.94736842 44.1492537,8.94736842 C44.1492537,8.94736842 43.2835821,12.5263158 43.2835821,12.5263158 Z" id="Path" fill="#131B28"></path>
                    <path d="M40.7162802,13.3131016 C40.7023049,13.2537384 40.710515,13.1082903 40.7348595,12.9895612 C40.7348595,12.9895612 41.5522388,8.94736842 41.5522388,8.94736842 C41.5522388,8.94736842 40.6911221,13.2051221 40.6911221,13.2051221 C40.6669513,13.3238441 40.7414383,13.4210526 40.8562116,13.4210526 L41.0653754,13.4210526 C40.9504377,13.4210526 40.7301045,13.3724519 40.7162842,13.3130916 L40.7162802,13.3131016 Z" id="Path" fill="#131B28"></path>
                    <path d="M42.9757924,12.570334 C42.8677921,12.5765187 42.616552,12.5815789 42.4179104,12.5815789 L42.7794092,12.5815789 C42.977783,12.5815789 43.1727344,12.5590891 43.2119645,12.5315395 C43.2119645,12.5315395 43.2835821,12.4815789 43.2835821,12.4815789 C43.2440796,12.5090484 43.0840744,12.564149 42.9757948,12.570334 L42.9757924,12.570334 Z" id="Path" fill="#131B28"></path>
                    <path d="M43.2403116,10.7368421 C43.2403116,10.7368421 43.3402985,8.94736842 43.3402985,8.94736842 C43.3402547,8.94847871 43.3402109,8.95008071 43.3401233,8.95085791 C43.3401233,8.95085791 43.2402985,10.7368421 43.2402985,10.7368421 L43.2403116,10.7368421 Z" id="Path" fill="#131B28"></path>
                    <path d="M50.2054185,4.47368421 C50.2054185,4.47368421 50.2624632,5.06260699 50.2624632,5.06260699 C50.2781834,5.23107792 50.2345831,5.36793538 50.1656716,5.36842105" id="Path" fill="#131B28"></path>
                    <path d="M43.2402985,12.5263158 C43.2402985,12.5263158 43.3402985,10.7368421 43.3402985,10.7368421 C43.3402985,10.7368421 43.2402985,12.5263158 43.2402985,12.5263158 Z" id="Path" fill="#131B28"></path>
                    <path d="M50.1808201,4.42894737 C50.1808201,4.42894737 50.2505231,4.52894737 50.2505231,4.52894737 C50.2505231,4.52894737 50.1808201,4.42894737 50.1808201,4.42894737 Z" id="Path" fill="#131B28"></path>
                    <path d="M44.1059701,8.94736842 C44.1115065,8.84386824 44.1206662,8.67620975 44.1264411,8.5736219 C44.1264411,8.5736219 44.2059701,7.15789474 44.2059701,7.15789474 C44.2059701,7.15789474 44.1158871,8.76154261 44.1158871,8.76154261 C44.1158871,8.76154261 44.1059701,8.94736842 44.1059701,8.94736842 L44.1059701,8.94736842 Z" id="Path" fill="#131B28"></path>
                    <path d="M42.4179104,4.47368421 C42.3956531,4.59022456 42.367149,4.73748282 42.3482525,4.83496261 C42.3482525,4.83496261 41.5522388,8.94736842 41.5522388,8.94736842 C41.5522388,8.94736842 42.3908467,4.61567287 42.3908467,4.61567287 C42.3908467,4.61567287 42.4179104,4.47368421 42.4179104,4.47368421 L42.4179104,4.47368421 Z" id="Path" fill="#131B28"></path>
                    <path d="M51.0688043,4.90625264 C51.0688043,4.90625264 50.9680757,4.49925981 50.9680757,4.49925981 C50.9680757,4.49925981 50.8683925,4.08236557 50.8683925,4.08236557 C50.8683925,4.08236557 50.8179409,3.87135918 50.8179409,3.87135918 C50.6204994,3.12122925 50.0409028,2.68829416 48.7824597,2.68829416 C48.7824597,2.68829416 46.8232037,2.68625234 46.8232037,2.68625234 C46.8232037,2.68625234 45.0188289,2.68421053 45.0188289,2.68421053 L44.8639762,2.68421053 L42.9885248,2.68421053 C42.8666719,2.68421053 42.7460347,2.77946967 42.7209076,2.89623782 L42.7207645,2.89623782 C42.7207645,2.89623782 42.6310349,3.31107626 42.6310349,3.31107626 C42.6310349,3.31107626 42.5250692,3.80102838 42.5250692,3.80102838 C42.5250692,3.80102838 42.4955659,3.93828462 42.4955659,3.93828462 C42.4955659,3.93828462 41.5813227,8.1262467 41.5813227,8.1262467 C41.5813227,8.1262467 40.7135153,12.1019158 40.7135153,12.1019158 C40.6876803,12.2186853 40.6789508,12.361744 40.6937911,12.4201315 C40.7084498,12.4785149 40.9423878,12.5263158 41.0644052,12.5263158 L42.8960951,12.5263158 C43.0181224,12.5263158 43.1724503,12.5048054 43.238779,12.4785149 C43.3052907,12.4522244 43.403571,12.2180015 43.42784,12.1012263 C43.42784,12.1012263 43.7534198,10.5262304 43.7534198,10.5262304 C43.7534198,10.5262304 44.0793427,8.9515141 44.0793427,8.9515141 C44.0794858,8.95081485 44.0796288,8.94947228 44.0799148,8.94843739 C44.0799148,8.94843739 44.1233845,8.73880154 44.1233845,8.73880154 C44.1233845,8.73880154 44.5182676,6.92955605 44.5182676,6.92955605 C44.5182676,6.92955605 44.8670724,5.33162461 44.8670724,5.33162461 C44.8929117,5.21553894 45.0130155,5.12061823 45.1346896,5.12028259 C45.1346896,5.12028259 50.8980487,5.11755551 50.8980487,5.11755551 C51.0197271,5.1172758 51.0967202,5.0226362 51.0689616,4.90621348 L51.0688043,4.90625264 Z" id="Path" fill="#FFFFFF"></path>
                    <path d="M57.2303332,1.79405376 C57.115846,1.7949168 56.9286381,1.79567915 56.8141456,1.79567915 L55.0834077,1.79567915 C54.9689179,1.79567915 54.8223278,1.87855673 54.7577891,1.97986593 C54.7577891,1.97986593 50.9306833,7.99049701 50.9306833,7.99049701 C50.8659862,8.09198601 50.7922806,8.07688571 50.7668945,7.95748723 C50.7668945,7.95748723 50.4853393,6.63322669 50.4853393,6.63322669 C50.4599518,6.51347723 50.3452996,6.41585608 50.2309681,6.41585608 L47.7705804,6.41585608 C47.6560919,6.41585608 47.5882887,6.51207767 47.6195652,6.6300766 C47.6195652,6.6300766 48.7220368,10.7703596 48.7220368,10.7703596 C48.7534836,10.8883542 48.7557781,11.0822041 48.7274441,11.2009007 C48.7274441,11.2009007 48.2468923,13.2047321 48.2468923,13.2047321 C48.2183933,13.3237796 48.2888223,13.4210526 48.4033148,13.4210526 L50.8349888,13.4210526 C50.9493136,13.4210526 51.0662548,13.3237781 51.0945928,13.2047321 C51.0945928,13.2047321 51.5753191,11.2009007 51.5753191,11.2009007 C51.6036557,11.0822056 51.6832571,10.9045189 51.7522169,10.8065353 C51.7522169,10.8065353 57.9653768,1.9662889 57.9653768,1.9662889 C58.034334,1.86831246 57.9969887,1.78858929 57.882664,1.78947368 C57.882664,1.78947368 57.2304606,1.79404081 57.2304606,1.79404081 L57.2303332,1.79405376 Z" id="Path" fill="#FFFFFF"></path>
                    <path d="M37.0921792,6.6609724 C37.0921792,6.6609724 37.0920418,6.6584382 37.0920418,6.6584382 C37.0772935,6.79556343 36.9600815,6.8961488 36.8430356,6.8961488 L33.6496902,6.8961488 C33.5393585,6.8961488 33.4831824,6.81510193 33.4994458,6.71524274 C33.5004073,6.71235286 33.5008194,6.70981867 33.5024677,6.70728447 C33.5024677,6.70728447 33.5013689,6.70758087 33.5004623,6.70832186 C33.5011491,6.70433532 33.5011491,6.70073409 33.5021793,6.69674755 C33.5021793,6.69674755 33.5082231,6.67250522 33.5167738,6.63813203 C33.8217679,5.76327109 34.4430198,5.18907552 35.6105524,5.18907552 C36.924964,5.18907552 37.1815387,5.88194855 37.0922547,6.66092498 L37.0921792,6.6609724 Z M36.1553702,2.68421053 C32.0564103,2.68421053 31.0851377,5.3685322 30.5402305,8.07775125 C29.9952822,10.8391362 30.0422318,13.4210526 34.2837028,13.4210526 L34.4342768,13.4210526 C34.4476832,13.4207562 34.4614425,13.4207562 34.4748557,13.4207562 L34.5935705,13.4207562 L34.6371644,13.4207562 L34.7485016,13.4207562 C34.7649339,13.4204598 34.7813677,13.4204598 34.7981339,13.4204598 C34.8403885,13.4204598 34.883146,13.4201634 34.925902,13.4201634 L34.9559179,13.4201634 C35.1237581,13.419867 35.2941257,13.4189779 35.4648093,13.418311 L35.4733668,13.418311 C36.5936063,13.4136131 37.7170051,13.4045729 38.1720788,13.4005834 C38.2884461,13.398731 38.4022942,13.2974668 38.4262773,13.1748177 C38.4262773,13.1748177 38.5979773,12.2692055 38.5979773,12.2692055 C38.5979773,12.2692055 38.6313461,12.0929973 38.6313461,12.0929973 C38.6313461,12.0929973 38.8362461,11.012985 38.8362461,11.012985 C38.8597209,10.8892451 38.7830932,10.7879306 38.6658922,10.7879306 L34.8526411,10.7879306 C33.3360492,10.7879306 32.8856458,10.3530269 33.0515767,9.07475452 L39.1472016,9.07475452 C39.1472016,9.07475452 39.1466522,9.07549552 39.1466522,9.07549552 C39.1482044,9.07549552 39.1495093,9.07475452 39.1508417,9.07475452 C39.2477574,9.07290204 39.3372942,9.00094568 39.3728429,8.9050671 C39.3795598,8.88661637 39.3852603,8.86743799 39.3875913,8.84753936 C39.3875913,8.84753936 39.3869045,8.84828035 39.3869045,8.84828035 C40.2920245,5.16495175 40.0324553,2.68440318 36.1550982,2.68440318 L36.1553702,2.68421053 Z" id="Shape" fill="#FFFFFF"></path>
                    <path d="M16.6819797,6.22733436 C16.6819797,6.22733436 16.6227378,6.43456372 16.6227378,6.43456372 C16.6227378,6.43526062 16.6225967,6.43526062 16.6225967,6.43526062 C16.6225967,6.43526062 16.1498806,8.09039156 16.1498806,8.09039156 C16.1498806,8.09039156 15.6773338,9.74524375 15.6773338,9.74524375 C15.6446141,9.85957811 15.519583,9.95315607 15.3990339,9.95315607 L12.8969171,9.95315607 C10.999027,9.95315607 10.5368634,8.48660552 10.999027,6.32343649 C11.4610778,4.11092713 12.3670794,2.73553074 14.2350192,2.59629067 C16.7876411,2.4060656 17.2983348,4.17991996 16.6819755,6.22740405 L16.6819797,6.22733436 Z M18.3978822,9.82583295 C18.3978822,9.82583295 19.5775282,6.99601201 19.845459,5.36136985 C20.2108448,3.17325189 19.1019906,0 14.8189353,0 C10.5602861,0 8.71106715,3.02969106 8.005407,6.32322742 C7.2998597,9.64059766 8.22428579,12.5500043 12.4587405,12.5261704 C12.4587405,12.5261704 15.7992697,12.5139189 15.7992697,12.5139189 C15.7992697,12.5139189 18.9214138,12.5026849 18.9214138,12.5026849 C19.0416173,12.5017093 19.1645717,12.4074051 19.1952274,12.2927237 C19.1952274,12.2927237 19.7390739,10.243149 19.7390739,10.243149 C19.769384,10.128133 19.6958497,10.0335362 19.5756519,10.0328532 C19.5756519,10.0328532 19.0543634,10.0297869 19.0543634,10.0297869 C19.0543634,10.0297869 18.5332584,10.0267205 18.5332584,10.0267205 C18.4309645,10.0260236 18.3724181,9.96070486 18.3848186,9.8739328 C18.3870617,9.85828745 18.3906733,9.84228669 18.3975719,9.82561273 L18.3978822,9.82583295 Z" id="Shape" fill="#FFFFFF"></path>
                    <path d="M39.0119403,8.05783327 C39.0119403,8.08544452 38.989579,8.10789474 38.9619403,8.10789474 C38.9343634,8.10789474 38.9119403,8.085446 38.9119403,8.05783327 C38.9119403,8.03022251 38.934362,8.00789474 38.9619403,8.00789474 C38.9895771,8.00789474 39.0119403,8.0302235 39.0119403,8.05783327 Z" id="Path" fill="#131B28"></path>
                </g>
            </g>
        </g>
    </g>
</svg>