<?xml version="1.0" encoding="UTF-8"?>
<svg width="51px" height="28px" viewBox="0 0 51 28" version="1.1" xmlns="http://www.w3.org/2000/svg" xmlns:xlink="http://www.w3.org/1999/xlink">
    <title>7551F897-21D4-41CF-96A5-5566D0067940</title>
    <g id="Page-1" stroke="none" stroke-width="1" fill="none" fill-rule="evenodd">
        <g id="Landing" transform="translate(-736.000000, -4470.000000)" fill="#FFFFFF" fill-rule="nonzero">
            <g id="Nextjs-logo" transform="translate(736.000000, 4470.000000)">
                <g id="EXT-+-Type-something">
                    <path d="M12.0338514,7.30279531 L21.6529191,7.30279531 L21.6529191,7.99855734 L12.9155993,7.99855734 L12.9155993,13.2350821 L21.1318862,13.2350821 L21.1318862,13.9308442 L12.9155993,13.9308442 L12.9155993,19.6800357 L21.7531177,19.6800357 L21.7531177,20.3757977 L12.0338514,20.3757977 L12.0338514,7.30279531 Z M22.5146273,7.30279531 L23.5366532,7.30279531 L28.0656309,13.0519869 L32.6948073,7.30279531 L38.9912417,0 L28.6467827,13.6562012 L33.9773496,20.3757977 L32.9152441,20.3757977 L28.0656309,14.2604157 L23.1959779,20.3757977 L22.1539123,20.3757977 L27.5245582,13.6562012 L22.5146273,7.30279531 Z M34.3581045,7.99855732 L34.3581045,7.30279531 L45.3198337,7.30279531 L45.3198337,7.99855734 L40.2698229,7.99855734 L40.2698229,20.3757977 L39.3880751,20.3757977 L39.3880751,7.99855734 L34.3581045,7.99855732 Z" id="EXT"></path>
                    <polygon id="Type-something" points="0 7.30279531 1.10218484 7.30279531 16.3006688 28 10.0198622 20.3757977 0.92182732 8.29150978 0.881747871 20.3757977 0 20.3757977"></polygon>
                </g>
                <path d="M45.2309939,19.4700696 C45.413286,19.4700696 45.546252,19.3430442 45.546252,19.1788886 C45.546252,19.0147328 45.413286,18.8877074 45.2309939,18.8877074 C45.0508467,18.8877074 44.9157359,19.0147328 44.9157359,19.1788886 C44.9157359,19.3430442 45.0508467,19.4700696 45.2309939,19.4700696 Z M46.0974173,18.7040091 C46.0974173,19.1886597 46.4813028,19.5052458 47.0410465,19.5052458 C47.6372485,19.5052458 47.9975433,19.1788886 47.9975433,18.6121601 L47.9975433,16.6168854 L47.5171502,16.6168854 L47.5171502,18.6102058 C47.5171502,18.9248378 47.3434367,19.0929021 47.0367571,19.0929021 C46.7622468,19.0929021 46.5756655,18.9365632 46.5692318,18.7040091 L46.0974173,18.7040091 Z M48.6259146,18.6786042 C48.6602286,19.1827969 49.1213199,19.5052458 49.8075957,19.5052458 C50.5410531,19.5052458 51,19.1671632 51,18.627794 C51,18.2037248 50.7383574,17.9692166 50.1035523,17.8343743 L49.7625589,17.7581591 C49.3593717,17.6721727 49.1963815,17.5568728 49.1963815,17.3555866 C49.1963815,17.1015358 49.4494455,16.9354259 49.8290419,16.9354259 C50.1893367,16.9354259 50.4381117,17.0976274 50.4831485,17.3575407 L50.9506738,17.3575407 C50.9227938,16.8826614 50.4638469,16.5484872 49.8354757,16.5484872 C49.1599231,16.5484872 48.7095543,16.8826614 48.7095543,17.3849001 C48.7095543,17.799198 48.9647634,18.0454317 49.5245071,18.1646401 L49.9234048,18.2525807 C50.3330258,18.3405214 50.5131731,18.469501 50.5131731,18.6844668 C50.5131731,18.9346091 50.2300845,19.116353 49.8440543,19.116353 C49.4301441,19.116353 49.1427661,18.9463345 49.1020185,18.6786042 L48.6259146,18.6786042 Z" id=".JS"></path>
            </g>
        </g>
    </g>
</svg>