<?xml version="1.0" encoding="UTF-8"?>
<svg width="51px" height="55px" viewBox="0 0 51 55" version="1.1" xmlns="http://www.w3.org/2000/svg" xmlns:xlink="http://www.w3.org/1999/xlink">
    <title>408A85AA-71E6-43CA-9E08-1C954BE359E9</title>
    <g id="Page-1" stroke="none" stroke-width="1" fill="none" fill-rule="evenodd">
        <g id="Landing" transform="translate(-1026.000000, -4456.000000)" fill="#61DD3E" fill-rule="nonzero">
            <g id="Group" transform="translate(1026.000000, 4456.000000)">
                <path d="M25.4996886,0 C24.7248379,0 23.9711648,0.153120138 23.3040706,0.514173849 L2.19624079,12.1739447 C0.830286154,12.9270336 0,14.3486081 0,15.8613398 L0,39.1385797 C0,40.6501198 0.830286154,42.0699069 2.19624079,42.8247832 L7.70864324,45.8687162 C10.3869857,47.1312126 11.3742352,47.1115513 12.5931924,47.1115513 C16.5583849,47.1115513 18.8225186,44.8099828 18.8225186,40.8103895 L18.8225186,17.832836 C18.8225186,17.508126 18.5285238,17.2757647 18.1952882,17.2757647 L15.5512036,17.2757647 C15.2123621,17.2757647 14.9239732,17.508126 14.9239732,17.832836 L14.9239732,40.8103895 C14.9239732,42.5828891 12.9930751,44.3661132 9.86003737,42.8676807 L4.1234016,39.6527536 C3.92034588,39.5472973 3.76462829,39.3608125 3.76462829,39.1385797 L3.76462829,15.860744 C3.76462829,15.6402986 3.91847727,15.4156827 4.1234016,15.3036726 L25.1863848,3.68739508 C25.3801356,3.57910249 25.6198644,3.57910249 25.8136152,3.68739508 L46.8772213,15.3042684 C47.0777855,15.4198533 47.2359946,15.6337448 47.2359946,15.8619356 L47.2359946,39.1391755 C47.2359946,39.3614083 47.118895,39.5890032 46.9220679,39.6962469 L25.8136152,51.3131202 C25.6329828,51.4161933 25.3838347,51.4161933 25.1863848,51.3131202 L19.7636757,48.2268855 C19.5960336,48.1399052 19.3937806,48.1399052 19.2261386,48.2268855 C17.7293812,49.0383627 17.4478438,49.1324988 16.043894,49.598413 C15.698201,49.7139978 15.1731213,49.8933331 16.2232807,50.4563624 L23.3040706,54.4422524 C23.9716955,54.8106881 24.7295501,55.0031218 25.5003114,55 C26.2709807,55.0045161 27.028957,54.8122027 27.6959294,54.4428482 L48.8043821,42.825379 C50.1703367,42.0657363 51,40.6507156 51,39.1391755 L51,15.8613398 C51,14.3492039 50.1703367,12.9300126 48.8043821,12.1751363 L27.6959294,0.515365445 C27.0344411,0.153715936 26.275785,0.000595798203 25.5003114,0.000595798203 L25.4996886,0 Z" id="Path"></path>
                <path d="M31.146631,16.6328984 C25.1359323,16.6328984 21.5562965,19.0798416 21.5562965,23.1491434 C21.5562965,27.5628165 25.1091489,28.7758616 30.8781739,29.3216128 C37.7795772,29.9680538 38.3171143,30.9374175 38.3171143,32.2368534 C38.3171143,34.490758 36.4385374,35.4517805 31.9987176,35.4517805 C26.419668,35.4517805 25.1938592,34.1195757 24.7833877,31.4652947 C24.7348038,31.1805031 24.5049646,30.950525 24.2003811,30.950525 L21.4666032,30.950525 C21.1302532,30.950525 20.8393727,31.228167 20.8393727,31.5510896 C20.8393727,34.9489268 22.7715165,38.9669899 31.9987176,38.9669899 C38.6777562,38.9669899 42.5302092,36.4592752 42.5302092,32.0652635 C42.5302092,27.7099786 39.418349,26.5404267 32.9392518,25.7212042 C26.3928846,24.8924489 25.7687685,24.4867103 25.7687685,23.020451 C25.7687685,21.809789 26.2982083,20.1904095 31.146631,20.1904095 C35.4780713,20.1904095 37.0788481,21.0841068 37.7347305,23.8778046 C37.7920346,24.1399558 38.0337083,24.349081 38.3171143,24.349081 L41.051515,24.349081 C41.21969,24.349081 41.3828821,24.2501784 41.4993588,24.1345936 C41.613967,24.0112634 41.6949401,23.8724424 41.6787455,23.7062147 C41.2551936,18.89574 37.9016598,16.6328984 31.146631,16.6328984 L31.146631,16.6328984 Z" id="Path"></path>
            </g>
        </g>
    </g>
</svg>