<?xml version="1.0" encoding="UTF-8"?>
<svg width="51px" height="58px" viewBox="0 0 51 58" version="1.1" xmlns="http://www.w3.org/2000/svg" xmlns:xlink="http://www.w3.org/1999/xlink">
    <title>E149691A-AEB5-4513-8DB9-ECBD1C84F800</title>
    <defs>
        <linearGradient x1="50.0000915%" y1="-3.85995056%" x2="50.0000915%" y2="104.938815%" id="linearGradient-1">
            <stop stop-color="#00EFD1" offset="0%"></stop>
            <stop stop-color="#00ACEA" offset="100%"></stop>
        </linearGradient>
        <linearGradient x1="50.0002582%" y1="-253.031812%" x2="50.0002582%" y2="359.1068%" id="linearGradient-2">
            <stop stop-color="#00EFD1" offset="0%"></stop>
            <stop stop-color="#00ACEA" offset="100%"></stop>
        </linearGradient>
        <linearGradient x1="50%" y1="0%" x2="50%" y2="100%" id="linearGradient-3">
            <stop stop-color="#00D1DC" offset="0%"></stop>
            <stop stop-color="#00CBDF" offset="100%"></stop>
        </linearGradient>
    </defs>
    <g id="Page-1" stroke="none" stroke-width="1" fill="none" fill-rule="evenodd">
        <g id="Landing" transform="translate(-1203.000000, -4371.000000)">
            <g id="physics-2" transform="translate(1203.000000, 4371.000000)">
                <g id="physics" fill-rule="nonzero">
                    <path d="M49.7536094,13.3806652 C47.6069756,9.99647595 42.990955,8.59063416 36.7712727,9.39753147 C36.5515584,9.42346204 36.3187118,9.46261203 36.0989975,9.4885426 C36.0085863,9.28058977 35.9181751,9.07212866 35.8146316,8.86417583 C33.1381579,3.14979754 29.4787784,0 25.4961412,0 C21.513504,0 17.8414972,3.14979754 15.1776509,8.86417583 C15.0872396,9.07212866 14.9836962,9.28058977 14.893285,9.4885426 C14.6604384,9.44990089 14.440724,9.42346204 14.2210097,9.39753147 C7.98870006,8.57741474 3.38530683,9.99647595 1.23867286,13.3806652 C-0.907455931,16.7648544 -0.24831308,21.5675965 3.08780866,26.9042026 C3.52774224,27.6073776 4.00606282,28.3100444 4.52327532,29 C4.00606282,29.7026668 3.52774224,30.3926224 3.08780866,31.0952891 C-0.24831308,36.4318952 -0.907455931,41.2478568 1.23867286,44.6193348 C2.98426505,47.378649 6.37241099,48.8236408 10.9364072,48.8236408 C12.030433,48.8175396 13.1229433,48.7438154 14.2078774,48.6019603 C14.4275916,48.5760297 14.6604384,48.5368797 14.8801525,48.5109491 C14.9710688,48.7194102 15.06148,48.9273631 15.1650235,49.1358242 C17.8414972,54.8496942 21.5008766,58 25.4830088,58 C29.4656462,58 33.1381579,54.8496942 35.8014993,49.1358242 C35.8919104,48.9273631 35.995454,48.7194102 36.0858651,48.5109491 C36.3187118,48.5500991 36.538426,48.5760297 36.7586454,48.6019603 C37.8425693,48.7499167 38.9355848,48.8236408 40.0296104,48.8236408 C44.5941118,48.8236408 47.9817526,47.378649 49.7273447,44.6193348 C51.8739787,41.2351456 51.2143307,36.4318952 47.8787141,31.0952891 C47.4387805,30.3926224 46.96046,29.6899556 46.4432475,29 C46.96046,28.296825 47.4387805,27.6073776 47.8787141,26.9042026 C51.2532227,21.5548854 51.9128706,16.751635 49.7536094,13.3806652 L49.7536094,13.3806652 Z M17.5182394,9.97054538 C19.7032602,5.28474493 22.6125805,2.60322247 25.4961412,2.60322247 C28.3797019,2.60322247 31.2890222,5.28474493 33.474043,9.97054538 C33.4755582,9.98020581 33.480104,9.98935783 33.4871753,9.99647595 C30.740494,10.6615179 28.0614949,11.5807809 25.4830088,12.7425707 C22.9075533,11.5751881 20.2275439,10.6554166 17.4793475,9.99647595 C17.5051071,9.99647595 17.5051071,9.98325653 17.5182394,9.97054538 L17.5182394,9.97054538 Z M37.1465564,29 C37.1470599,31.082578 37.0349298,33.1641391 36.8101647,35.2345145 C35.1984214,36.5437523 33.5149553,37.7604538 31.7673428,38.879026 C29.750517,40.182671 27.6513617,41.3525957 25.4830088,42.3806652 C23.3192018,41.3444607 21.2200464,40.1750443 19.19918,38.879026 C17.4535878,37.7574031 15.7701218,36.5407017 14.1563581,35.2345145 C13.7078379,31.0902046 13.7078379,26.909287 14.1563581,22.7649772 C17.6414814,19.9456668 21.4432964,17.5473465 25.4830088,15.6193348 C27.647321,16.6550309 29.7459712,17.8244473 31.7673428,19.1204657 C33.512935,20.2420885 35.196401,21.4587899 36.8101647,22.7649772 C37.0349298,24.835861 37.1470599,26.9169136 37.1465564,29 Z M39.6159415,25.212108 C40.8822028,26.3993197 42.074216,27.6643231 43.1849097,29 C42.074216,30.3351685 40.8822028,31.6001719 39.6159415,32.7873837 C39.6937253,31.5381419 39.7326172,30.2756807 39.7326172,29 C39.7326172,27.7243193 39.6937253,26.4618581 39.6159415,25.212108 Z M36.2798197,38.9313954 C35.8717068,41.1848098 35.2792358,43.4005997 34.508468,45.5563933 C32.5002289,45.0998125 30.5293663,44.4906991 28.6125485,43.7341375 C30.1379213,42.9272402 31.6637993,42.0420429 33.1765447,41.0790539 C34.2372344,40.3890983 35.2716594,39.6732121 36.2798197,38.9313954 L36.2798197,38.9313954 Z M22.3797338,43.7341375 C20.4664516,44.5003595 18.494579,45.1099812 16.4838144,45.5563933 C15.7130465,43.4005997 15.1205755,41.1848098 14.7124626,38.9313954 C15.7079956,39.6732121 16.7424206,40.3890983 17.8157376,41.0658345 C19.3284831,42.0420429 20.854361,42.9272402 22.3797338,43.7341375 Z M11.3763409,32.7873837 C10.1100795,31.6001719 8.91857146,30.3351685 7.80737272,29 C8.91857146,27.6643231 10.1100795,26.3993197 11.3763409,25.212108 C11.2985571,26.4618581 11.259665,27.7243193 11.259665,29 C11.259665,30.2756807 11.2985571,31.5381419 11.3763409,32.7873837 Z M14.7124626,19.0686046 C15.1205755,16.8146817 15.7130465,14.5988919 16.4838144,12.4436067 C18.4920535,12.8996792 20.4634211,13.5087925 22.3797338,14.2658625 C20.854361,15.0727598 19.3284831,15.9579571 17.8157376,16.9209461 C16.7550479,17.6109017 15.7206229,18.3267879 14.7124626,19.0686046 Z M33.1639175,16.9209461 C31.6637993,15.9579571 30.1379213,15.0595403 28.5994162,14.2658625 C30.5126984,13.4996406 32.484571,12.8900188 34.4958407,12.4436067 C35.2661034,14.5988919 35.8585745,16.8146817 36.2671925,19.0686046 C35.2716594,18.3267879 34.2372344,17.6109017 33.1639175,16.9209461 Z M5.27333443,25.5115802 C2.53170411,21.1379632 1.85942897,17.2204183 3.41106647,14.7732875 C4.65257845,12.8208707 7.34218443,11.7663623 10.9752993,11.7663623 C11.9481032,11.7704298 12.919897,11.8360188 13.8846196,11.9616039 L13.9103791,11.9616039 C12.864337,15.0234409 12.1365019,18.1859495 11.7384907,21.3982854 C9.74590935,23.0715676 7.8907126,24.9045007 6.19108366,26.878272 C5.86782585,26.4359275 5.55770032,25.9803636 5.27333443,25.5115802 Z M13.8719922,46.0251766 C12.9072698,46.1512702 11.935476,46.2163508 10.9626719,46.2204183 C7.32905215,46.2204183 4.63944616,45.1791293 3.39843912,43.213493 C1.84680162,40.7663623 2.51907688,36.8488174 5.26020215,32.4752003 C5.54456804,32.0196364 5.85519849,31.5508531 6.17845631,31.0952891 C7.87758018,33.0695689 9.73277694,34.9019934 11.7253584,36.5752757 C12.1238746,39.7881201 12.8517098,42.9506286 13.8977519,46.0119572 C13.8977519,46.0251766 13.8846196,46.0251766 13.8719922,46.0251766 Z M33.474043,48.0294546 C31.2890222,52.7152551 28.3797019,55.3967775 25.4961412,55.3967775 C22.6125805,55.3967775 19.7032602,52.7152551 17.5182394,48.0294546 C17.5167241,48.0197942 17.5121783,48.0106423 17.5051071,48.003524 C20.2517883,47.3384821 22.9307874,46.4192191 25.5092735,45.256921 C28.0847291,46.424812 30.7647384,47.3445834 33.512935,48.003524 C33.4871753,48.003524 33.4871753,48.0162352 33.474043,48.0294546 Z M45.7189479,32.4884198 C48.4605782,36.8615286 49.1328535,40.7795817 47.581216,43.2267125 C46.0295785,45.673335 42.2151363,46.7019128 37.1202901,46.0251766 L37.0945305,46.0251766 C38.1405725,42.9633396 38.8689128,39.8008311 39.266924,36.5884952 C41.2595054,34.915213 43.1147021,33.0822799 44.813826,31.1085085 C45.1244566,31.5640725 45.4345821,32.0196364 45.7189479,32.4884198 L45.7189479,32.4884198 Z M39.2537916,21.4115048 C38.8557804,18.1986605 38.1279453,15.036152 37.0819032,11.9748234 L37.1076628,11.9748234 C42.202004,11.3107983 46.0164462,12.3261568 47.5680837,14.7732875 C49.1197212,17.2204183 48.4474459,21.1379632 45.7063206,25.5115802 C45.4219548,25.9671442 45.1113243,26.4359275 44.7880665,26.8914915 C43.0965189,24.914161 41.2453628,23.081228 39.2537916,21.4115048 Z" id="Shape" fill="url(#linearGradient-1)"></path>
                    <path d="M25.4961412,23.8454162 C22.6681404,23.8454162 20.3755354,26.153234 20.3755354,29 C20.3755354,31.8467662 22.6681404,34.1540755 25.4961412,34.1540755 C28.3241419,34.1540755 30.6167469,31.8467662 30.6167469,29 C30.6147266,26.1537424 28.3231318,23.84745 25.4961412,23.8454162 Z M25.4961412,31.5508531 C24.0965359,31.5508531 22.9615979,30.4088925 22.9615979,29 C22.9615979,27.5911075 24.0965359,26.4486387 25.4961412,26.4486387 C26.8957466,26.4486387 28.0306844,27.5911075 28.0306844,29 C28.028159,30.4078757 26.8947363,31.5488192 25.4961412,31.5508531 Z" id="Shape" fill="url(#linearGradient-2)"></path>
                </g>
                <ellipse id="Oval" fill="url(#linearGradient-3)" cx="25.5" cy="29" rx="2.79878049" ry="2.80645161"></ellipse>
            </g>
        </g>
    </g>
</svg>